<svg xmlns="http://www.w3.org/2000/svg" width="69" height="67" viewBox="0 0 69 67">
    <defs>
        <linearGradient id="4octrvf7va" x1="50%" x2="50%" y1="0%" y2="100%">
            <stop offset="0%" stop-color="#FFC414"/>
            <stop offset="100%" stop-color="#FFB20B"/>
        </linearGradient>
    </defs>
    <g fill="none" fill-rule="evenodd">
        <g>
            <g>
                <g>
                    <g>
                        <g>
                            <path fill="url(#4octrvf7va)" d="M47.179 38.157c0 7.456-6.046 13.503-13.503 13.503s-13.504-6.047-13.504-13.503c0-7.457 6.047-13.502 13.504-13.502S47.179 30.7 47.179 38.157" transform="translate(-393 -5794) translate(47 5570) translate(0 197) translate(321) translate(26 28)"/>
                            <path fill="#2A3846" d="M27.737 35.862c1.083 0 1.961.878 1.961 1.961 0 1.083-.878 1.961-1.96 1.961-1.084 0-1.962-.878-1.962-1.96 0-1.084.878-1.962 1.961-1.962zm6.444 0c1.083 0 1.961.878 1.961 1.961 0 1.083-.878 1.961-1.961 1.961-1.083 0-1.961-.878-1.961-1.96 0-1.084.878-1.962 1.961-1.962zm6.444 0c1.083 0 1.961.878 1.961 1.961 0 1.083-.878 1.961-1.961 1.961-1.083 0-1.961-.878-1.961-1.96 0-1.084.878-1.962 1.961-1.962z" transform="translate(-393 -5794) translate(47 5570) translate(0 197) translate(321) translate(26 28)"/>
                            <path stroke="#323B47" stroke-linecap="round" stroke-width="2" d="M29.968 62.739c0 1.108-.9 2.006-2.007 2.006h-5.15c-1.108 0-2.008-.898-2.008-2.006 0-1.11.9-2.007 2.008-2.007h5.15c1.107 0 2.007.897 2.007 2.007zM57.36 16.962c-.997 0-1.97-.507-2.522-1.423C51.183 9.498 44.793 5.89 37.743 5.89h-8.726c-7.052 0-13.441 3.608-17.097 9.65-.84 1.392-2.652 1.838-4.042.997-1.392-.843-1.84-2.653-.997-4.045C11.611 4.668 19.886 0 29.017 0h8.726c9.13 0 17.403 4.668 22.135 12.492.841 1.392.395 3.202-.997 4.045-.476.288-1.002.425-1.52.425zM9.076 27.162H7.33c-4.047 0-7.33 3.282-7.33 7.33v9.075c0 4.05 3.283 7.33 7.33 7.33h1.746V27.163z" transform="translate(-393 -5794) translate(47 5570) translate(0 197) translate(321) translate(26 28)"/>
                            <path stroke="#323B47" stroke-linecap="round" stroke-width="2" d="M11.5 52.794h0c1.36 0 2.463-1.103 2.463-2.464V27.88c0-1.362-1.103-2.466-2.463-2.466-1.52 0-2.753 1.233-2.753 2.753V50.04c0 1.52 1.233 2.753 2.753 2.753zM57.9 51.048h1.746c4.05 0 7.33-3.281 7.33-7.329v-9.076c0-4.048-3.28-7.33-7.33-7.33H57.9v23.735z" transform="translate(-393 -5794) translate(47 5570) translate(0 197) translate(321) translate(26 28)"/>
                            <path stroke="#323B47" stroke-linecap="round" stroke-width="2" d="M55.478 52.794h0c-1.361 0-2.464-1.103-2.464-2.464V27.882c0-1.36 1.103-2.464 2.463-2.464h.001c1.519 0 2.751 1.232 2.751 2.752v21.871c0 1.52-1.232 2.753-2.75 2.753zM58.76 16.591c1.31 2.932 2.038 6.182 2.038 9.601M5.816 26.193c0-3.44.738-6.709 2.065-9.655M20.826 62.891c-7.226 0-13.26-5.108-14.688-11.91M29.851 62.891L36.435 62.891" transform="translate(-393 -5794) translate(47 5570) translate(0 197) translate(321) translate(26 28)"/>
                        </g>
                    </g>
                </g>
            </g>
        </g>
    </g>
</svg>
