<svg id="image" xmlns="http://www.w3.org/2000/svg" width="345" height="439" viewBox="0 0 345 439">
  <g id="Background" transform="translate(0 0)">
    <path id="Path" d="M233.738,270.324,233.764,0,0,135.187Z" transform="translate(0)" fill="#4c6884" opacity="0.088"/>
    <path id="Path-2" data-name="Path" d="M103,60.712,4.374,0,0,115Z" transform="translate(204 289)" fill="#4c6884" opacity="0.088"/>
    <path id="Path-3" data-name="Path" d="M25.647,37,37,0,0,7.734Z" transform="translate(308 402)" fill="#4c6884" opacity="0.088"/>
    <path id="_" data-name="{…}" d="M31.356,25V23.182H32.81a1.7,1.7,0,0,0,1.342-.573,2.447,2.447,0,0,0,.5-1.664V15.436a3.046,3.046,0,0,1,.616-1.985,2.786,2.786,0,0,1,1.454-.978,2.651,2.651,0,0,1-1.454-.937,3.033,3.033,0,0,1-.616-2V4.055a2.5,2.5,0,0,0-.5-1.678A1.679,1.679,0,0,0,32.81,1.79H31.356V0h1.65a4.011,4.011,0,0,1,2.852.993A3.658,3.658,0,0,1,36.921,3.8V9.144a3.067,3.067,0,0,0,.434,1.832,2.483,2.483,0,0,0,1.552.8l.755.2V13l-.755.2a2.479,2.479,0,0,0-1.552.8,3.063,3.063,0,0,0-.434,1.832V21.2a3.76,3.76,0,0,1-1.007,2.824A4,4,0,0,1,33.006,25Zm-24.7,0a4,4,0,0,1-2.908-.979A3.76,3.76,0,0,1,2.74,21.2V15.827a3.071,3.071,0,0,0-.434-1.817A2.41,2.41,0,0,0,.783,13.2L0,13V11.969l.783-.2a2.414,2.414,0,0,0,1.524-.811A3.073,3.073,0,0,0,2.74,9.144V3.8A3.658,3.658,0,0,1,3.8.993,4.011,4.011,0,0,1,6.655,0h1.65V1.79H6.88a1.71,1.71,0,0,0-1.371.587,2.5,2.5,0,0,0-.5,1.678V9.536a3.084,3.084,0,0,1-.6,2,2.592,2.592,0,0,1-1.469.937,2.716,2.716,0,0,1,1.469.978,3.1,3.1,0,0,1,.6,1.985v5.509a2.447,2.447,0,0,0,.5,1.664,1.729,1.729,0,0,0,1.371.573H8.305V25Zm18.181-5.09V17.03h2.88v2.881Zm-6.46,0V17.03h2.881v2.881Zm-6.459,0V17.03H14.8v2.881Z" transform="translate(180 334)" fill="#fff" opacity="0"/>
  </g>
</svg>
