<?xml version="1.0" encoding="UTF-8"?>
<svg width="509px" height="541px" viewBox="0 0 509 541" version="1.1" xmlns="http://www.w3.org/2000/svg" xmlns:xlink="http://www.w3.org/1999/xlink">
    <title>image</title>
    <defs>
        <linearGradient x1="50%" y1="20.5331778%" x2="50%" y2="100%" id="linearGradient-1">
            <stop stop-color="#FFFFFF" offset="0%"></stop>
            <stop stop-color="#FFFFFF" stop-opacity="0" offset="100%"></stop>
        </linearGradient>
        <rect id="path-2" x="0" y="0" width="254.87013" height="250"></rect>
        <linearGradient x1="100%" y1="50%" x2="0%" y2="50%" id="linearGradient-4">
            <stop stop-color="#BAB0FD" offset="0%"></stop>
            <stop stop-color="#8478F9" offset="100%"></stop>
        </linearGradient>
        <linearGradient x1="100%" y1="50%" x2="0%" y2="50%" id="linearGradient-5">
            <stop stop-color="#616D7D" offset="0%"></stop>
            <stop stop-color="#323B47" offset="100%"></stop>
        </linearGradient>
        <linearGradient x1="100%" y1="50%" x2="0%" y2="50%" id="linearGradient-6">
            <stop stop-color="#7556E8" offset="0%"></stop>
            <stop stop-color="#5D0EF9" offset="100%"></stop>
        </linearGradient>
        <linearGradient x1="100%" y1="50%" x2="0%" y2="50%" id="linearGradient-7">
            <stop stop-color="#616D7D" offset="0%"></stop>
            <stop stop-color="#323B47" offset="100%"></stop>
        </linearGradient>
        <linearGradient x1="100%" y1="50%" x2="0%" y2="50%" id="linearGradient-8">
            <stop stop-color="#616D7D" offset="0%"></stop>
            <stop stop-color="#323B47" offset="100%"></stop>
        </linearGradient>
        <rect id="path-9" x="0" y="0" width="442.622951" height="150" rx="12"></rect>
        <filter x="-11.3%" y="-20.0%" width="127.1%" height="180.0%" filterUnits="objectBoundingBox" id="filter-10">
            <feMorphology radius="5" operator="erode" in="SourceAlpha" result="shadowSpreadOuter1"></feMorphology>
            <feOffset dx="10" dy="30" in="shadowSpreadOuter1" result="shadowOffsetOuter1"></feOffset>
            <feGaussianBlur stdDeviation="20" in="shadowOffsetOuter1" result="shadowBlurOuter1"></feGaussianBlur>
            <feColorMatrix values="0 0 0 0 0.0903223218   0 0 0 0 0.0395715411   0 0 0 0 0.161373415  0 0 0 0.28 0" type="matrix" in="shadowBlurOuter1"></feColorMatrix>
        </filter>
        <filter x="-10.1%" y="-16.3%" width="124.6%" height="172.7%" filterUnits="objectBoundingBox" id="filter-11">
            <feMorphology radius="11" operator="erode" in="SourceAlpha" result="shadowSpreadInner1"></feMorphology>
            <feGaussianBlur stdDeviation="15" in="shadowSpreadInner1" result="shadowBlurInner1"></feGaussianBlur>
            <feOffset dx="-1" dy="-8" in="shadowBlurInner1" result="shadowOffsetInner1"></feOffset>
            <feComposite in="shadowOffsetInner1" in2="SourceAlpha" operator="arithmetic" k2="-1" k3="1" result="shadowInnerInner1"></feComposite>
            <feColorMatrix values="0 0 0 0 0.91372549   0 0 0 0 0.941176471   0 0 0 0 0.960784314  0 0 0 0.696159309 0" type="matrix" in="shadowInnerInner1" result="shadowMatrixInner1"></feColorMatrix>
            <feGaussianBlur stdDeviation="3.5" in="SourceAlpha" result="shadowBlurInner2"></feGaussianBlur>
            <feOffset dx="-3" dy="-8" in="shadowBlurInner2" result="shadowOffsetInner2"></feOffset>
            <feComposite in="shadowOffsetInner2" in2="SourceAlpha" operator="arithmetic" k2="-1" k3="1" result="shadowInnerInner2"></feComposite>
            <feColorMatrix values="0 0 0 0 0   0 0 0 0 0   0 0 0 0 0  0 0 0 0.1 0" type="matrix" in="shadowInnerInner2" result="shadowMatrixInner2"></feColorMatrix>
            <feMerge>
                <feMergeNode in="shadowMatrixInner1"></feMergeNode>
                <feMergeNode in="shadowMatrixInner2"></feMergeNode>
            </feMerge>
        </filter>
        <linearGradient x1="50%" y1="0%" x2="50%" y2="100%" id="linearGradient-12">
            <stop stop-color="#F6FBFF" offset="0%"></stop>
            <stop stop-color="#E9F0F5" offset="100%"></stop>
        </linearGradient>
        <linearGradient x1="50%" y1="0%" x2="50%" y2="100%" id="linearGradient-13">
            <stop stop-color="#FFC414" offset="0%"></stop>
            <stop stop-color="#FFB20B" offset="100%"></stop>
        </linearGradient>
        <circle id="path-14" cx="33" cy="33" r="33"></circle>
        <filter x="-43.2%" y="-29.5%" width="186.4%" height="218.2%" filterUnits="objectBoundingBox" id="filter-16">
            <feMorphology radius="5.5" operator="erode" in="SourceAlpha" result="shadowSpreadOuter1"></feMorphology>
            <feOffset dx="0" dy="30" in="shadowSpreadOuter1" result="shadowOffsetOuter1"></feOffset>
            <feGaussianBlur stdDeviation="10" in="shadowOffsetOuter1" result="shadowBlurOuter1"></feGaussianBlur>
            <feColorMatrix values="0 0 0 0 0.22233192   0 0 0 0 0.176508138   0 0 0 0 0.39232337  0 0 0 0.215089598 0" type="matrix" in="shadowBlurOuter1"></feColorMatrix>
        </filter>
    </defs>
    <g id="Page-1" stroke="none" stroke-width="1" fill="none" fill-rule="evenodd">
        <g id="features-marketing-1" transform="translate(-91.000000, -0.000000)">
            <g id="image" transform="translate(91.000000, 0.000000)">
                <g id="sitemap" transform="translate(26.000000, 27.000000)">
                    <mask id="mask-3" fill="white">
                        <use xlink:href="#path-2"></use>
                    </mask>
                    <use id="Rectangle" fill="transparent" xlink:href="#path-2"></use>
                    <g id="Group" opacity="0.727585565" mask="url(#mask-3)" fill-rule="nonzero">
                        <g transform="translate(17.857143, 22.727273)">
                            <path d="M59.09503,46.6920798 C58.8370983,46.6849887 58.5882819,46.5949171 58.3853399,46.4351717 L50.3224717,39.6962725 L42.2201763,46.4351717 C41.7553236,46.8157296 41.0723462,46.7542858 40.6825144,46.2968365 C40.4938875,46.0716345 40.4024238,45.7804354 40.4283143,45.4875226 C40.4542049,45.1946097 40.5953206,44.9240697 40.8205097,44.7356252 L50.2830445,36.8307582 L59.7652929,44.7356252 C60.1390641,45.0303204 60.2825935,45.5318342 60.121524,45.9803515 C59.9604544,46.4288689 59.5309832,46.7235944 59.0556028,46.711842 L59.09503,46.6920798 Z" id="Path" fill="#6D57E2"></path>
                            <path d="M57.4339596,47.0562152 L50.2667888,41.322314 L43.1189364,47.0562152 L43.1189364,52.0829351 C43.1189364,52.3262511 43.2166326,52.5596016 43.390533,52.731652 C43.5644335,52.9037024 43.800293,53.0003593 44.0462254,53.0003593 L47.3690108,53.0003593 C47.8811383,53.0003593 48.2962997,52.5896145 48.2962997,52.0829351 L48.2962997,48.2603344 C48.2962997,47.6903201 48.7633563,47.2282322 49.3394998,47.2282322 L51.2713518,47.2282322 C51.839937,47.2386513 52.2953309,47.6977015 52.2952333,48.2603344 L52.2952333,52.0829351 C52.3057506,52.5926911 52.7264963,53.0003593 53.2418408,53.0003593 L56.5646262,53.0003593 C57.0724424,52.9902064 57.4816532,52.585349 57.4919152,52.0829351 L57.4339596,47.0562152 Z" id="Path" fill="#6D57E2"></path>
                            <path d="M25.1527129,0 L0,0 L0,25.1527129 L25.1527129,25.1527129 L25.1527129,0 Z M22.9624409,2.18709404 L22.9624409,22.9635021 L2.18603281,22.9635021 L2.18603281,2.18709404 L22.9624409,2.18709404 Z" id="Rectangle" fill="#323B47"></path>
                            <polygon id="Path" fill="#323B47" points="17.0679123 10.7797341 17.0679123 13.4746676 8.08480057 13.4746676 8.08480057 10.7797341"></polygon>
                            <path d="M62.8817822,75.4581387 L62.8817822,100.610852 L37.7290693,100.610852 L37.7290693,75.4581387 L62.8817822,75.4581387 Z M60.6926322,77.6461205 L39.9162241,77.6461205 L39.9162241,98.4225286 L60.6926322,98.4225286 L60.6926322,77.6461205 Z M51.203737,83.5429393 L51.2030693,87.1361387 L54.7969817,87.136184 L54.7969817,88.9328063 L51.2030693,88.9321387 L51.203737,92.526051 L49.4071146,92.526051 L49.4070693,88.9321387 L45.8138699,88.9328063 L45.8138699,87.136184 L49.4070693,87.1361387 L49.4071146,83.5429393 L51.203737,83.5429393 Z" id="Combined-Shape" fill="#323B47"></path>
                            <rect id="Rectangle" fill="url(#linearGradient-4)" opacity="0.4" x="69.1699605" y="38.6273805" width="97.9159181" height="14.3729788"></rect>
                            <rect id="Rectangle" fill="url(#linearGradient-5)" opacity="0.3" x="102.407474" y="80.8480057" width="84.4412504" height="14.3729788"></rect>
                            <rect id="Rectangle" fill="url(#linearGradient-6)" x="44.0172476" y="5.38986705" width="84.4412504" height="14.3729788"></rect>
                            <rect id="Rectangle" fill="url(#linearGradient-7)" opacity="0.3" x="101.509163" y="122.17032" width="70.9665828" height="14.3729788"></rect>
                            <path d="M62.8817822,163.492634 L37.7290693,163.492634 L37.7290693,188.645347 L62.8817822,188.645347 L62.8817822,163.492634 Z M60.6926322,165.679522 L60.6926322,186.45593 L39.9162241,186.45593 L39.9162241,165.679522 L60.6926322,165.679522 Z" id="Rectangle" fill="#323B47"></path>
                            <polygon id="Path" fill="#323B47" points="54.7969817 175.170679 54.7969817 176.967301 45.8138699 176.967301 45.8138699 175.170679"></polygon>
                            <polygon id="Path" fill="#323B47" points="51.203737 171.577434 51.203737 180.560546 49.4071146 180.560546 49.4071146 171.577434"></polygon>
                            <rect id="Rectangle" fill="url(#linearGradient-7)" opacity="0.3" x="101.509163" y="210.204815" width="70.9665828" height="14.3729788"></rect>
                            <rect id="Rectangle" fill="url(#linearGradient-8)" opacity="0.3" x="102.407474" y="168.882501" width="90.7294287" height="14.3729788"></rect>
                            <path d="M91.3299571,83.1837983 L86.6448425,78.3967325 C86.487299,78.2357198 86.2720387,78.1477419 86.0492771,78.1533224 L78.1084048,78.1533224 C77.8838503,78.147858 77.6666361,78.235197 77.5059495,78.395562 C77.3452629,78.555927 77.254761,78.7757517 77.254761,79.0052578 L77.254761,96.1453873 C77.254761,96.6271009 77.6369504,97.0176069 78.1084048,97.0176069 L90.7740961,97.0176069 C91.2455505,97.0176069 91.6277398,96.6271009 91.6277398,96.1453873 L91.6277398,83.7923236 C91.6154954,83.5560295 91.5076199,83.3355834 91.3299571,83.1837983 L91.3299571,83.1837983 Z M89.880748,84.1371546 L85.6522335,84.1371546 L85.6522335,79.8774774 L85.6522335,79.8774774 L89.880748,84.1371546 Z M78.9024921,95.2934519 L78.9024921,79.8774774 L83.9647981,79.8774774 L83.9647981,84.9485217 C83.9594501,85.1779627 84.044929,85.3999036 84.2018787,85.5640868 C84.3588284,85.72827 84.5739715,85.8208063 84.7985897,85.8207413 L89.880748,85.8207413 L89.880748,95.2528835 L78.9024921,95.2934519 Z" id="Shape" fill="#323B47" opacity="0.7"></path>
                            <path d="M91.3299571,125.404176 L86.6448425,120.637392 C86.4893285,120.470908 86.2745085,120.375794 86.0492771,120.373697 L78.1084048,120.373697 C77.6369504,120.373697 77.254761,120.764204 77.254761,121.245917 L77.254761,138.386054 C77.254761,138.615561 77.3452629,138.835386 77.5059495,138.995751 C77.6666361,139.156116 77.8838503,139.243455 78.1084048,139.23799 L90.7740961,139.23799 C90.9986506,139.243455 91.2158648,139.156116 91.3765514,138.995751 C91.537238,138.835386 91.6277398,138.615561 91.6277398,138.386054 L91.6277398,126.012701 C91.6131891,125.777036 91.5057437,125.557469 91.3299571,125.404176 Z M89.8807479,126.357532 L85.6522335,126.357532 L85.6522335,122.118137 L85.6522335,122.118137 L89.8807479,126.357532 Z M78.9024921,137.513835 L78.9024921,122.118137 L83.9647981,122.118137 L83.9647981,127.229752 C83.9647981,127.4557 84.0526438,127.672393 84.20901,127.832162 C84.3653763,127.991931 84.5774544,128.081688 84.7985897,128.081688 L89.8807479,128.081688 L89.8807479,137.513835 L78.9024921,137.513835 Z" id="Shape" fill="#323B47" opacity="0.7"></path>
                            <path d="M91.3299571,171.212707 L86.6448425,166.450982 C86.4893285,166.284675 86.2745085,166.189662 86.0492771,166.187567 L78.1084048,166.187567 C77.6369504,166.187567 77.254761,166.577659 77.254761,167.058862 L77.254761,184.180808 C77.254761,184.66201 77.6369504,185.052102 78.1084048,185.052102 L90.7740961,185.052102 C91.2455505,185.052102 91.6277398,184.66201 91.6277398,184.180808 L91.6277398,171.820586 C91.6131892,171.585171 91.5057437,171.365837 91.3299571,171.212707 L91.3299571,171.212707 Z M89.880748,172.165052 L85.6522335,172.165052 L85.6522335,167.930156 L85.6522335,167.930156 L89.880748,172.165052 Z M78.902492,183.309513 L78.902492,167.930156 L83.9647981,167.930156 L83.9647981,173.036346 C83.9646727,173.509745 84.3349059,173.896631 84.7985897,173.90764 L89.880748,173.90764 L89.880748,183.309513 L78.902492,183.309513 Z" id="Shape" fill="#323B47" opacity="0.7"></path>
                            <path d="M91.3299571,213.438919 L86.6448425,208.651853 C86.487299,208.49084 86.2720387,208.402862 86.0492771,208.408443 L78.1084048,208.408443 C77.6369504,208.408443 77.254761,208.798949 77.254761,209.280662 L77.254761,226.400508 C77.254761,226.882221 77.6369504,227.272727 78.1084048,227.272727 L90.7740961,227.272727 C91.2455505,227.272727 91.6277398,226.882221 91.6277398,226.400508 L91.6277398,214.047444 C91.6154954,213.81115 91.5076199,213.590704 91.3299571,213.438919 L91.3299571,213.438919 Z M89.880748,214.392275 L85.6522335,214.392275 L85.6522335,210.132598 L85.6522335,210.132598 L89.880748,214.392275 Z M78.902492,225.548572 L78.902492,210.132598 L83.9647981,210.132598 L83.9647981,215.24421 C83.9594501,215.473651 84.044929,215.695592 84.2018787,215.859776 C84.3588284,216.023959 84.5739714,216.116495 84.7985897,216.11643 L89.880748,216.11643 L89.880748,225.548572 L78.902492,225.548572 Z" id="Shape" fill="#323B47" opacity="0.7"></path>
                        </g>
                    </g>
                </g>
                <g id="search" transform="translate(297.767140, 428.861897) rotate(-50.000000) translate(-297.767140, -428.861897) translate(280.267140, 403.861897)" fill="#4C6884" fill-rule="nonzero">
                    <path d="M17.7718599,0.373457587 C27.1607006,0.373457587 34.7718599,7.76075921 34.7718599,16.8734576 C34.7718599,24.6402698 29.2429129,31.1537083 21.7967463,32.9082728 L21.7960209,46.4331291 C21.7960209,48.2805949 20.2290175,49.7782619 18.2960209,49.7782619 C16.4767299,49.7782619 14.9816406,48.4516088 14.8120429,46.7552877 L14.7960209,46.4331291 L14.7959885,33.1215043 C6.82604309,31.7557317 0.771859894,25.0008152 0.771859894,16.8734576 C0.771859894,7.76075921 8.38301915,0.373457587 17.7718599,0.373457587 Z M17.7718599,4.72510594 C10.8591969,4.72510594 5.25537638,10.1641082 5.25537638,16.8734576 C5.25537638,23.344442 10.468093,28.6337399 17.0402441,29.001401 C17.4297356,28.8568318 17.853278,28.7782619 18.2960209,28.7782619 C18.6565018,28.7782619 19.0042544,28.8303475 19.3314891,28.927074 C25.5083248,28.1830501 30.2883434,23.0700523 30.2883434,16.8734576 C30.2883434,10.1641082 24.6845229,4.72510594 17.7718599,4.72510594 Z" id="Combined-Shape"></path>
                </g>
                <g id="wysiwyg" transform="translate(26.000000, 206.000000)">
                    <g id="Rectangle">
                        <use fill="black" fill-opacity="1" filter="url(#filter-10)" xlink:href="#path-9"></use>
                        <use fill="#FFFFFF" fill-rule="evenodd" xlink:href="#path-9"></use>
                        <use fill="black" fill-opacity="1" filter="url(#filter-11)" xlink:href="#path-9"></use>
                    </g>
                    <rect id="Rectangle" fill="url(#linearGradient-12)" x="21.3114754" y="52.4590164" width="398.360656" height="74.5901639"></rect>
                    <g id="Group-106" transform="translate(21.311475, 22.950820)" fill="#4C6884" opacity="0.470028832">
                        <g id="Group-105">
                            <path d="M365.295945,0.189818809 C365.887834,0.189818809 366.371009,0.67299396 366.371009,1.26488352 L366.371009,13.1509922 C366.371009,13.7428818 365.887834,14.2260569 365.295945,14.2260569 L350.398619,14.2260569 C349.805004,14.2260569 349.323555,13.7428818 349.323555,13.1509922 L349.323555,1.26488352 C349.323555,0.67299396 349.805004,0.189818809 350.398619,0.189818809 L365.295945,0.189818809 Z M4.12079379,0.362726488 C6.09836066,0.362726488 7.70836928,1.97273512 7.70836928,3.95030198 L7.70836928,4.48352028 C7.70836928,5.17398006 7.51210439,5.81963338 7.17245573,6.36759913 C8.96593509,6.56237657 10.3675582,8.08754623 10.3675582,9.9327006 L10.3675582,10.4659189 C10.3675582,12.4434858 8.75754961,14.0534944 6.77998274,14.0534944 L2.50737458e-11,14.0534944 L2.63429527e-11,0.362726488 L4.12079379,0.362726488 Z M331.89767,5.93787748 L330.656946,7.17860224 C330.301467,6.36583261 329.417947,5.90336497 328.537877,6.10181191 C328.208283,6.1760138 327.892494,6.33994823 327.637101,6.59706644 L325.259189,8.97670406 C324.536152,9.69801553 324.536152,10.8731665 325.259189,11.594478 C325.9805,12.3175151 327.153926,12.3175151 327.876963,11.594478 L328.610354,10.8610871 C329.276445,11.1268335 329.99258,11.2320966 330.696635,11.1803279 L329.079724,12.797239 C327.692321,14.1846419 325.442105,14.1846419 324.056428,12.797239 C322.669025,11.4098361 322.669025,9.16134599 324.056428,7.77394305 L326.43434,5.39430544 C326.675928,5.15271786 326.945125,4.9525453 327.231579,4.79378775 C328.826057,3.91544435 330.872649,4.38308887 331.89767,5.93787748 Z M32.9470233,0.588093184 C33.4232959,0.588093184 33.8098361,0.974633305 33.8098361,1.45090595 C33.8098361,1.9271786 33.4232959,2.31371872 32.9470233,2.31371872 L30.705,2.31281881 L26.958,12.1018188 L29.4838654,12.102157 C29.9601381,12.102157 30.3466782,12.4886972 30.3466782,12.9649698 C30.3466782,13.4412425 29.9601381,13.8277826 29.4838654,13.8277826 L22.5537532,13.8277826 C22.0774806,13.8277826 21.6909405,13.4412425 21.6909405,12.9649698 C21.6909405,12.4886972 22.0774806,12.102157 22.5537532,12.102157 L25.11,12.1018188 L28.859,2.31281881 L26.0186368,2.31371872 C25.5423641,2.31371872 25.155824,1.9271786 25.155824,1.45090595 C25.155824,0.974633305 25.5423641,0.588093184 26.0186368,0.588093184 L32.9470233,0.588093184 Z M52.9264884,12.102157 C53.402761,12.102157 53.7893011,12.4886972 53.7893011,12.9649698 C53.7893011,13.4412425 53.402761,13.8277826 52.9264884,13.8277826 L45.9963762,13.8277826 C45.5201035,13.8277826 45.1335634,13.4412425 45.1335634,12.9649698 C45.1335634,12.4886972 45.5201035,12.102157 45.9963762,12.102157 L52.9264884,12.102157 Z M75.1760138,12.102157 C75.6522865,12.102157 76.0388266,12.4886972 76.0388266,12.9649698 C76.0388266,13.4412425 75.6522865,13.8277826 75.1760138,13.8277826 L65.9767041,13.8277826 C65.5004314,13.8277826 65.1138913,13.4412425 65.1138913,12.9649698 C65.1138913,12.4886972 65.5004314,12.102157 65.9767041,12.102157 L75.1760138,12.102157 Z M239.791544,11.0538395 C240.4283,11.0538395 240.944262,11.5698016 240.944262,12.2065574 C240.944262,12.8433132 240.4283,13.3592752 239.791544,13.3592752 C239.154789,13.3592752 238.637101,12.8433132 238.637101,12.2065574 C238.637101,11.5698016 239.154789,11.0538395 239.791544,11.0538395 Z M281.032959,11.0538395 C281.669715,11.0538395 282.187403,11.5698016 282.187403,12.2065574 C282.187403,12.8433132 281.669715,13.3592752 281.032959,13.3592752 C280.396204,13.3592752 279.880242,12.8433132 279.880242,12.2065574 C279.880242,11.5698016 280.396204,11.0538395 281.032959,11.0538395 Z M225.588783,11.3437446 C226.065056,11.3437446 226.451596,11.7302847 226.451596,12.2065574 C226.451596,12.68283 226.065056,13.0693701 225.588783,13.0693701 L212.539603,13.0693701 C212.061605,13.0693701 211.675065,12.68283 211.675065,12.2065574 C211.675065,11.7302847 212.061605,11.3437446 212.539603,11.3437446 L225.588783,11.3437446 Z M254.292494,11.3437446 C254.768766,11.3437446 255.155306,11.7302847 255.155306,12.2065574 C255.155306,12.68283 254.768766,13.0693701 254.292494,13.0693701 L244.604832,13.0693701 C244.126833,13.0693701 243.742019,12.68283 243.742019,12.2065574 C243.742019,11.7302847 244.126833,11.3437446 244.604832,11.3437446 L254.292494,11.3437446 Z M295.533909,11.3437446 C296.010181,11.3437446 296.396721,11.7302847 296.396721,12.2065574 C296.396721,12.68283 296.010181,13.0693701 295.533909,13.0693701 L285.846247,13.0693701 C285.368248,13.0693701 284.983434,12.68283 284.983434,12.2065574 C284.983434,11.7302847 285.368248,11.3437446 285.846247,11.3437446 L295.533909,11.3437446 Z M119.998792,11.3437446 C120.475065,11.3437446 120.861605,11.7302847 120.861605,12.2065574 C120.861605,12.68283 120.475065,13.0693701 119.998792,13.0693701 L106.949612,13.0693701 C106.471613,13.0693701 106.085073,12.68283 106.085073,12.2065574 C106.085073,11.7302847 106.471613,11.3437446 106.949612,11.3437446 L119.998792,11.3437446 Z M146.098878,11.3437446 C146.575151,11.3437446 146.961691,11.7302847 146.961691,12.2065574 C146.961691,12.68283 146.575151,13.0693701 146.098878,13.0693701 L133.049698,13.0693701 C132.5717,13.0693701 132.18516,12.68283 132.18516,12.2065574 C132.18516,11.7302847 132.5717,11.3437446 133.049698,11.3437446 L146.098878,11.3437446 Z M172.198965,11.3437446 C172.675237,11.3437446 173.061777,11.7302847 173.061777,12.2065574 C173.061777,12.68283 172.675237,13.0693701 172.198965,13.0693701 L159.149784,13.0693701 C158.671786,13.0693701 158.285246,12.68283 158.285246,12.2065574 C158.285246,11.7302847 158.671786,11.3437446 159.149784,11.3437446 L172.198965,11.3437446 Z M199.151682,11.3437446 C199.627955,11.3437446 200.014495,11.7302847 200.014495,12.2065574 C200.014495,12.68283 199.627955,13.0693701 199.151682,13.0693701 L186.102502,13.0693701 C185.624504,13.0693701 185.237964,12.68283 185.237964,12.2065574 C185.237964,11.7302847 185.624504,11.3437446 186.102502,11.3437446 L199.151682,11.3437446 Z M6.77998274,8.07075065 L4.15902304,8.07089506 C4.14629548,8.07102876 4.13355228,8.07109577 4.12079379,8.07109577 L1.725,8.07081881 L1.72562554,12.3278689 L6.77998274,12.3278689 C7.80500431,12.3278689 8.6419327,11.4926661 8.6419327,10.4659189 L8.6419327,9.9327006 C8.6419327,8.90595341 7.80500431,8.07075065 6.77998274,8.07075065 Z M392.241933,2.87092321 L397.883003,7.21604832 L392.24711,11.5611734 C392.088352,11.6819672 391.901984,11.7406385 391.719068,11.7406385 C391.46195,11.7406385 391.204832,11.6250216 391.03572,11.4041415 C390.745815,11.0262295 390.81484,10.4843831 391.191027,10.194478 L395.056428,7.21604832 L391.189301,4.23761864 C390.813115,3.94771355 390.742364,3.40586713 391.032269,3.02795513 C391.3239,2.65004314 391.864021,2.57929249 392.241933,2.87092321 Z M386.750302,3.02795513 C387.040207,3.40586713 386.971182,3.94771355 386.594996,4.23761864 L382.727869,7.21604832 L386.59327,10.194478 C386.969456,10.4843831 387.038481,11.0262295 386.748576,11.4041415 C386.579465,11.6250216 386.322347,11.7406385 386.065229,11.7406385 C385.882312,11.7406385 385.695945,11.6819672 385.537187,11.5611734 L379.901294,7.21604832 L385.538913,2.87092321 C385.91855,2.57756687 386.458671,2.65004314 386.750302,3.02795513 Z M365.295945,1.26488352 L350.398619,1.26488352 L350.398619,9.72907679 L353.025022,7.39085418 C353.245902,7.19413287 353.584124,7.21311475 353.782571,7.43054357 L356.074202,9.95858499 L359.433995,5.73252804 C359.53063,5.61345988 359.672131,5.53925798 359.825712,5.53235548 C359.979292,5.52372735 360.129422,5.58067299 360.236411,5.6893874 L365.29767,10.7920621 L365.295945,1.26488352 Z M52.4540121,1.11458154 C52.9320104,1.11458154 53.3168248,1.50112166 53.3168248,1.97739431 L53.3150992,6.65383952 C53.3150992,8.77981018 51.5860224,10.5071613 49.4617774,10.5071613 C47.3358067,10.5071613 45.6067299,8.77808456 45.6067299,6.65211389 L45.6084556,1.97739431 C45.6084556,1.49939603 45.9932701,1.11458154 46.4712683,1.11458154 C46.947541,1.11458154 47.3340811,1.50112166 47.3340811,1.97739431 L47.3323555,6.65211389 C47.3323555,7.82553926 48.2866264,8.78153581 49.4617774,8.78153581 C50.6352028,8.78153581 51.5894737,7.82726488 51.5894737,6.65383952 L51.5911993,1.97739431 C51.5911993,1.49939603 51.9777394,1.11458154 52.4540121,1.11458154 Z M71.3634167,0.875237274 L75.0786885,9.23244176 C75.2719586,9.6672994 75.0752373,10.1780846 74.6403796,10.3713546 C74.2037964,10.5646247 73.6947368,10.369629 73.5014668,9.93304573 L72.742,8.22681881 L68.409,8.22681881 L67.6515962,9.93304573 C67.5083693,10.2540121 67.1925798,10.4455565 66.8629853,10.4455565 C66.7456428,10.4455565 66.6265746,10.4213978 66.5126833,10.3713546 C66.0778257,10.1780846 65.8811044,9.6672994 66.0743745,9.23244176 L69.786195,0.875237274 C70.0622951,0.252286454 71.0873167,0.252286454 71.3634167,0.875237274 Z M330.210009,1.61863676 C331.599137,0.231233822 333.845902,0.231233822 335.233305,1.61863676 C336.620708,3.00603969 336.620708,5.25452977 335.233305,6.6419327 L335.233305,6.6419327 L332.855393,9.01984469 C332.613805,9.26315789 332.342882,9.46160483 332.056428,9.62036238 C331.272994,10.0534944 330.361864,10.1673857 329.509405,9.96203624 C328.851941,9.80327869 328.280759,9.46850733 327.832097,9.01984469 C327.657808,8.84555651 327.521484,8.67471959 327.392062,8.47799827 L327.392062,8.47799827 L328.632787,7.23727351 C328.722519,7.44262295 328.867472,7.65142364 329.033132,7.81880932 C329.752718,8.53666954 330.929594,8.54184642 331.652632,7.81880932 L331.652632,7.81880932 L334.032269,5.4391717 C334.753581,4.71786022 334.753581,3.54270923 334.032269,2.82139776 C333.309232,2.09836066 332.134081,2.09836066 331.41277,2.82139776 L331.41277,2.82139776 L330.679379,3.55306299 C330.013287,3.28904228 329.298878,3.18377912 328.593097,3.23554789 L328.593097,3.23554789 Z M212.201726,5.36893874 L214.536497,7.008283 C214.650388,7.12389991 214.650388,7.31026747 214.536497,7.42415876 L212.203451,9.06350302 L212.201726,5.36893874 Z M187.667127,5.3608283 L187.667127,9.05539258 L185.332355,7.41604832 C185.218464,7.30043141 185.218464,7.11406385 185.332355,7.00017256 L187.667127,5.3608283 Z M89.527006,5.81052632 L86.845384,8.46626402 C86.6572908,8.65263158 86.351855,8.65263158 86.1637619,8.46626402 L83.4821398,5.81052632 L89.527006,5.81052632 Z M266.830198,5.81052632 L264.148576,8.46626402 C263.960483,8.65263158 263.655047,8.65263158 263.466954,8.46626402 L260.785332,5.81052632 L266.830198,5.81052632 Z M309.965833,5.81052632 L307.284211,8.46626402 C307.096117,8.65263158 306.790682,8.65263158 306.602588,8.46626402 L303.920966,5.81052632 L309.965833,5.81052632 Z M239.791544,6.06402071 C240.4283,6.06402071 240.944262,6.57998274 240.944262,7.21673857 C240.944262,7.85349439 240.4283,8.36945643 239.791544,8.36945643 C239.154789,8.36945643 238.637101,7.85349439 238.637101,7.21673857 C238.637101,6.57998274 239.154789,6.06402071 239.791544,6.06402071 Z M281.032959,6.06402071 C281.669715,6.06402071 282.187403,6.57998274 282.187403,7.21673857 C282.187403,7.85349439 281.669715,8.36945643 281.032959,8.36945643 C280.396204,8.36945643 279.880242,7.85349439 279.880242,7.21673857 C279.880242,6.57998274 280.396204,6.06402071 281.032959,6.06402071 Z M199.151682,6.34547023 C199.627955,6.34547023 200.014495,6.73201035 200.014495,7.208283 C200.014495,7.68455565 199.627955,8.07109577 199.151682,8.07109577 L191.622778,8.07109577 C191.14478,8.07109577 190.759965,7.68455565 190.759965,7.208283 C190.759965,6.73201035 191.14478,6.34547023 191.622778,6.34547023 L199.151682,6.34547023 Z M295.533909,6.34547023 C296.010181,6.34547023 296.396721,6.73201035 296.396721,7.208283 C296.396721,7.68455565 296.010181,8.07109577 295.533909,8.07109577 L285.846247,8.07109577 C285.368248,8.07109577 284.983434,7.68455565 284.983434,7.208283 C284.983434,6.73201035 285.368248,6.34547023 285.846247,6.34547023 L295.533909,6.34547023 Z M254.292494,6.34547023 C254.768766,6.34547023 255.155306,6.73201035 255.155306,7.208283 C255.155306,7.68455565 254.768766,8.07109577 254.292494,8.07109577 L244.604832,8.07109577 C244.126833,8.07109577 243.742019,7.68455565 243.742019,7.208283 C243.742019,6.73201035 244.126833,6.34547023 244.604832,6.34547023 L254.292494,6.34547023 Z M172.198965,6.34547023 C172.675237,6.34547023 173.061777,6.73201035 173.061777,7.208283 C173.061777,7.68455565 172.675237,8.07109577 172.198965,8.07109577 L163.201553,8.07109577 C162.72528,8.07109577 162.33874,7.68455565 162.33874,7.208283 C162.33874,6.73201035 162.72528,6.34547023 163.201553,6.34547023 L172.198965,6.34547023 Z M144.071613,6.34547023 C144.547886,6.34547023 144.934426,6.73201035 144.934426,7.208283 C144.934426,7.68455565 144.547886,8.07109577 144.071613,8.07109577 L135.075928,8.07109577 C134.599655,8.07109577 134.213115,7.68455565 134.213115,7.208283 C134.213115,6.73201035 134.599655,6.34547023 135.075928,6.34547023 L144.071613,6.34547023 Z M115.945815,6.34547023 C116.422088,6.34547023 116.808628,6.73201035 116.808628,7.208283 C116.808628,7.68455565 116.422088,8.07109577 115.945815,8.07109577 L106.948404,8.07109577 C106.472131,8.07109577 106.085591,7.68455565 106.085591,7.208283 C106.085591,6.73201035 106.472131,6.34547023 106.948404,6.34547023 L115.945815,6.34547023 Z M225.588783,6.34547023 C226.065056,6.34547023 226.451596,6.73201035 226.451596,7.208283 C226.451596,7.68455565 226.065056,8.07109577 225.588783,8.07109577 L218.058154,8.07109577 C217.580155,8.07109577 217.195341,7.68455565 217.195341,7.208283 C217.195341,6.73201035 217.580155,6.34547023 218.058154,6.34547023 L225.588783,6.34547023 Z M70.5748059,3.35150992 L69.175,6.50081881 L71.975,6.50081881 L70.5748059,3.35150992 Z M4.12079379,2.08835203 L1.72562554,2.08835203 L1.72562554,6.34547023 L4.12079379,6.34547023 C5.14581536,6.34547023 5.98274374,5.51026747 5.98274374,4.48352028 L5.98274374,3.95030198 C5.98274374,2.92355479 5.14581536,2.08835203 4.12079379,2.08835203 Z M355.138913,2.84210526 C355.855047,2.84210526 356.436583,3.42191544 356.436583,4.13805004 C356.436583,4.85591027 355.855047,5.43572045 355.138913,5.43572045 C354.422778,5.43572045 353.842968,4.85591027 353.842968,4.13805004 C353.842968,3.42191544 354.422778,2.84210526 355.138913,2.84210526 Z M239.791544,1.05660052 C240.4283,1.05660052 240.944262,1.57256255 240.944262,2.20931838 C240.944262,2.8460742 240.4283,3.36203624 239.791544,3.36203624 C239.154789,3.36203624 238.637101,2.8460742 238.637101,2.20931838 C238.637101,1.57256255 239.154789,1.05660052 239.791544,1.05660052 Z M281.032959,1.05660052 C281.669715,1.05660052 282.187403,1.57256255 282.187403,2.20931838 C282.187403,2.8460742 281.669715,3.36203624 281.032959,3.36203624 C280.396204,3.36203624 279.880242,2.8460742 279.880242,2.20931838 C279.880242,1.57256255 280.396204,1.05660052 281.032959,1.05660052 Z M119.998792,1.34650561 C120.475065,1.34650561 120.861605,1.73304573 120.861605,2.20931838 C120.861605,2.68559103 120.475065,3.07213115 119.998792,3.07213115 L106.949612,3.07213115 C106.471613,3.07213115 106.085073,2.68559103 106.085073,2.20931838 C106.085073,1.73304573 106.471613,1.34650561 106.949612,1.34650561 L119.998792,1.34650561 Z M146.098878,1.34650561 C146.575151,1.34650561 146.961691,1.73304573 146.961691,2.20931838 C146.961691,2.68559103 146.575151,3.07213115 146.098878,3.07213115 L133.049698,3.07213115 C132.5717,3.07213115 132.18516,2.68559103 132.18516,2.20931838 C132.18516,1.73304573 132.5717,1.34650561 133.049698,1.34650561 L146.098878,1.34650561 Z M172.198965,1.34650561 C172.675237,1.34650561 173.061777,1.73304573 173.061777,2.20931838 C173.061777,2.68559103 172.675237,3.07213115 172.198965,3.07213115 L159.149784,3.07213115 C158.671786,3.07213115 158.285246,2.68559103 158.285246,2.20931838 C158.285246,1.73304573 158.671786,1.34650561 159.149784,1.34650561 L172.198965,1.34650561 Z M199.151682,1.34650561 C199.627955,1.34650561 200.014495,1.73304573 200.014495,2.20931838 C200.014495,2.68559103 199.627955,3.07213115 199.151682,3.07213115 L186.102502,3.07213115 C185.624504,3.07213115 185.237964,2.68559103 185.237964,2.20931838 C185.237964,1.73304573 185.624504,1.34650561 186.102502,1.34650561 L199.151682,1.34650561 Z M225.588783,1.34650561 C226.065056,1.34650561 226.451596,1.73304573 226.451596,2.20931838 C226.451596,2.68559103 226.065056,3.07213115 225.588783,3.07213115 L212.539603,3.07213115 C212.061605,3.07213115 211.675065,2.68559103 211.675065,2.20931838 C211.675065,1.73304573 212.061605,1.34650561 212.539603,1.34650561 L225.588783,1.34650561 Z M254.292494,1.34650561 C254.768766,1.34650561 255.155306,1.73304573 255.155306,2.20931838 C255.155306,2.68559103 254.768766,3.07213115 254.292494,3.07213115 L244.604832,3.07213115 C244.126833,3.07213115 243.742019,2.68559103 243.742019,2.20931838 C243.742019,1.73304573 244.126833,1.34650561 244.604832,1.34650561 L254.292494,1.34650561 Z M295.533909,1.34650561 C296.010181,1.34650561 296.396721,1.73304573 296.396721,2.20931838 C296.396721,2.68559103 296.010181,3.07213115 295.533909,3.07213115 L285.846247,3.07213115 C285.368248,3.07213115 284.983434,2.68559103 284.983434,2.20931838 C284.983434,1.73304573 285.368248,1.34650561 285.846247,1.34650561 L295.533909,1.34650561 Z" id="Combined-Shape"></path>
                        </g>
                    </g>
                </g>
                <g id="add-page" transform="translate(249.000000, 97.000000)">
                    <mask id="mask-15" fill="white">
                        <use xlink:href="#path-14"></use>
                    </mask>
                    <g id="Oval">
                        <use fill="black" fill-opacity="1" filter="url(#filter-16)" xlink:href="#path-14"></use>
                        <use fill="url(#linearGradient-13)" fill-rule="evenodd" xlink:href="#path-14"></use>
                    </g>
                    <g id="Group-11" mask="url(#mask-15)">
                        <g transform="translate(21.000000, 15.000000)" id="Group-6">
                            <g transform="translate(0.000000, 0.119074)">
                                <path d="M13.8871032,0.253291219 C14.239518,0.252955323 14.5777007,0.391596303 14.827102,0.638592611 L14.827102,0.638592611 L22.1824065,7.92060911 C22.4324855,8.16895144 22.5731125,8.50512217 22.5734514,8.85609921 L22.5734514,8.85609921 L22.5762851,18.9166628 C25.9295943,19.9763503 28.3589511,23.09405 28.3589511,26.7753449 C28.3589511,31.3292972 24.6413133,35.0207816 20.055854,35.0207816 C16.2659715,35.0207816 13.0690439,32.4994926 12.0734841,29.0537783 L1.33876261,29.056965 C0.604113204,29.0573013 0.00805770884,28.4657216 0.00771884842,27.736174 L0.00771884842,27.736174 L-7.49414548e-05,1.57845731 C-7.49414548e-05,0.848909631 0.595302833,0.257329917 1.32995224,0.25699341 L1.32995224,0.25699341 Z M20.7699345,22.9529256 L19.3385881,22.9535986 L19.3395689,26.0639256 L16.2065689,26.0657857 L16.2072466,27.4875288 L19.3395689,27.4859256 L19.3406213,30.5976968 L20.7723066,30.5973603 L20.7705689,27.4859256 L23.9048001,27.4851732 L23.9044613,26.0634302 L20.7705689,26.0639256 L20.7699345,22.9529256 Z M10.5882969,2.89621963 L2.66099601,2.89891169 L2.66811208,26.4143735 L11.7603386,26.4119209 C11.949847,22.0727789 15.5163978,18.6036398 19.915153,18.531068 L19.9137359,12.0226323 L11.9213738,12.0249878 C11.1867244,12.0253243 10.5910078,11.4337446 10.5906689,10.7041969 L10.5906689,10.7041969 L10.5882969,2.89621963 Z M13.3378104,2.89554661 L13.249029,2.89554661 L13.2507233,9.38239652 L19.8876436,9.38037748 L13.3378104,2.89554661 Z" id="Combined-Shape" fill="#323B47"></path>
                            </g>
                        </g>
                    </g>
                </g>
            </g>
        </g>
    </g>
</svg>