<svg xmlns="http://www.w3.org/2000/svg" width="401.84" height="458.077" viewBox="0 0 401.84 458.077">
  <g id="image" transform="translate(-0.074 0)">
    <g id="Background" transform="translate(0 0)">
      <path id="Path" d="M233.738,270.324,233.764,0,0,135.187Z" transform="matrix(-0.259, -0.966, 0.966, -0.259, 60.577, 443.044)" fill="#4c6884" opacity="0.088"/>
      <path id="Path-2" data-name="Path" d="M34.658,50,50,0,0,10.452Z" transform="translate(215 62)" fill="#4c6884" opacity="0.088"/>
      <path id="Path-3" data-name="Path" d="M20.1,29,29,0,0,6.062Z" transform="translate(147.923 451.061) rotate(-76)" fill="#4c6884" opacity="0.088"/>
      <path id="cloud" d="M37.916,100a37.846,37.846,0,0,1-2.857-75.59l-.035,0,.191-.248A23.684,23.684,0,0,1,66.04,18.45l.1.06.274-.438a38.76,38.76,0,0,1,71.522,19.575v.069l.539.023A31.183,31.183,0,0,1,168,68.334l0,.513A31.184,31.184,0,0,1,136.949,100Z" transform="translate(66)" fill="#c9d8e6" opacity="0"/>
      <g id="code" transform="translate(271 118)" opacity="0">
        <path id="Shape" d="M91.886,4.44a.046.046,0,0,1-.027-.008.022.022,0,0,1-.01-.021V.028a.022.022,0,0,1,.01-.021A.045.045,0,0,1,91.886,0h9.594a.053.053,0,0,1,.028.007.025.025,0,0,1,.011.021V4.413a.026.026,0,0,1-.012.02.045.045,0,0,1-.027.007Zm-11.024,0a.046.046,0,0,1-.027-.008.022.022,0,0,1-.01-.021V.028a.022.022,0,0,1,.01-.021A.045.045,0,0,1,80.862,0h5.921a.043.043,0,0,1,.027.007.025.025,0,0,1,.011.021V4.413a.026.026,0,0,1-.012.02.047.047,0,0,1-.026.007Zm-5.106,0h0Zm-24.282,0a.047.047,0,0,1-.028-.008.027.027,0,0,1-.01-.021V.028a.023.023,0,0,1,.011-.021A.042.042,0,0,1,51.475,0H75.757a.056.056,0,0,1,.028.007A.025.025,0,0,1,75.8.028V4.413a.026.026,0,0,1-.012.02.045.045,0,0,1-.027.007Zm-11.025,0a.046.046,0,0,1-.027-.008.022.022,0,0,1-.01-.021V.028a.022.022,0,0,1,.01-.021A.045.045,0,0,1,40.45,0h5.922A.045.045,0,0,1,46.4.007a.022.022,0,0,1,.01.021V4.413a.025.025,0,0,1-.011.02.052.052,0,0,1-.026.007Zm-29.395,0c-.021,0-.036-.014-.037-.029V.028A.035.035,0,0,1,11.055,0H35.347a.045.045,0,0,1,.027.007.022.022,0,0,1,.01.021V4.413a.025.025,0,0,1-.011.02.049.049,0,0,1-.026.007ZM.037,4.44A.046.046,0,0,1,.01,4.432.022.022,0,0,1,0,4.411V.028A.022.022,0,0,1,.01.007.045.045,0,0,1,.037,0H5.959A.035.035,0,0,1,6,.028V4.413a.037.037,0,0,1-.037.027Z" transform="translate(29.395 0)" fill="#fff" opacity="0.5"/>
        <rect id="Rectangle" width="57.432" height="4.439" transform="translate(10.002 15.68)" fill="#4c6884"/>
        <path id="Path-4" data-name="Path" d="M24.329,4.44H.037A.044.044,0,0,1,0,4.411V.028A.036.036,0,0,1,.037,0H24.329a.042.042,0,0,1,.027.007.022.022,0,0,1,.01.02V4.411a.036.036,0,0,1-.037.028Z" transform="translate(20 31.362)" fill="rgba(50,59,71,0.8)" opacity="0.987"/>
        <rect id="Rectangle-2" data-name="Rectangle" width="57.432" height="4.439" transform="translate(20.002 47.039)" fill="#323b47"/>
        <path id="Path-5" data-name="Path" d="M24.329,4.44H.037A.037.037,0,0,1,0,4.412V.028A.036.036,0,0,1,.037,0H24.329a.042.042,0,0,1,.027.007.022.022,0,0,1,.01.02V4.412a.024.024,0,0,1-.011.02.044.044,0,0,1-.027.008Z" transform="translate(40 62.717)" fill="rgba(50,59,71,0.8)"/>
        <rect id="Rectangle-3" data-name="Rectangle" width="24.365" height="4.439" rx="0.031" transform="translate(0 0)" fill="#ffc414"/>
        <rect id="Rectangle_Copy" data-name="Rectangle Copy" width="20" height="4.439" rx="0.031" transform="translate(12 76)" fill="#4c6884"/>
        <path id="Path-6" data-name="Path" d="M.036,0H16.982c.021,0,.038.013.038.028V4.412c0,.015-.017.028-.037.028H.037C.017,4.439,0,4.427,0,4.412V.028C0,.012.017,0,.037,0Z" transform="translate(60.414 31.362)" fill="#323b47" opacity="0.987"/>
        <path id="Path-7" data-name="Path" d="M.037,0h5.92C5.979,0,6,.013,6,.028V4.412c0,.015-.017.028-.037.028H.037C.017,4.439,0,4.427,0,4.412V.028C0,.012.017,0,.037,0Z" transform="translate(49.395 31.362)" fill="#323b47" opacity="0.987"/>
        <rect id="Rectangle-4" data-name="Rectangle" width="5.996" height="4.439" rx="0.031" transform="translate(80.412 62.717)" fill="#323b47"/>
        <rect id="Rectangle-5" data-name="Rectangle" width="5.996" height="4.439" rx="0.031" transform="translate(69.395 62.717)" fill="#323b47"/>
      </g>
    </g>
  </g>
</svg>
