<?xml version="1.0" encoding="UTF-8"?>
<svg width="519px" height="467px" viewBox="0 0 519 467" version="1.1" xmlns="http://www.w3.org/2000/svg" xmlns:xlink="http://www.w3.org/1999/xlink">
    <title>Image</title>
    <defs>
        <linearGradient x1="50%" y1="20.5331778%" x2="50%" y2="100%" id="linearGradient-1">
            <stop stop-color="#FFFFFF" offset="0%"></stop>
            <stop stop-color="#FFFFFF" stop-opacity="0" offset="100%"></stop>
        </linearGradient>
        <rect id="path-2" x="0.468107842" y="0.604790419" width="168.924051" height="126"></rect>
        <linearGradient x1="50%" y1="0%" x2="50%" y2="100%" id="linearGradient-4">
            <stop stop-color="#8A6CF9" offset="0%"></stop>
            <stop stop-color="#6D57E2" offset="100%"></stop>
        </linearGradient>
        <linearGradient x1="50%" y1="0%" x2="50%" y2="100%" id="linearGradient-5">
            <stop stop-color="#8A6CF9" offset="0%"></stop>
            <stop stop-color="#6D57E2" offset="100%"></stop>
        </linearGradient>
        <linearGradient x1="50%" y1="0%" x2="50%" y2="100%" id="linearGradient-6">
            <stop stop-color="#8A6CF9" offset="0%"></stop>
            <stop stop-color="#6D57E2" offset="100%"></stop>
        </linearGradient>
        <linearGradient x1="50%" y1="0%" x2="50%" y2="100%" id="linearGradient-7">
            <stop stop-color="#8A6CF9" offset="0%"></stop>
            <stop stop-color="#6D57E2" offset="100%"></stop>
        </linearGradient>
        <rect id="path-8" x="0" y="0" width="394.639594" height="172" rx="10"></rect>
        <filter x="-12.7%" y="-17.4%" width="130.4%" height="169.8%" filterUnits="objectBoundingBox" id="filter-9">
            <feMorphology radius="5" operator="erode" in="SourceAlpha" result="shadowSpreadOuter1"></feMorphology>
            <feOffset dx="10" dy="30" in="shadowSpreadOuter1" result="shadowOffsetOuter1"></feOffset>
            <feGaussianBlur stdDeviation="20" in="shadowOffsetOuter1" result="shadowBlurOuter1"></feGaussianBlur>
            <feColorMatrix values="0 0 0 0 0.0903223218   0 0 0 0 0.0395715411   0 0 0 0 0.161373415  0 0 0 0.28 0" type="matrix" in="shadowBlurOuter1"></feColorMatrix>
        </filter>
        <filter x="-11.3%" y="-14.2%" width="127.6%" height="163.4%" filterUnits="objectBoundingBox" id="filter-10">
            <feMorphology radius="11" operator="erode" in="SourceAlpha" result="shadowSpreadInner1"></feMorphology>
            <feGaussianBlur stdDeviation="15" in="shadowSpreadInner1" result="shadowBlurInner1"></feGaussianBlur>
            <feOffset dx="-1" dy="-8" in="shadowBlurInner1" result="shadowOffsetInner1"></feOffset>
            <feComposite in="shadowOffsetInner1" in2="SourceAlpha" operator="arithmetic" k2="-1" k3="1" result="shadowInnerInner1"></feComposite>
            <feColorMatrix values="0 0 0 0 0.91372549   0 0 0 0 0.941176471   0 0 0 0 0.960784314  0 0 0 0.696159309 0" type="matrix" in="shadowInnerInner1" result="shadowMatrixInner1"></feColorMatrix>
            <feGaussianBlur stdDeviation="3.5" in="SourceAlpha" result="shadowBlurInner2"></feGaussianBlur>
            <feOffset dx="-3" dy="-8" in="shadowBlurInner2" result="shadowOffsetInner2"></feOffset>
            <feComposite in="shadowOffsetInner2" in2="SourceAlpha" operator="arithmetic" k2="-1" k3="1" result="shadowInnerInner2"></feComposite>
            <feColorMatrix values="0 0 0 0 0   0 0 0 0 0   0 0 0 0 0  0 0 0 0.1 0" type="matrix" in="shadowInnerInner2" result="shadowMatrixInner2"></feColorMatrix>
            <feMerge>
                <feMergeNode in="shadowMatrixInner1"></feMergeNode>
                <feMergeNode in="shadowMatrixInner2"></feMergeNode>
            </feMerge>
        </filter>
        <linearGradient x1="100%" y1="50%" x2="0%" y2="50%" id="linearGradient-11">
            <stop stop-color="#8A6CF9" offset="0%"></stop>
            <stop stop-color="#6D57E2" offset="100%"></stop>
        </linearGradient>
        <linearGradient x1="50%" y1="0%" x2="50%" y2="100%" id="linearGradient-12">
            <stop stop-color="#FFFFFF" offset="0%"></stop>
            <stop stop-color="#E9F0F5" offset="100%"></stop>
        </linearGradient>
        <circle id="path-13" cx="33" cy="33" r="33"></circle>
        <filter x="-43.2%" y="-29.5%" width="186.4%" height="218.2%" filterUnits="objectBoundingBox" id="filter-15">
            <feMorphology radius="5.5" operator="erode" in="SourceAlpha" result="shadowSpreadOuter1"></feMorphology>
            <feOffset dx="0" dy="30" in="shadowSpreadOuter1" result="shadowOffsetOuter1"></feOffset>
            <feGaussianBlur stdDeviation="10" in="shadowOffsetOuter1" result="shadowBlurOuter1"></feGaussianBlur>
            <feColorMatrix values="0 0 0 0 0.22233192   0 0 0 0 0.176508138   0 0 0 0 0.39232337  0 0 0 0.215089598 0" type="matrix" in="shadowBlurOuter1"></feColorMatrix>
        </filter>
    </defs>
    <g id="Page-1" stroke="none" stroke-width="1" fill="none" fill-rule="evenodd">
        <g id="features-marketing-2" transform="translate(-66.000000, -56.000000)">
            <g id="Image" transform="translate(66.000000, 56.000000)">
                <g id="Group-34">
                    <g id="Group-5" transform="translate(384.000000, 277.500000) scale(-1, 1) translate(-384.000000, -277.500000) translate(273.000000, 172.000000)" opacity="0.191173735">
                        <g id="Group-22" transform="translate(0.773435, 0.519803)">
                            <path d="M139.287529,37.0545035 C137.993072,39.2508083 136.926097,41.0614319 135.63164,43.2577367 L142.935335,43.2577367 C141.807159,41.0360277 140.700924,39.1665127 139.287529,37.0545035" id="Fill-1" fill="#7556E8"></path>
                            <path d="M135.803002,153.876559 C138.126328,154.450462 141.159815,154.405427 142.85612,153.778406 C141.739492,151.89388 140.642494,150.043995 139.329561,147.829215 C138.006236,150.098268 136.926559,151.950462 135.803002,153.876559" id="Fill-3" fill="#7556E8" opacity="0.30078125"></path>
                            <path d="M81.2024249,147.895381 C79.7901848,150.067436 78.5834873,151.893072 77.6285219,154.103233 L84.7867206,154.103233 C83.57194,151.999307 82.5269053,150.190993 81.2024249,147.895381" id="Fill-5" fill="#7556E8"></path>
                            <path d="M61.7263279,147.828868 C60.4064665,150.089838 59.3244804,151.944342 58.0612009,154.108314 L65.4526559,154.108314 C64.1431871,151.901617 63.0438799,150.048268 61.7263279,147.828868" id="Fill-7" fill="#7556E8"></path>
                            <path d="M97.0495381,209.640993 L104.271247,209.640993 C102.960624,207.398499 101.878637,205.543995 100.639607,203.423903 C99.1430716,205.532448 97.9490762,207.359238 97.0495381,209.640993" id="Fill-37" fill="#7556E8"></path>
                            <path d="M116.762356,98.9274827 C118.943649,98.7727483 121.148037,99.1872979 123.61455,98.6318707 C122.345497,96.4898383 121.249654,94.6399538 119.930947,92.4147806 C118.600693,94.6919169 117.514088,96.5475751 116.428637,98.404388 C116.540647,98.5787529 116.650346,98.7531178 116.762356,98.9274827" id="Fill-41" fill="#7556E8" opacity="0.30078125"></path>
                            <path d="M104.187644,98.704157 C102.971709,96.5193995 101.954388,94.5840647 100.454388,92.5471132 C99.1714781,94.7330254 98.0871824,96.5817552 96.7234411,98.9050808 C99.4590069,98.8554273 101.654157,99.0771363 104.187644,98.704157" id="Fill-43" fill="#7556E8"></path>
                            <path d="M38.8369515,98.3827945 C38.9327945,98.5560046 39.0274827,98.7315242 39.1233256,98.9058891 C41.317321,98.8169746 43.5228637,99.1391455 46.0078522,98.6691686 C44.7561201,96.5329099 43.6672055,94.6737875 42.339261,92.4081986 C41.0124711,94.6714781 39.9247113,96.5271363 38.8369515,98.3827945" id="Fill-45" fill="#7556E8"></path>
                            <path d="M26.6355658,98.7221709 C25.3549654,96.5316397 24.269515,94.6748268 22.9415704,92.4023095 C21.6124711,94.6678984 20.5235566,96.5270208 19.2418014,98.7140878 C21.808776,99.0120092 24.047806,99.0016166 26.6355658,98.7221709" id="Fill-47" fill="#7556E8"></path>
                            <path d="M81.1821016,37.0341801 C79.7837182,39.2351039 78.5735566,41.0538106 77.5493072,43.3921478 C80.1336028,43.3621247 82.2871824,43.5538106 84.8333718,43.2351039 C83.5516166,41.0584296 82.4615473,39.2096998 81.1821016,37.0341801" id="Fill-100" fill="#7556E8"></path>
                            <path d="M123.584758,154.0097 C122.330716,151.898845 121.255658,150.090531 119.923095,147.845727 C118.640185,150.194457 117.274134,151.886143 116.472748,154.223326 C118.931178,154.22679 121.127483,154.484296 123.584758,154.0097" id="Fill-134" fill="#7556E8" opacity="0.30078125"></path>
                            <path d="M104.026443,153.761547 C102.947921,151.918591 101.883256,150.097575 100.543764,147.812356 C99.1765589,150.139145 98.0922633,151.983256 96.9560046,153.918591 C99.5206697,154.468245 102.43291,154.393187 104.026443,153.761547" id="Fill-136" fill="#7556E8"></path>
                            <path d="M3.46524249,92.4275982 C2.28972286,94.8144342 0.809353349,96.4576212 0.107274827,98.754388 L7.12806005,98.754388 C6.05762125,96.5188222 4.9017321,94.6908776 3.46524249,92.4275982" id="Fill-140" fill="#7556E8"></path>
                            <path d="M46.0360277,154.140531 C44.7588915,151.959238 43.6734411,150.107044 42.330485,147.813741 C41.0083141,150.08164 39.9240185,151.938453 38.6676674,154.089723 C41.2161663,154.38649 43.4274827,154.319515 46.0360277,154.140531" id="Fill-142" fill="#7556E8"></path>
                            <path d="M58.2655889,98.617321 C60.7078522,99.0549654 63.4018476,99.0110855 65.0127021,98.565358 C64.3995381,96.5538106 62.8025404,93.952194 61.4861432,92.9013857 C60.3741339,94.7685912 59.1397229,96.5457275 58.2655889,98.617321" id="Fill-146" fill="#7556E8"></path>
                            <path d="M84.6688222,98.401963 C83.5764434,96.5463048 82.5025404,94.7241339 81.143418,92.4181293 C79.8004619,94.6906467 78.7011547,96.5497691 77.5602771,98.4781755 C79.773903,99.093649 82.9124711,99.054388 84.6688222,98.401963" id="Fill-168" fill="#7556E8"></path>
                            <path d="M104.187644,43.2532333 C102.902425,40.9887991 101.938222,39.0707852 100.440531,37.101963 C99.2072748,39.3317552 97.9566975,41.0800231 97.0017321,43.2532333 L104.187644,43.2532333 Z" id="Fill-170" fill="#7556E8"></path>
                            <path d="M119.933372,36.954157 C118.611201,39.2174365 117.526905,41.0742494 116.2694,43.2278291 C118.816744,43.5269053 121.02806,43.454157 123.642379,43.2809469 C122.362933,41.0984988 121.277483,39.2463048 119.933372,36.954157" id="Fill-172" fill="#7556E8"></path>
                            <path d="M142.999769,98.6083141 C141.767667,96.5240185 140.664896,94.6614319 139.34157,92.4270208 C138.043649,94.726097 136.709931,96.4986143 135.796536,98.9189376 C138.345035,98.8 140.510162,99.1718245 142.999769,98.6083141" id="Fill-176" fill="#7556E8" opacity="0.30078125"></path>
                            <path d="M119.926559,18.4614319 C118.602079,20.7501155 117.523557,22.6150115 116.259122,24.7974596 L123.607852,24.7974596 C122.345727,22.6230947 121.244111,20.7270208 119.926559,18.4614319" id="Fill-192" fill="#7556E8"></path>
                            <path d="M100.678291,18.7579677 C98.8584296,20.956582 97.5801386,23.3237875 97.3468822,24.7937644 L104.229099,24.7937644 C102.951963,22.621709 101.844573,20.7383372 100.678291,18.7579677" id="Fill-194" fill="#7556E8"></path>
                            <path d="M45.6605081,135.646651 C44.9272517,133.39261 43.3475751,130.838337 42.0554273,129.839492 C40.982679,131.680139 39.9180139,133.505774 38.669746,135.646651 L45.6605081,135.646651 Z" id="Fill-212" fill="#7556E8"></path>
                            <path d="M123.528291,80.2814088 C122.402425,77.989261 121.342379,76.0735566 119.865473,74.1047344 C119.09873,75.3726328 118.509815,76.3068129 117.963626,77.262933 C117.437067,78.1832564 116.954388,79.1266744 116.334296,80.2814088 L123.528291,80.2814088 Z" id="Fill-214" fill="#7556E8"></path>
                            <path d="M104.025289,79.8630485 C102.943303,78.0120092 101.874018,76.1817552 100.583025,73.9715935 C99.2031178,76.2591224 97.8948037,77.9993072 97.1361432,80.1055427 C99.7874134,80.5558891 102.527598,80.4658199 104.025289,79.8630485" id="Fill-216" fill="#7556E8"></path>
                            <path d="M100.545266,129.379099 C99.1988453,131.738222 97.9124711,133.494573 97.0325635,135.650462 L104.233487,135.650462 C102.969053,133.500346 101.874365,131.640069 100.545266,129.379099" id="Fill-218" fill="#7556E8"></path>
                            <path d="M119.823903,129.471594 C118.676097,131.733718 117.267321,133.427714 116.509815,135.670208 L123.616051,135.670208 C122.296189,133.41963 121.33776,131.471594 119.823903,129.471594" id="Fill-220" fill="#7556E8" opacity="0.30078125"></path>
                            <path d="M22.93903,129.383603 C21.6018476,131.723095 20.3224018,133.481755 19.4205543,135.661894 L26.6341801,135.661894 C25.369746,133.514088 24.2750577,131.653811 22.93903,129.383603" id="Fill-222" fill="#7556E8"></path>
                            <path d="M42.2628176,74.1040416 C41.4960739,75.3730947 40.9071594,76.3049654 40.36097,77.2622402 C39.8332564,78.1825635 39.3517321,79.1271363 38.7293303,80.2818707 L45.9244804,80.2818707 C44.7997691,77.9885681 43.7385681,76.0751732 42.2628176,74.1040416" id="Fill-224" fill="#7556E8"></path>
                            <path d="M26.6502309,80.2430716 C25.2807159,78.0132794 24.4135104,76.0178984 22.85,74.2049654 C21.5913395,76.25 20.3061201,78.0028868 19.4770208,80.2430716 L26.6502309,80.2430716 Z" id="Fill-226" fill="#7556E8"></path>
                            <path d="M119.942379,184.814203 C118.586721,187.150231 117.321132,188.920439 116.408891,191.077483 L123.629446,191.077483 C122.365012,188.928522 121.269169,187.068245 119.942379,184.814203" id="Fill-244" fill="#7556E8" opacity="0.30078125"></path>
                            <path d="M97.3247113,191.148383 L104.276212,191.148383 C102.964434,188.908199 101.874365,187.046767 100.746189,185.11836 C99.0625866,186.924365 97.6006928,189.534065 97.3247113,191.148383" id="Fill-246" fill="#7556E8"></path>
                            <path d="M142.766397,80.2227483 C141.962702,77.9444573 140.640531,76.2273672 139.341455,73.9225173 C138.044688,76.2527714 136.691339,77.9652425 135.914203,80.2227483 L142.766397,80.2227483 Z" id="Fill-272" fill="#7556E8"></path>
                            <path d="M77.6513857,80.2510393 L84.8615473,80.2510393 C83.5624711,78.0351039 82.4724018,76.1748268 81.1352194,73.8919169 C79.8800231,76.1817552 78.5463048,77.9415704 77.6513857,80.2510393" id="Fill-274" fill="#7556E8"></path>
                            <path d="M61.7624711,73.9530023 C60.4229792,76.2301386 59.0938799,78.0176674 58.2416859,80.3375289 C60.7255196,80.3375289 62.8721709,80.4668591 65.4472286,80.2312933 C64.1192841,77.9680139 63.0303695,76.1123557 61.7624711,73.9530023" id="Fill-276" fill="#7556E8"></path>
                            <path d="M3.39422633,74.1593533 C2.21639723,76.2482679 0.933487298,77.9849885 0.0512702079,80.23903 L7.25103926,80.23903 C5.90808314,78.0554273 5.02702079,76.0473441 3.39422633,74.1593533" id="Fill-278" fill="#7556E8"></path>
                            <path d="M135.823326,24.9139723 C138.319861,24.8908776 140.467667,25.067552 143.005774,24.7638568 C141.747113,22.5929561 140.69515,20.7765589 139.377598,18.5017321 C138.006928,20.7650115 136.745958,22.5929561 135.823326,24.9139723" id="Fill-290" fill="#7556E8"></path>
                            <path d="M81.2091224,18.562933 C79.7853349,20.6841801 78.5913395,22.528291 77.6606236,24.8181293 L84.8442263,24.8181293 C83.5555427,22.5998845 82.4700924,20.7315242 81.2091224,18.562933" id="Fill-324" fill="#7556E8"></path>
                            <path d="M3.45623557,129.492956 C2.21836028,131.690416 0.93891455,133.428291 0.0520785219,135.675404 L7.12482679,135.675404 C5.98510393,133.437529 4.92852194,131.537991 3.45623557,129.492956" id="Fill-336" fill="#7556E8"></path>
                            <path d="M61.9056582,135.783141 C62.9472286,135.728868 64.0534642,136.061432 65.2636259,135.344342 C64.1331409,133.432102 63.0650115,131.626097 61.6885681,129.295843 C60.493418,131.730023 59.0534642,133.445958 58.2636259,135.795843 C59.7128176,135.795843 60.8121247,135.839723 61.9056582,135.783141" id="Fill-338" fill="#7556E8"></path>
                            <path d="M81.3084296,129.637298 C79.3557737,131.935219 78.1409931,134.231986 78.0393764,135.689261 L84.8534642,135.689261 C83.5278291,133.423672 82.4435335,131.574942 81.3084296,129.637298" id="Fill-340" fill="#7556E8"></path>
                            <path d="M139.365358,129.403926 C138.030485,131.656813 136.72679,133.45358 135.811085,135.825404 C138.315704,135.662587 140.469284,136.056351 142.946189,135.491686 C141.722171,133.412009 140.632102,131.557506 139.365358,129.403926" id="Fill-342" fill="#7556E8" opacity="0.30078125"></path>
                            <path d="M139.350693,110.890878 C138.042379,113.180716 136.709815,114.935912 135.839145,117.275404 C138.36224,117.20843 140.512356,117.513279 142.97194,117.022517 C141.773326,114.992494 140.709815,113.191109 139.350693,110.890878" id="Fill-344" fill="#7556E8" opacity="0.30078125"></path>
                            <path d="M83.1509238,117.280254 C83.5620092,117.27679 83.9730947,117.190185 84.7941109,117.094342 C83.5054273,114.99388 82.6174365,112.998499 81.0135104,111.089723 C79.7871824,113.16709 78.7225173,114.96963 77.354157,117.287182 C79.654388,117.287182 81.4026559,117.29642 83.1509238,117.280254" id="Fill-346" fill="#7556E8"></path>
                            <path d="M65.4296767,117.126905 C64.1583141,114.97448 63.0682448,113.125751 61.736836,110.870554 C60.423903,113.104965 59.3407621,114.947921 58.0613164,117.126905 L65.4296767,117.126905 Z" id="Fill-348" fill="#7556E8"></path>
                            <path d="M3.55773672,110.898845 C2.22170901,113.175982 0.918013857,114.94157 -1.8189894e-12,117.2903 C1.47228637,117.2903 2.56351039,117.303002 3.65357968,117.286836 C4.70900693,117.271824 5.76327945,117.22679 7.24595843,117.18291 C5.93533487,114.947344 4.85103926,113.103233 3.55773672,110.898845" id="Fill-350" fill="#7556E8"></path>
                            <path d="M77.6220554,6.28036952 L84.8229792,6.28036952 C83.5596998,4.12448037 82.4742494,2.27459584 81.154388,0.0228637413 C79.8310624,2.28267898 78.5700924,4.08290993 77.6220554,6.28036952" id="Fill-376" fill-opacity="0.3" fill="#FFFFFF"></path>
                            <path d="M123.539607,6.18002309 C122.314434,4.06339492 121.322517,2.16270208 119.871016,0.111893764 C118.584642,2.30935335 117.525751,4.12113164 116.158545,6.45600462 C118.89642,6.31166282 121.101963,6.67078522 123.539607,6.18002309" id="Fill-390" fill="#FFFFFF"></path>
                            <path d="M96.8792148,6.26905312 L104.218707,6.26905312 C102.968129,4.13856813 101.887298,2.29676674 100.539723,1.36779477e-13 C99.2013857,2.29445727 98.1228637,4.13856813 96.8792148,6.26905312" id="Fill-392" fill-opacity="0.3" fill="#FFFFFF"></path>
                            <path d="M38.6745958,61.71097 L46.0036952,61.71097 C44.7265589,59.5215935 43.6445727,57.6659353 42.3374134,55.4245958 C41.0048499,57.7121247 39.9205543,59.5724018 38.6745958,61.71097" id="Fill-426" fill="#7556E8"></path>
                            <path d="M77.4687067,61.7008083 L84.7885681,61.7008083 C83.536836,59.541455 82.4583141,57.6777136 81.15,55.4178984 C79.8497691,57.6361432 78.7608545,59.4952656 77.4687067,61.7008083" id="Fill-430" fill="#7556E8"></path>
                            <path d="M100.545266,55.4332564 C99.2023095,57.72194 98.1145497,59.5752887 96.8570439,61.7184758 L104.210393,61.7184758 C102.927483,59.5198614 101.847806,57.6676674 100.545266,55.4332564" id="Fill-432" fill="#7556E8"></path>
                            <path d="M119.86455,55.6294457 C118.562009,57.793418 117.419977,59.6259815 116.333372,61.7125866 L123.459238,61.7125866 C122.373788,59.5139723 121.36224,57.5774827 119.86455,55.6294457" id="Fill-434" fill="#7556E8"></path>
                            <path d="M139.050693,55.8797921 C138.049538,57.8116628 136.734296,59.5403002 135.815127,61.7608545 L142.665012,61.7608545 C141.929446,59.4918014 140.343995,56.9051963 139.050693,55.8797921" id="Fill-436" fill="#7556E8"></path>
                            <path d="M22.9897229,110.957506 C21.5740185,113.121478 20.4377598,114.928637 19.3915704,117.142263 L26.6259815,117.142263 C25.3730947,115.012933 24.2911085,113.171132 22.9897229,110.957506" id="Fill-450" fill="#7556E8"></path>
                            <path d="M39.1267898,117.147229 L46.0309469,117.147229 C44.7711316,115.020208 43.6822171,113.180716 42.4524249,111.103349 C40.3381062,113.88164 39.4062356,115.61836 39.1267898,117.147229" id="Fill-452" fill="#7556E8"></path>
                            <path d="M100.24642,111.385912 C99.1702079,113.204619 98.1055427,115.00485 96.8307159,117.157275 L103.851501,117.157275 C103.179446,114.958661 101.612471,112.426328 100.24642,111.385912" id="Fill-454" fill="#7556E8"></path>
                            <path d="M120.063048,111.090531 C118.487991,113.014319 117.487991,114.947344 116.417552,117.121709 L123.632333,117.121709 C122.390993,115.022402 121.324018,113.222171 120.063048,111.090531" id="Fill-456" fill="#7556E8" opacity="0.30078125"></path>
                            <path d="M135.82552,172.548614 L143.005658,172.548614 C141.765473,170.443533 140.701963,168.638684 139.383256,166.401963 C137.949076,168.628291 136.80358,170.446998 135.82552,172.548614" id="Fill-458" fill="#7556E8" opacity="0.30078125"></path>
                            <path d="M81.0681293,166.455774 C79.8025404,168.598961 78.7367206,170.403811 77.4676674,172.553926 L84.6108545,172.553926 C83.6281755,170.353002 82.517321,168.534296 81.0681293,166.455774" id="Fill-490" fill="#7556E8"></path>
                            <path d="M104.167321,172.502309 C102.973326,170.460739 101.919053,168.660508 100.550693,166.321016 C99.1950346,168.621247 98.115358,170.454965 96.8035797,172.678984 C99.4698614,172.69515 101.654619,172.876443 104.167321,172.502309" id="Fill-492" fill="#7556E8"></path>
                            <path d="M123.44261,172.510277 C122.381409,170.391339 121.404503,168.492956 119.802887,166.544919 C118.586952,168.619977 117.50843,170.460624 116.249769,172.609584 C118.858314,172.727367 121.044226,172.874018 123.44261,172.510277" id="Fill-494" fill="#7556E8" opacity="0.30078125"></path>
                            <path d="M216.747229,147.903349 C215.346536,150.063857 214.136374,151.882564 213.182564,154.112356 L220.367321,154.112356 C219.106351,151.950693 218.024365,150.095035 216.747229,147.903349" id="Fill-17" fill="#7556E8"></path>
                            <path d="M193.602887,154.101039 C196.161778,154.382794 198.310739,154.273095 201.063626,154.214203 C199.701039,151.912818 198.602887,150.059469 197.281871,147.828522 C195.962009,150.079099 194.875404,151.931293 193.602887,154.101039" id="Fill-19" fill="#7556E8"></path>
                            <path d="M181.56836,98.6409931 C180.283141,96.4770208 179.184988,94.6306005 178.031409,92.6894919 C176.106467,95.0139723 174.89515,97.2645497 174.686143,98.9100462 C176.525635,98.9100462 178.343187,98.9204388 180.160739,98.901963 C180.50254,98.8984988 180.843187,98.7795612 181.56836,98.6409931" id="Fill-57" fill="#7556E8"></path>
                            <path d="M161.915358,98.7933025 C160.966166,96.2321016 159.503118,93.9122402 158.213279,92.8903002 C157.131293,94.7193995 156.0597,96.5311778 154.686721,98.8510393 C157.43037,98.9133949 159.626674,99.0138568 161.915358,98.7933025" id="Fill-59" fill="#7556E8" opacity="0.30078125"></path>
                            <path d="M200.967783,43.1923788 C199.710277,41.0665127 198.639838,39.2593533 197.283025,36.9637413 C195.945843,39.2454965 194.862702,41.0942263 193.607506,43.2385681 C196.254157,43.4579677 198.441224,43.5526559 200.967783,43.1923788" id="Fill-114" fill="#7556E8"></path>
                            <path d="M197.280254,92.415127 C196.004273,94.7465358 194.613972,96.4959584 193.781409,98.919746 C196.312587,98.8446882 198.475404,99.0663972 201.020439,98.7303695 C199.705196,96.5075058 198.600115,94.641455 197.280254,92.415127" id="Fill-120" fill="#7556E8"></path>
                            <path d="M158.204157,37.4581986 C157.119861,39.2907621 156.043649,41.1071594 154.718014,43.3473441 C157.345035,43.4004619 159.554042,43.5586605 161.82194,43.2422633 C161.073672,40.9674365 159.502079,38.4454965 158.204157,37.4581986" id="Fill-148" fill="#7556E8"></path>
                            <path d="M181.512009,43.1822171 C180.256813,41.0575058 179.320323,39.1025404 177.789145,37.1256351 C176.557044,39.2249423 175.491224,41.0413395 174.164434,43.3023095 C176.844573,43.4143187 179.048961,43.5806005 181.512009,43.1822171" id="Fill-150" fill="#7556E8"></path>
                            <path d="M177.88545,147.808661 C176.556351,150.088106 175.47321,151.94261 174.204157,154.11582 C176.779215,154.357159 178.989376,154.35254 181.569053,154.11582 C180.306928,151.954157 179.222633,150.098499 177.88545,147.808661" id="Fill-184" fill="#7556E8"></path>
                            <path d="M158.492841,147.807506 C157.159122,150.090416 156.072517,151.947229 154.818476,154.090416 C157.366975,154.383718 159.577136,154.324827 162.185681,154.138915 C160.908545,151.948383 159.826559,150.092725 158.492841,147.807506" id="Fill-188" fill="#7556E8" opacity="0.30078125"></path>
                            <path d="M181.521016,24.71097 C180.294688,22.6081986 179.210393,20.7513857 177.87552,18.4650115 C176.516397,20.8091224 175.437875,22.6682448 174.204619,24.7964203 C176.824711,24.9615473 179.012933,25.0781755 181.521016,24.71097" id="Fill-208" fill="#7556E8"></path>
                            <path d="M154.991455,24.7809469 L162.161201,24.7809469 C160.912933,22.6331409 159.828637,20.7682448 158.527252,18.5269053 C157.136952,20.7139723 155.929099,22.5881062 154.991455,24.7809469" id="Fill-210" fill="#7556E8"></path>
                            <path d="M177.893303,73.9620092 C176.511085,76.2864896 175.304388,78.0855658 174.309007,80.2102771 L181.574596,80.2102771 C180.307852,78.0601617 179.213164,76.2010393 177.893303,73.9620092" id="Fill-238" fill="#7556E8"></path>
                            <path d="M162.201848,80.2645497 C160.902771,78.037067 159.816166,76.1767898 158.685681,74.2391455 C156.913164,76.1929561 155.521709,78.7125866 155.286143,80.3638568 C157.470901,80.3257506 159.636028,80.445843 162.201848,80.2645497" id="Fill-240" fill="#7556E8"></path>
                            <path d="M154.719746,135.762818 C157.422979,135.747806 159.622748,135.94642 162.168938,135.620785 C160.889492,133.444111 159.797113,131.590762 158.494573,129.374827 C157.145843,131.655427 156.048845,133.51224 154.719746,135.762818" id="Fill-264" fill="#7556E8" opacity="0.30078125"></path>
                            <path d="M181.551501,135.626328 C180.290531,133.478522 179.198152,131.618245 177.919861,129.44157 C176.533025,131.664434 175.311316,133.500462 174.373672,135.626328 L181.551501,135.626328 Z" id="Fill-266" fill="#7556E8"></path>
                            <path d="M197.265589,74.0747113 C195.93418,76.1682448 194.777136,78.0296767 193.728637,80.1982679 L200.821016,80.1982679 C199.790993,77.9650115 198.648961,76.1439954 197.265589,74.0747113" id="Fill-288" fill="#7556E8"></path>
                            <path d="M200.97448,24.7684758 C199.685797,22.5652425 198.623441,20.75 197.302425,18.4924942 C195.964088,20.801963 194.647691,22.5952656 193.788568,24.9497691 C196.292032,24.863164 198.443303,25.0721709 200.97448,24.7684758" id="Fill-300" fill="#7556E8"></path>
                            <path d="M200.968822,135.61963 C199.662818,133.399076 198.573903,131.548037 197.284065,129.354042 C195.960739,131.611547 194.872979,133.472979 193.520785,135.782448 C196.281755,135.747806 198.430716,135.934873 200.968822,135.61963" id="Fill-326" fill="#7556E8"></path>
                            <path d="M213.204042,135.772979 C215.728291,135.761432 217.868014,135.908083 220.383025,135.652887 C219.078176,133.426559 217.99388,131.57552 216.716744,129.394226 C215.385335,131.670208 214.043533,133.431178 213.204042,135.772979" id="Fill-328" fill="#7556E8"></path>
                            <path d="M220.271132,116.99388 C219.084065,114.961547 218.028637,113.155543 216.693764,110.871478 C215.340416,113.162471 214.250346,115.006582 212.912009,117.269861 C215.621016,117.186721 217.806928,117.553926 220.271132,116.99388" id="Fill-358" fill="#7556E8"></path>
                            <path d="M193.77321,117.154042 L200.97067,117.154042 C199.694688,114.988915 198.688915,113.054734 197.257044,111.014319 C195.927945,113.20254 194.720092,114.980831 193.77321,117.154042" id="Fill-360" fill="#7556E8"></path>
                            <path d="M158.489492,55.4230947 C157.160393,57.7995381 155.899423,59.5628176 154.968707,61.7244804 L162.155774,61.7244804 C160.913279,59.587067 159.828984,57.7256351 158.489492,55.4230947" id="Fill-380" fill="#7556E8"></path>
                            <path d="M177.887644,55.4242494 C176.555081,57.7117783 175.470785,59.5720554 174.223672,61.7106236 L181.553926,61.7106236 C180.275635,59.5212471 179.194804,57.6655889 177.887644,55.4242494" id="Fill-382" fill="#7556E8"></path>
                            <path d="M200.894457,61.5869515 C199.666975,59.4922633 198.579215,57.6342956 197.280139,55.4160508 C195.967206,57.6827945 194.889838,59.5453811 193.550346,61.8594688 C196.233949,61.7590069 198.412933,62.1008083 200.894457,61.5869515" id="Fill-384" fill="#7556E8"></path>
                            <path d="M158.393649,111.08037 C157.122286,113.25358 155.883256,115.008776 154.946767,117.166975 L162.211201,117.166975 C160.870554,115.037644 159.971016,113.041109 158.393649,111.08037" id="Fill-438" fill="#7556E8" opacity="0.30078125"></path>
                            <path d="M181.55485,117.135912 C180.308891,115.006582 179.229215,113.163626 177.941686,110.961547 C176.508661,113.180947 175.329677,115.005427 174.345843,117.135912 L181.55485,117.135912 Z" id="Fill-440" fill="#7556E8"></path>
                            <path d="M162.144342,172.556467 C160.903002,170.43291 159.827945,168.595727 158.491917,166.310508 C157.145497,168.609584 156.069284,170.447921 154.834873,172.556467 L162.144342,172.556467 Z" id="Fill-460" fill="#7556E8" opacity="0.30078125"></path>
                            <path d="M197.345612,166.429792 C195.909122,168.575289 194.791339,170.404388 193.760162,172.585681 L200.98418,172.585681 C199.716282,170.440185 198.622748,168.5903 197.345612,166.429792" id="Fill-464" fill="#7556E8"></path>
                        </g>
                    </g>
                    <g id="worklflow" opacity="0.770717076" transform="translate(349.000000, 41.000000)">
                        <mask id="mask-3" fill="white">
                            <use xlink:href="#path-2"></use>
                        </mask>
                        <use id="Rectangle" fill="transparent" xlink:href="#path-2"></use>
                        <g id="Group-22" mask="url(#mask-3)">
                            <g transform="translate(20.443038, 0.705222)">
                                <polygon id="Stroke-4" stroke="none" fill="url(#linearGradient-4)" fill-rule="evenodd" opacity="0.785016741" points="82.9826337 47.1026184 64.4500845 65.6351676 45.9175353 47.1026184 64.4500845 28.5700692"></polygon>
                                <polygon id="Stroke-1" stroke="none" fill="url(#linearGradient-5)" fill-rule="evenodd" points="40.4321313 17.4979063 88.4731944 17.4979063 88.4731944 0 40.4321313 0"></polygon>
                                <polygon id="Stroke-3" stroke="none" fill="url(#linearGradient-6)" fill-rule="evenodd" opacity="0.834495908" points="102.419094 121.931399 124.42005 121.931399 124.42005 99.9300522 102.419094 99.9300522"></polygon>
                                <path d="M37.1669024,109.099328 L8.74908989,109.099328 C3.91711054,109.099328 3.90652383e-05,113.016399 3.90652383e-05,117.848379 C3.90652383e-05,122.680163 3.91711054,126.597429 8.74908989,126.597429 L37.1669024,126.597429 C41.9988817,126.597429 45.9159532,122.680163 45.9159532,117.848379 C45.9159532,113.016399 41.9988817,109.099328 37.1669024,109.099328 Z" id="Stroke-5" stroke="#4C6884" stroke-width="2.5" fill="none" stroke-linecap="round" stroke-linejoin="round"></path>
                                <polygon id="Stroke-7" stroke="none" fill="url(#linearGradient-7)" fill-rule="evenodd" opacity="0.834495908" points="53.4519893 99.0219807 75.4529457 99.0219807 75.4529457 77.020829 53.4519893 77.020829"></polygon>
                                <line x1="64.450104" y1="25.5701083" x2="64.450104" y2="20.4980431" id="Stroke-9" stroke="#4C6884" stroke-width="2.5" fill="none" stroke-linecap="round" stroke-linejoin="round"></line>
                                <line x1="16.356088" y1="109.099328" x2="16.356088" y2="83.72626" id="Stroke-10" stroke="#4C6884" stroke-width="2.5" fill="none" stroke-linecap="round" stroke-linejoin="round"></line>
                                <path d="M41.9175744,47.1026184 L23.7146507,47.1026184 C19.6504986,47.1026184 16.3561271,50.3971853 16.3561271,54.4611421 L16.3561271,54.9817715" id="Stroke-12" stroke="#4C6884" stroke-width="2.5" fill="none" stroke-linecap="round" stroke-linejoin="round"></path>
                                <path d="M87.4675114,47.1026184 L106.061087,47.1026184 C110.125044,47.1026184 113.419611,50.3971853 113.419611,54.4611421 L113.419611,55.1770977" id="Stroke-13" stroke="#4C6884" stroke-width="2.5" fill="none" stroke-linecap="round" stroke-linejoin="round"></path>
                                <path d="M48.4521456,88.0214635 L37.3516028,88.0214635 C33.1440813,88.0214635 29.7332953,91.4320541 29.7332953,95.6395756 L29.7332953,109.099308" id="Stroke-14" stroke="#4C6884" stroke-width="2.5" fill="none" stroke-linecap="round" stroke-linejoin="round"></path>
                                <polyline id="Stroke-16" stroke="#4C6884" stroke-width="2.5" fill="none" stroke-linecap="round" stroke-linejoin="round" points="97.4191134 110.930706 70.5613087 110.930706 70.5613087 126.597429"></polyline>
                                <line x1="64.4525847" y1="99.3440931" x2="64.4525847" y2="126.792697" id="Stroke-17" stroke="#4C6884" stroke-width="2.5" fill="none" stroke-linecap="round" stroke-linejoin="round"></line>
                                <path d="M125.667892,71.4588766 C125.667892,78.241774 120.169264,83.7404016 113.386367,83.7404016 C106.603274,83.7404016 101.104646,78.241774 101.104646,71.4588766 C101.104646,64.6757839 106.603274,59.1771563 113.386367,59.1771563 C120.169264,59.1771563 125.667892,64.6757839 125.667892,71.4588766 Z" id="Stroke-19" stroke="none" fill="url(#linearGradient-4)" fill-rule="evenodd" opacity="0.834495908"></path>
                                <path d="M28.6376912,71.4588766 C28.6376912,78.241774 23.1390635,83.7404016 16.3561661,83.7404016 C9.57307344,83.7404016 4.07444578,78.241774 4.07444578,71.4588766 C4.07444578,64.6757839 9.57307344,59.1771563 16.3561661,59.1771563 C23.1390635,59.1771563 28.6376912,64.6757839 28.6376912,71.4588766 Z" id="Stroke-20" stroke="none" fill="url(#linearGradient-4)" fill-rule="evenodd" opacity="0.834495908"></path>
                                <line x1="54.5280949" y1="126.597429" x2="76.5290513" y2="126.597429" id="Stroke-18" stroke="#4C6884" stroke-width="2.5" fill="none" stroke-linecap="round" stroke-linejoin="round"></line>
                                <line x1="64.450104" y1="74.6685973" x2="64.450104" y2="68.4012063" id="Stroke-11" stroke="#4C6884" stroke-width="2.5" fill="none" stroke-linecap="round" stroke-linejoin="round"></line>
                                <line x1="113.419572" y1="87.2947775" x2="113.419572" y2="96.4986475" id="Stroke-15" stroke="#4C6884" stroke-width="2.5" fill="none" stroke-linecap="round" stroke-linejoin="round"></line>
                            </g>
                        </g>
                    </g>
                    <g id="Group-9" transform="translate(66.000000, 141.000000)">
                        <g id="Rectangle">
                            <use fill="black" fill-opacity="1" filter="url(#filter-9)" xlink:href="#path-8"></use>
                            <use fill="#FFFFFF" fill-rule="evenodd" xlink:href="#path-8"></use>
                            <use fill="black" fill-opacity="1" filter="url(#filter-10)" xlink:href="#path-8"></use>
                        </g>
                        <g id="Group-78" transform="translate(37.543147, 32.050761)">
                            <path d="M7.25690326,1.60385323 L7.25690326,106.472116 L1.58947869e-14,106.472116 L1.58947869e-14,1.60385323 L7.25690326,1.60385323 Z M25.8777305,1.60385323 L25.8777305,106.472116 L18.6215881,106.472116 L18.6215881,1.60385323 L25.8777305,1.60385323 Z M44.4993186,1.60385323 L44.4993186,106.472116 L37.2431762,106.472116 L37.2431762,1.60385323 L44.4993186,1.60385323 Z M63.1216676,1.60385323 L63.1216676,106.472116 L55.8655252,106.472116 L55.8655252,1.60385323 L63.1216676,1.60385323 Z M81.7424949,1.60385323 L81.7424949,106.472116 L74.4863524,106.472116 L74.4863524,1.60385323 L81.7424949,1.60385323 Z M100.364844,1.60385323 L100.364844,106.472116 L93.1087014,106.472116 L93.1087014,1.60385323 L100.364844,1.60385323 Z" id="Combined-Shape" fill="#E9F0F5"></path>
                            <path d="M7.25690326,60.3088377 L7.25690326,106.472116 L1.58947869e-14,106.472116 L1.58947869e-14,60.3088377 L7.25690326,60.3088377 Z M25.8777305,41.1333572 L25.8777305,106.472116 L18.6215881,106.472116 L18.6215881,41.1333572 L25.8777305,41.1333572 Z M44.4993186,31.3839382 L44.4993186,106.472116 L37.2431762,106.472116 L37.2431762,31.3839382 L44.4993186,31.3839382 Z M63.1216676,41.1333572 L63.1216676,106.472116 L55.8655252,106.472116 L55.8655252,41.1333572 L63.1216676,41.1333572 Z M81.7424949,21.9586376 L81.7424949,106.472116 L74.4863524,106.472116 L74.4863524,21.9586376 L81.7424949,21.9586376 Z M100.364844,11.5579385 L100.364844,106.472116 L93.1087014,106.472116 L93.1087014,11.5579385 L100.364844,11.5579385 Z" id="Combined-Shape" fill="#FFC414"></path>
                            <g id="Group-77" transform="translate(137.637418, 0.715191)" fill="#4C6884" opacity="0.409458705">
                                <path d="M21.9909733,33.5964644 L21.9909733,35.0511927 C21.9909733,35.610411 21.8958682,36.1163704 21.7064187,36.5698318 C21.5162084,37.0232931 21.1951334,37.4767545 20.7416721,37.929455 L19.9351804,37.2812183 C20.430488,36.7539553 20.7150426,36.2639736 20.7888442,35.8105123 L19.7769255,35.8105123 L19.7769255,33.5964644 L21.9909733,33.5964644 Z M91.1324164,33.5957036 L91.1324164,35.0504319 C91.1324164,35.6096502 91.0373112,36.1156096 90.8478618,36.5690709 C90.6576515,37.0225323 90.3365765,37.4759936 89.8831152,37.9286941 L89.0766235,37.2804574 C89.5719311,36.7531945 89.8564857,36.2632128 89.9302873,35.8097514 L88.9183685,35.8097514 L88.9183685,33.5957036 L91.1324164,33.5957036 Z M37.0626286,24.4083179 C38.4854016,24.4083179 39.5848171,24.8906913 40.3593535,25.854677 C41.1346506,26.8201845 41.5219188,28.1935029 41.5219188,29.9753929 C41.5219188,31.2186074 41.3377952,32.2898718 40.9687873,33.1853819 C40.5997793,34.0816528 40.0702338,34.7664099 39.37939,35.2411748 C38.6885462,35.7151789 37.8691203,35.9533221 36.9203513,35.9533221 C36.2454852,35.9533221 35.5888792,35.8399568 34.9512943,35.6132261 C34.3129485,35.3864955 33.7620995,35.0623771 33.2987472,34.6401103 L33.9789393,33.1534266 C34.9802063,33.9340496 35.9343011,34.3236003 36.8412238,34.3236003 C37.6735841,34.3236003 38.3195382,33.9682875 38.7783255,33.256901 C39.2371127,32.5447536 39.4767777,31.5252264 39.4980812,30.1967977 C39.2553729,30.6814535 38.8886475,31.0664392 38.3986657,31.3509938 C37.908684,31.6355484 37.3525091,31.7778257 36.730141,31.7778257 C36.0659266,31.7778257 35.4732314,31.6248966 34.9512943,31.3190385 C34.4293572,31.0139411 34.0207855,30.5863484 33.7255791,30.0385427 C33.4303728,29.4899762 33.2827696,28.8630431 33.2827696,28.1562216 C33.2827696,27.4395092 33.4433071,26.7965984 33.7651429,26.2267284 C34.0862179,25.6576192 34.5343533,25.2125271 35.1095493,24.8906913 C35.6839844,24.5688554 36.3352644,24.4083179 37.0626286,24.4083179 Z M96.920744,24.4388277 C98.2598245,24.4388277 99.2793517,24.9272877 99.9808473,25.9019253 C100.681582,26.8773237 101.03233,28.2978142 101.03233,30.1641576 C101.03233,32.040392 100.681582,33.4745776 99.9808473,34.4659537 C99.2793517,35.4573298 98.2598245,35.9526374 96.920744,35.9526374 C95.5816635,35.9526374 94.5621363,35.4588515 93.8606407,34.4735621 C93.1591451,33.4882728 92.8091582,32.0518046 92.8091582,30.1641576 C92.8091582,28.308466 93.1591451,26.890258 93.8606407,25.9102945 C94.5621363,24.9295702 95.5816635,24.4388277 96.920744,24.4388277 Z M106.204072,24.4075571 C107.626845,24.4075571 108.72626,24.8899304 109.500797,25.8539162 C110.276094,26.8194237 110.663362,28.192742 110.663362,29.9746321 C110.663362,31.2178466 110.479238,32.289111 110.11023,33.1846211 C109.741222,34.080892 109.211677,34.7656491 108.520833,35.240414 C107.829989,35.714418 107.010563,35.9525613 106.061794,35.9525613 C105.386928,35.9525613 104.730322,35.839196 104.092737,35.6124653 C103.454392,35.3857346 102.903543,35.0616163 102.44019,34.6393494 L103.120382,33.1526657 C104.121649,33.9332888 105.075744,34.3228395 105.982667,34.3228395 C106.815027,34.3228395 107.460981,33.9675266 107.919769,33.2561401 C108.378556,32.5439928 108.618221,31.5244656 108.639524,30.1960369 C108.396816,30.6806927 108.030091,31.0656783 107.540109,31.350233 C107.050127,31.6347876 106.493952,31.7770649 105.871584,31.7770649 C105.20737,31.7770649 104.614674,31.6241358 104.092737,31.3182776 C103.5708,31.0131803 103.162229,30.5855876 102.867022,30.0377819 C102.571816,29.4892154 102.424213,28.8622823 102.424213,28.1554608 C102.424213,27.4387484 102.58475,26.7958376 102.906586,26.2259675 C103.227661,25.6568583 103.675796,25.2117662 104.250992,24.8899304 C104.825427,24.5680946 105.476707,24.4075571 106.204072,24.4075571 Z M27.6691311,24.408394 C28.776155,24.408394 29.6587308,24.6792535 30.3176193,25.2224941 C30.9765078,25.7657347 31.305952,26.4900555 31.305952,27.3977391 C31.2953002,28.0193463 31.1347627,28.5595436 30.8235787,29.0183308 C30.5123946,29.4763572 30.0779543,29.8118882 29.518736,30.0226412 C30.1829504,30.2014388 30.6919532,30.5286006 31.0449835,31.0026046 C31.3980138,31.4773695 31.5745289,32.0632172 31.5745289,32.7586261 C31.5745289,33.7393504 31.2138902,34.5138867 30.4910911,35.0829959 C29.7690528,35.6521051 28.7966978,35.9366597 27.574026,35.9366597 C26.8147065,35.9366597 26.0842989,35.8210119 25.3835642,35.5889553 C24.6820686,35.3576596 24.1045901,35.0358238 23.6518896,34.6249695 L24.3472985,33.1382858 C25.3493263,33.918148 26.3985263,34.3084596 27.4948985,34.3084596 C28.2116109,34.3084596 28.7464822,34.1654214 29.0995125,33.8808668 C29.4533037,33.5963122 29.6298189,33.1641544 29.6298189,32.5843934 C29.6298189,32.0152842 29.4502603,31.5960607 29.0919041,31.3274838 C28.7335479,31.058146 28.1796555,30.9234771 27.4309878,30.9234771 L25.945065,30.9234771 L25.945065,29.295277 L27.1624109,29.295277 C28.6179001,29.295277 29.3452642,28.7413846 29.3452642,27.6343607 C29.3452642,27.1185103 29.1870093,26.7228729 28.8704993,26.4482093 C28.5547503,26.1743064 28.1119407,26.037355 27.5420706,26.037355 C26.5301518,26.037355 25.5174722,26.4269057 24.5055534,27.2075288 L23.8253614,25.7208451 C24.2788228,25.3198818 24.8509753,25.0010893 25.5418191,24.7644677 C26.2319021,24.5263244 26.9410061,24.408394 27.6691311,24.408394 Z M47.0726357,24.4085462 C47.8319552,24.4085462 48.5091039,24.5325633 49.1048425,24.7798367 C49.7005812,25.0278709 50.1669768,25.3809012 50.5040295,25.8396885 C50.841843,26.2977149 51.0107497,26.8333471 51.0107497,27.4443025 C51.0107497,28.0567797 50.8289087,28.5916511 50.4652266,29.0496774 C50.1015445,29.5084647 49.6031935,29.832583 48.9701736,30.0227933 C49.6975378,30.201591 50.2674079,30.5340786 50.6782621,31.0187344 C51.0891163,31.5041511 51.2953043,32.089238 51.2953043,32.7739951 C51.2953043,33.4176667 51.1180283,33.9791675 50.7657588,34.4584975 C50.4119677,34.9385883 49.9166601,35.3045529 49.2790752,35.5571521 C48.6407294,35.8105123 47.904996,35.9368119 47.0726357,35.9368119 C46.2395146,35.9368119 45.504542,35.8105123 44.8661963,35.5571521 C44.2286113,35.3045529 43.7325429,34.9385883 43.3802734,34.4584975 C43.0264823,33.9791675 42.8499671,33.4176667 42.8499671,32.7739951 C42.8499671,32.089238 43.0553942,31.5041511 43.4670093,31.0187344 C43.8778636,30.5340786 44.4469728,30.201591 45.1743369,30.0227933 C44.5420779,29.8112795 44.0444878,29.4795527 43.6808057,29.0260914 C43.3171236,28.57263 43.1345217,28.0453671 43.1345217,27.4443025 C43.1345217,26.8333471 43.3034285,26.2977149 43.6404811,25.8396885 C43.9782946,25.3809012 44.4446902,25.0278709 45.0404289,24.7798367 C45.6361675,24.5325633 46.3133162,24.4085462 47.0726357,24.4085462 Z M116.103833,24.4076332 C117.210857,24.4076332 118.093433,24.6784926 118.752321,25.2217333 C119.41121,25.7649739 119.740654,26.4892947 119.740654,27.3969782 C119.730002,28.0185855 119.569465,28.5587827 119.25828,29.0175699 C118.947096,29.4755963 118.512656,29.8111273 117.953438,30.0218803 C118.617652,30.200678 119.126655,30.5278397 119.479685,31.0018438 C119.832716,31.4766087 120.009231,32.0624564 120.009231,32.7578652 C120.009231,33.7385895 119.648592,34.5131259 118.925793,35.0822351 C118.203755,35.6513443 117.2314,35.9358989 116.008728,35.9358989 C115.249408,35.9358989 114.519001,35.820251 113.818266,35.5881945 C113.11677,35.3568987 112.539292,35.0350629 112.086591,34.6242087 L112.782,33.137525 C113.784028,33.9173872 114.833228,34.3076987 115.9296,34.3076987 C116.646313,34.3076987 117.181184,34.1646606 117.534214,33.880106 C117.888005,33.5955514 118.064521,33.1633936 118.064521,32.5836326 C118.064521,32.0145234 117.884962,31.5952999 117.526606,31.326723 C117.16825,31.0573852 116.614357,30.9227163 115.86569,30.9227163 L114.379767,30.9227163 L114.379767,29.2945161 L115.597113,29.2945161 C117.052602,29.2945161 117.779966,28.7406238 117.779966,27.6335998 C117.779966,27.1177495 117.621711,26.7221121 117.305201,26.4474484 C116.989452,26.1735456 116.546642,26.0365942 115.976772,26.0365942 C114.964854,26.0365942 113.952174,26.4261449 112.940255,27.2067679 L112.260063,25.7200842 C112.713525,25.3191209 113.285677,25.0003285 113.976521,24.7637069 C114.666604,24.5255636 115.375708,24.4076332 116.103833,24.4076332 Z M86.7839047,24.5492257 L86.7839047,26.1317754 L81.7235499,26.1317754 L81.7235499,29.1994871 C82.2926591,28.8091755 82.9667644,28.6136394 83.7473875,28.6136394 C84.4534481,28.6136394 85.0758162,28.7642859 85.6137309,29.0648182 C86.1516456,29.3653505 86.5678258,29.7868565 86.8630321,30.3300971 C87.1582385,30.8733377 87.3058417,31.4979883 87.3058417,32.2040489 C87.3058417,32.9420649 87.136935,33.5933449 86.7998823,34.1571283 C86.4620688,34.7216724 85.977413,35.1591561 85.3443931,35.4695793 C84.7121341,35.7807634 83.979444,35.935975 83.1463229,35.935975 C82.4402623,35.935975 81.7440926,35.8180446 81.0593355,35.5799013 C80.3738176,35.3432797 79.8100343,35.0244872 79.3672247,34.6242848 L80.0466559,33.1376011 C81.0692265,33.9174633 82.1131006,34.3077748 83.1782783,34.3077748 C83.8843389,34.3077748 84.425297,34.1304988 84.79887,33.7774685 C85.1732039,33.4244382 85.3603708,32.9207613 85.3603708,32.2671988 C85.3603708,31.6455915 85.167878,31.1472405 84.7836532,30.7729067 C84.3979067,30.3985728 83.8843389,30.2114059 83.2414281,30.2114059 C82.7986185,30.2114059 82.3816775,30.2928159 81.9921268,30.4563967 C81.6018153,30.6199776 81.2586759,30.8596426 80.9642304,31.1761525 L79.7309068,31.1761525 L79.7309068,24.5492257 L86.7839047,24.5492257 Z M176.758701,29.0407756 C177.654972,29.0407756 178.353424,29.3314169 178.854058,29.9111779 C179.354691,30.4909389 179.605769,31.3453636 179.605769,32.4729302 C179.605769,33.6012577 179.354691,34.4579649 178.854058,35.0430517 C178.353424,35.6281386 177.654972,35.9203016 176.758701,35.9203016 C175.86243,35.9203016 175.163978,35.6281386 174.663345,35.0430517 C174.162711,34.4579649 173.912394,33.5959318 173.912394,32.4577134 C173.912394,31.3400377 174.162711,30.4909389 174.663345,29.9111779 C175.163978,29.3314169 175.86243,29.0407756 176.758701,29.0407756 Z M13.846701,24.4081658 C14.9750285,24.4081658 15.868256,24.685112 16.5271445,25.2382435 C17.186033,25.7921359 17.5154772,26.5377603 17.5154772,27.4766383 C17.5154772,28.1195491 17.3754824,28.7251787 17.0970145,29.2950487 C16.817025,29.8641579 16.3506293,30.5025037 15.6970667,31.2085643 L12.9298873,34.1499764 L17.9270923,34.1499764 L17.9270923,35.8108927 L10.3673742,35.8108927 L10.3673742,34.3082313 L14.1944054,30.1806679 C14.6478667,29.6853603 14.9795935,29.2318989 15.1911074,28.8202838 C15.4018604,28.4094296 15.5068564,28.0039012 15.5068564,27.6029379 C15.5068564,27.0863268 15.3569707,26.6960152 15.0564385,26.4320033 C14.7559062,26.1695131 14.3267918,26.0371268 13.7675735,26.0371268 C12.7761974,26.0371268 11.7597136,26.4274383 10.7150786,27.2073005 L10.0348866,25.7206168 C10.4776962,25.3204144 11.0475662,25.0016219 11.7437359,24.7642394 C12.4391448,24.526857 13.1398795,24.4081658 13.846701,24.4081658 Z M4.1838657,24.4081658 C5.31219318,24.4081658 6.20542074,24.685112 6.86430921,25.2382435 C7.52319768,25.7921359 7.85264191,26.5377603 7.85264191,27.4766383 C7.85264191,28.1195491 7.71264714,28.7251787 7.43417926,29.2950487 C7.1541897,29.8641579 6.68779405,30.5025037 6.03423147,31.2085643 L3.26705207,34.1499764 L8.264257,34.1499764 L8.264257,35.8108927 L0.704538941,35.8108927 L0.704538941,34.3082313 L4.53157012,30.1806679 C4.98503147,29.6853603 5.31675823,29.2318989 5.52827208,28.8202838 C5.73902509,28.4094296 5.84402117,28.0039012 5.84402117,27.6029379 C5.84402117,27.0863268 5.69413546,26.6960152 5.39360319,26.4320033 C5.09307092,26.1695131 4.66395649,26.0371268 4.10473822,26.0371268 C3.11336215,26.0371268 2.09687832,26.4274383 1.05224336,27.2073005 L0.372051342,25.7206168 C0.814860914,25.3204144 1.38473096,25.0016219 2.08090065,24.7642394 C2.7763095,24.526857 3.47704423,24.4081658 4.1838657,24.4081658 Z M164.218441,24.5496061 L164.218441,26.0682452 L159.110153,35.8100558 L156.92806,35.8100558 L162.01961,26.2105225 L156.374168,26.2105225 L156.374168,24.5496061 L164.218441,24.5496061 Z M176.885001,24.5495301 L170.35394,35.8099797 L168.613896,35.8099797 L175.12974,24.5495301 L176.885001,24.5495301 Z M153.416398,24.5492257 L153.416398,32.0145995 L155.014164,32.0145995 L155.014164,33.6116051 L153.416398,33.6116051 L153.416398,35.8096753 L151.424516,35.8096753 L151.424516,33.6116051 L146.521655,33.6116051 L146.521655,32.093727 L151.788198,24.5492257 L153.416398,24.5492257 Z M75.0177239,24.5497583 L75.0177239,34.1492916 L77.4691542,34.1492916 L77.4691542,35.8102079 L70.5264784,35.8102079 L70.5264784,34.1492916 L72.9938864,34.1492916 L72.9938864,26.8901058 L70.700711,28.2664675 L70.700711,26.4472962 L73.8315725,24.5497583 L75.0177239,24.5497583 Z M176.758701,30.3220322 C176.357738,30.3220322 176.062531,30.4939823 175.873082,30.8363608 C175.682872,31.1787393 175.588527,31.7250233 175.588527,32.4729302 C175.588527,33.2322497 175.682872,33.7830987 175.873082,34.1254773 C176.062531,34.4678558 176.357738,34.6398059 176.758701,34.6398059 C177.158904,34.6398059 177.45411,34.4678558 177.64432,34.1254773 C177.834531,33.7830987 177.928875,33.2322497 177.928875,32.4729302 C177.928875,31.7250233 177.831487,31.1787393 177.636712,30.8363608 C177.441176,30.4939823 177.149013,30.3220322 176.758701,30.3220322 Z M96.920744,26.0365942 C96.1933798,26.0365942 95.6638343,26.3660384 95.3313467,27.0249269 C94.99962,27.6838153 94.8329958,28.7307328 94.8329958,30.1641576 C94.8329958,31.6196468 94.99962,32.6810203 95.3313467,33.3505605 C95.6638343,34.0208616 96.1933798,34.3548709 96.920744,34.3548709 C97.6481082,34.3548709 98.1776536,34.0208616 98.5101412,33.3505605 C98.8426288,32.6810203 99.0084922,31.6196468 99.0084922,30.1641576 C99.0084922,28.7307328 98.8426288,27.6838153 98.5101412,27.0249269 C98.1776536,26.3660384 97.6481082,26.0365942 96.920744,26.0365942 Z M47.0726357,30.7653743 C46.3772269,30.8604795 45.821052,31.0666674 45.404111,31.3824165 C44.98717,31.6989265 44.7794604,32.1158674 44.7794604,32.6317178 C44.7794604,33.1802843 44.982605,33.6017903 45.3881333,33.8977575 C45.7936617,34.192203 46.3559233,34.3405671 47.0726357,34.3405671 C47.7893481,34.3405671 48.3508489,34.192203 48.7563773,33.8977575 C49.1626665,33.6017903 49.3658111,33.1802843 49.3658111,32.6317178 C49.3658111,32.1158674 49.1573406,31.6989265 48.7411604,31.3824165 C48.3242195,31.0666674 47.7688054,30.8604795 47.0726357,30.7653743 Z M151.424516,27.7287811 L148.451148,32.0145995 L151.424516,32.0145995 L151.424516,27.7287811 Z M168.724979,24.3912751 C169.62125,24.3912751 170.321985,24.684199 170.828705,25.2692858 C171.334664,25.8543727 171.587264,26.705754 171.587264,27.8234297 C171.587264,28.9517572 171.334664,29.8077035 170.828705,30.3935512 C170.321985,30.9786381 169.62125,31.2708011 168.724979,31.2708011 C167.83936,31.2708011 167.146234,30.9786381 166.644839,30.3935512 C166.144206,29.8077035 165.893889,28.9517572 165.893889,27.8234297 C165.893889,26.705754 166.144206,25.8543727 166.644839,25.2692858 C167.146234,24.684199 167.83936,24.3912751 168.724979,24.3912751 Z M37.1729506,26.0213013 C36.5825378,26.0213013 36.1108163,26.2107507 35.757786,26.5904105 C35.4047556,26.9700702 35.2282405,27.4714646 35.2282405,28.0930718 C35.2282405,28.7146791 35.4047556,29.2137909 35.757786,29.5873639 C36.1108163,29.9616978 36.5825378,30.1488647 37.1729506,30.1488647 C37.7633633,30.1488647 38.2434541,29.9594153 38.6124621,29.5797555 C38.9814701,29.2000958 39.1655936,28.7047881 39.1655936,28.0930718 C39.1655936,27.4813555 38.9814701,26.9837654 38.6124621,26.5987797 C38.2434541,26.2137941 37.7633633,26.0213013 37.1729506,26.0213013 Z M106.314394,26.0205404 C105.723981,26.0205404 105.252259,26.2099899 104.899229,26.5896496 C104.546199,26.9693094 104.369684,27.4707037 104.369684,28.092311 C104.369684,28.7139182 104.546199,29.2130301 104.899229,29.5866031 C105.252259,29.9609369 105.723981,30.1481039 106.314394,30.1481039 C106.904806,30.1481039 107.384897,29.9586544 107.753905,29.5789947 C108.122913,29.1993349 108.307037,28.7040273 108.307037,28.092311 C108.307037,27.4805947 108.122913,26.9830045 107.753905,26.5980189 C107.384897,26.2130332 106.904806,26.0205404 106.314394,26.0205404 Z M168.724979,25.6732925 C168.334668,25.6732925 168.044787,25.8437209 167.855338,26.1860995 C167.665127,26.5299997 167.570022,27.074762 167.570022,27.8234297 C167.570022,28.5827492 167.665127,29.1335982 167.855338,29.4759768 C168.044787,29.8191161 168.334668,29.9895446 168.724979,29.9895446 C169.135833,29.9895446 169.436366,29.8213987 169.625815,29.4835852 C169.816025,29.1465325 169.91113,28.593401 169.91113,27.8234297 C169.91113,27.074762 169.813743,26.5299997 169.618207,26.1860995 C169.423431,25.8437209 169.125182,25.6732925 168.724979,25.6732925 Z M47.0726357,26.0055518 C46.4502676,26.0055518 45.9602859,26.1478292 45.6019297,26.4323838 C45.2435735,26.7169384 45.064015,27.1232276 45.064015,27.6504905 C45.064015,28.1457981 45.245856,28.5490439 45.6095381,28.8594672 C45.9732202,29.171412 46.4609194,29.3737958 47.0726357,29.4689009 C47.6835912,29.3737958 48.1712904,29.171412 48.5349725,28.8594672 C48.8994154,28.5490439 49.0812564,28.1457981 49.0812564,27.6504905 C49.0812564,27.1232276 48.9016979,26.7169384 48.5433417,26.4323838 C48.1849855,26.1478292 47.694243,26.0055518 47.0726357,26.0055518 Z M155.861894,12.9602449 C156.055908,12.916877 156.266661,12.9328546 156.462958,13.0188297 C156.955222,13.2341477 157.180431,13.807822 156.964352,14.3000862 C156.857835,14.5435554 156.802293,14.6896369 156.797728,14.7010495 C156.658494,15.0670142 156.313072,15.3142875 155.922761,15.3287435 C155.910587,15.3287435 155.899175,15.3295044 155.887762,15.3295044 C155.509624,15.3295044 155.164963,15.1111429 155.005186,14.765721 C154.939754,14.6249654 154.8728,14.483449 154.804324,14.3449759 C154.567703,13.8618417 154.767043,13.2782765 155.250177,13.0424158 C155.447235,12.9442672 155.660271,12.9222028 155.861894,12.9602449 Z M8.09557851,0.0462591443 C10.2502808,0.0462591443 11.997933,1.79238967 11.997933,3.94785276 C11.997933,5.3044326 11.3040458,6.49667075 10.254085,7.1958838 C12.7557308,8.22378025 14.5497943,10.9757428 14.5497943,14.218448 L14.5497943,14.218448 L1.64212354,14.218448 C1.64212354,10.9757428 3.43542622,8.22378025 5.93707205,7.1958838 C4.88635037,6.49667075 4.19322405,5.3044326 4.19322405,3.94785276 C4.19322405,1.79238967 5.94087626,0.0462591443 8.09557851,0.0462591443 Z M72.3003035,3.21478228 C75.5871375,-0.0720516606 80.9175908,-0.0720516606 84.2044248,3.21478228 L84.2044248,3.21478228 L87.7491839,6.75878054 L84.2044248,10.3027788 C80.9175908,13.5903736 75.5871375,13.5903736 72.3003035,10.3027788 L72.3003035,10.3027788 L68.7563053,6.75878054 Z M152.62284,9.02585903 C153.059563,8.71010993 153.667475,8.81206265 153.980942,9.24954634 C154.138436,9.4686686 154.29593,9.69235591 154.451903,9.92060827 C154.756239,10.3634178 154.642874,10.9698083 154.200064,11.2726231 C154.031158,11.3890318 153.839426,11.4438123 153.649976,11.4438123 C153.339553,11.4438123 153.035216,11.2962091 152.846528,11.0207846 C152.697403,10.8039449 152.549039,10.592431 152.399153,10.3839606 C152.086447,9.94799855 152.186118,9.3393256 152.62284,9.02585903 Z M78.2523641,2.09101984 C75.6746342,2.09101984 73.5846035,4.18105059 73.5846035,6.75878054 C73.5846035,9.33727133 75.6746342,11.4273021 78.2523641,11.4273021 C80.8308549,11.4273021 82.9208857,9.33727133 82.9208857,6.75878054 C82.9208857,4.18105059 80.8308549,2.09101984 78.2523641,2.09101984 Z M158.09131,8.81563861 C158.44358,8.41011025 159.05834,8.36826399 159.464629,8.71977262 C159.869396,9.07280293 159.912764,9.68756261 159.559734,10.0938518 C159.380936,10.2992789 159.209747,10.5115536 159.047688,10.7238283 C158.856717,10.9756667 158.566836,11.1080531 158.273151,11.1080531 C158.067724,11.1080531 157.860015,11.0433816 157.68426,10.9087127 C157.255907,10.5823118 157.173736,9.97287806 157.499376,9.54452447 C157.686543,9.29877276 157.883601,9.0537819 158.09131,8.81563861 Z M171.579883,1.70055614 C174.029792,1.70055614 176.015588,3.68635165 176.015588,6.13702112 C176.015588,8.58692975 174.029792,10.5727253 171.579883,10.5727253 C169.129214,10.5727253 167.142658,8.58692975 167.142658,6.13702112 C167.142658,3.68635165 169.129214,1.70055614 171.579883,1.70055614 Z M78.2523641,4.30483945 C78.8873194,4.30483945 79.4658727,4.54579892 79.9015925,4.9412861 C80.1357548,5.15378276 80.3286646,5.41088882 80.4669066,5.69917471 C80.6207033,6.02021617 80.7068378,6.37968381 80.7068378,6.75931313 C80.7068378,8.11437128 79.6081831,9.21302596 78.2523641,9.21302596 L78.2523641,9.21310204 C77.1621335,9.21310204 76.2378786,8.50191778 75.9182545,7.51780794 C75.8406015,7.27909418 75.7986513,7.02409881 75.7986513,6.75931313 C75.7986513,6.37968381 75.8847858,6.02021617 76.0385658,5.69938261 C76.1767928,5.41088882 76.3696741,5.15378276 76.6037823,4.94128403 C77.0394013,4.54579892 77.6177652,4.30483945 78.2523641,4.30483945 Z M162.516667,5.78414297 C163.036322,5.64414819 163.570432,5.94468046 163.714992,6.46205247 C163.858791,6.97942448 163.555215,7.51505668 163.037843,7.66037735 C162.906218,7.69613688 162.776875,7.73646146 162.650575,7.78439446 C162.538732,7.82547988 162.425366,7.84450091 162.313523,7.84450091 C161.917124,7.84450091 161.545073,7.60103173 161.399752,7.20767684 C161.214107,6.70399997 161.472032,6.14402086 161.97647,5.95837561 C162.153746,5.8937041 162.333304,5.83511933 162.516667,5.78414297 Z M150.989999,5.48992569 L151.465525,6.05370901 C151.811708,6.46456325 151.75921,7.07856209 151.347595,7.42474483 C151.164993,7.57843475 150.942827,7.65375803 150.721422,7.65375803 C150.444476,7.65375803 150.168291,7.5350668 149.975798,7.30681445 L149.975798,7.30681445 L149.503316,6.74607449 L150.205572,6.07044751 L150.989999,5.48992569 Z M147.478565,1.64706901 C147.887897,1.30088627 148.503418,1.3495801 148.849601,1.76043434 C149.140242,2.10433456 149.152416,2.5889904 148.908946,2.94202071 C148.855687,3.38939533 148.49581,3.75383826 148.029414,3.79568453 C147.999741,3.79796705 147.970068,3.79948873 147.941156,3.79948873 C147.442805,3.79948873 147.018256,3.41906814 146.972606,2.91310875 C146.927716,2.41095356 147.107274,1.96129642 147.478565,1.64706901 Z" id="Combined-Shape"></path>
                            </g>
                        </g>
                        <g id="Group" transform="translate(171.126904, 90.548223)">
                            <polygon id="Fill-13" fill="#4C6884" opacity="0.323800223" points="62.3628793 5.93388165 170.845113 5.93388165 170.845113 0.0777469453 62.3628793 0.0777469453"></polygon>
                            <polygon id="Fill-14" fill="#4C6884" opacity="0.323800223" points="62.3628793 23.5022858 170.845113 23.5022858 170.845113 17.6461511 62.3628793 17.6461511"></polygon>
                            <polygon id="Fill-15" fill="url(#linearGradient-11)" opacity="0.459007626" points="62.3628793 41.0706899 141.146191 41.0706899 141.146191 35.2145552 62.3628793 35.2145552"></polygon>
                            <g id="Group-2" opacity="0.552315848">
                                <path d="M26.3586176,22.1626724 L49.2510946,22.1626724 C48.4138668,10.2913864 38.6199817,0.809763783 26.3586176,8.55896611e-05 L26.3586176,22.1626724 Z" id="Fill-65" fill="#7556E8"></path>
                                <path d="M42.8411303,39.9860346 C46.5339501,36.108823 48.9218616,31.0487622 49.3152791,25.454622 L27.8311483,25.454622 L42.8411303,39.9860346 Z" id="Fill-66" fill="#5800D4"></path>
                                <path d="M22.9570151,23.1271823 L22.9570151,2.10926595e-13 C10.1333734,0.847337644 -1.95572379e-12,11.1797215 -1.95572379e-12,23.808476 C-1.95572379e-12,29.8074554 2.29154632,35.2860496 6.06658597,39.479943 L22.9570151,23.1271823 Z" id="Fill-67" fill="#7556E8" opacity="0.784598214"></path>
                                <path d="M24.1596349,26.6188981 L8.47067621,41.8076394 C12.8026889,45.461462 18.4617121,47.679946 24.6573743,47.679946 C30.6010726,47.679946 36.0479155,45.6394885 40.303897,42.2484261 L24.1596349,26.6188981 Z" id="Fill-68" fill="#4600A8"></path>
                            </g>
                        </g>
                    </g>
                    <g id="add-page" transform="translate(283.000000, 362.000000)">
                        <mask id="mask-14" fill="white">
                            <use xlink:href="#path-13"></use>
                        </mask>
                        <g id="Oval">
                            <use fill="black" fill-opacity="1" filter="url(#filter-15)" xlink:href="#path-13"></use>
                            <use fill="url(#linearGradient-12)" fill-rule="evenodd" xlink:href="#path-13"></use>
                        </g>
                        <path d="M33.4855,19 C25.4815,19 19,25.496 19,33.5 C19,41.504 25.4815,48 33.4855,48 C41.504,48 48,41.504 48,33.5 C48,25.496 41.504,19 33.4855,19 Z M43.534,27.7 L39.2565,27.7 C38.7925,25.8875 38.1255,24.1475 37.2555,22.538 C39.9235,23.4515 42.142,25.3075 43.534,27.7 Z M33.5,21.958 C34.7035,23.698 35.646,25.6265 36.2695,27.7 L30.7305,27.7 C31.354,25.6265 32.2965,23.698 33.5,21.958 Z M22.277,36.4 C22.045,35.472 21.9,34.5005 21.9,33.5 C21.9,32.4995 22.045,31.528 22.277,30.6 L27.178,30.6 C27.062,31.557 26.975,32.514 26.975,33.5 C26.975,34.486 27.062,35.443 27.178,36.4 L22.277,36.4 Z M23.466,39.3 L27.7435,39.3 C28.2075,41.1125 28.8745,42.8525 29.7445,44.462 C27.0765,43.5485 24.858,41.707 23.466,39.3 L23.466,39.3 Z M27.7435,27.7 L23.466,27.7 C24.858,25.293 27.0765,23.4515 29.7445,22.538 C28.8745,24.1475 28.2075,25.8875 27.7435,27.7 L27.7435,27.7 Z M33.5,45.042 C32.2965,43.302 31.354,41.3735 30.7305,39.3 L36.2695,39.3 C35.646,41.3735 34.7035,43.302 33.5,45.042 Z M36.893,36.4 L30.107,36.4 C29.9765,35.443 29.875,34.486 29.875,33.5 C29.875,32.514 29.9765,31.5425 30.107,30.6 L36.893,30.6 C37.0235,31.5425 37.125,32.514 37.125,33.5 C37.125,34.486 37.0235,35.443 36.893,36.4 Z M37.2555,44.462 C38.1255,42.8525 38.7925,41.1125 39.2565,39.3 L43.534,39.3 C42.142,41.6925 39.9235,43.5485 37.2555,44.462 L37.2555,44.462 Z M39.822,36.4 C39.938,35.443 40.025,34.486 40.025,33.5 C40.025,32.514 39.938,31.557 39.822,30.6 L44.723,30.6 C44.955,31.528 45.1,32.4995 45.1,33.5 C45.1,34.5005 44.955,35.472 44.723,36.4 L39.822,36.4 Z" id="Shape" fill="#4C6884" fill-rule="nonzero" mask="url(#mask-14)"></path>
                    </g>
                    <g id="Group-14" transform="translate(167.000000, 41.000000)" stroke-linecap="round" stroke-linejoin="round" stroke-width="2.5">
                        <g id="Group-11">
                            <polygon id="Stroke-1" stroke="#4C6884" points="0.00589333333 3.65368571 38.99376 3.65368571 38.99376 41.000502 0.00589333333 41.000502 0.00589333333 12.1708082"></polygon>
                            <line x1="39" y1="13.5482408" x2="0" y2="13.5482408" id="Stroke-3" stroke="#4C6884"></line>
                            <line x1="9.96666667" y1="0.160485714" x2="9.96666667" y2="7.69109796" id="Stroke-5" stroke="#323B47"></line>
                            <line x1="9.96666667" y1="0.160485714" x2="9.96666667" y2="7.69109796" id="Stroke-7" stroke="#4C6884"></line>
                            <line x1="29.0333333" y1="0.160485714" x2="29.0333333" y2="7.69109796" id="Stroke-9" stroke="#4C6884"></line>
                        </g>
                        <line x1="19.9875" y1="20.9767442" x2="19.9875" y2="33.372093" id="Stroke-12" stroke="#4C6884"></line>
                        <line x1="26.325" y1="27.1744186" x2="13.65" y2="27.1744186" id="Stroke-13" stroke="#4C6884"></line>
                    </g>
                </g>
                <g id="Group-3" transform="translate(130.000000, 334.000000)"></g>
            </g>
        </g>
    </g>
</svg>