<svg xmlns="http://www.w3.org/2000/svg" xmlns:xlink="http://www.w3.org/1999/xlink" width="425.914" height="458.077" viewBox="0 0 425.914 458.077">
  <defs>
    <filter id="Rectangle" x="0" y="27" width="256.503" height="296.948" filterUnits="userSpaceOnUse">
      <feOffset dx="10" dy="30" input="SourceAlpha"/>
      <feGaussianBlur stdDeviation="20" result="blur"/>
      <feFlood flood-opacity="0.259"/>
      <feComposite operator="in" in2="blur"/>
      <feComposite in="SourceGraphic"/>
    </filter>
    <clipPath id="clip-path">
      <path id="Clip_2" data-name="Clip 2" d="M0,0H24.947V30.569H0Z" transform="translate(0 0)" fill="none"/>
    </clipPath>
    <linearGradient id="linear-gradient" x1="1" y1="0.5" x2="0" y2="0.5" gradientUnits="objectBoundingBox">
      <stop offset="0" stop-color="#7556e8"/>
      <stop offset="0.988" stop-color="#6d06ff"/>
    </linearGradient>
    <linearGradient id="linear-gradient-3" x1="0.5" x2="0.5" y2="1" gradientUnits="objectBoundingBox">
      <stop offset="0" stop-color="#80d7fc"/>
      <stop offset="1" stop-color="#49aef7"/>
    </linearGradient>
    <linearGradient id="linear-gradient-4" x1="0.5" x2="0.5" y2="1" gradientUnits="objectBoundingBox">
      <stop offset="0" stop-color="#ffc414"/>
      <stop offset="1" stop-color="#ffb20b"/>
    </linearGradient>
  </defs>
  <g id="image" transform="translate(24 0)">
    <g id="Background" transform="translate(0 0)">
      <path id="Path" d="M233.738,270.324,233.764,0,0,135.187Z" transform="matrix(-0.259, -0.966, 0.966, -0.259, 60.577, 443.044)" fill="#4c6884" opacity="0"/>
      <path id="Path-2" data-name="Path" d="M34.658,50,50,0,0,10.452Z" transform="translate(215 62)" fill="#4c6884" opacity="0"/>
      <path id="Path-3" data-name="Path" d="M20.1,29,29,0,0,6.062Z" transform="translate(147.923 451.061) rotate(-76)" fill="#4c6884" opacity="0"/>
      <path id="cloud" d="M37.916,100a37.846,37.846,0,0,1-2.857-75.59l-.035,0,.191-.248A23.684,23.684,0,0,1,66.04,18.45l.1.06.274-.438a38.76,38.76,0,0,1,71.522,19.575v.069l.539.023A31.183,31.183,0,0,1,168,68.334l0,.513A31.184,31.184,0,0,1,136.949,100Z" transform="translate(66)" fill="#c9d8e6"/>
      <g id="code" transform="translate(271 118)">
        <path id="Shape" d="M91.886,4.44a.046.046,0,0,1-.027-.008.022.022,0,0,1-.01-.021V.028a.022.022,0,0,1,.01-.021A.045.045,0,0,1,91.886,0h9.594a.053.053,0,0,1,.028.007.025.025,0,0,1,.011.021V4.413a.026.026,0,0,1-.012.02.045.045,0,0,1-.027.007Zm-11.024,0a.046.046,0,0,1-.027-.008.022.022,0,0,1-.01-.021V.028a.022.022,0,0,1,.01-.021A.045.045,0,0,1,80.862,0h5.921a.043.043,0,0,1,.027.007.025.025,0,0,1,.011.021V4.413a.026.026,0,0,1-.012.02.047.047,0,0,1-.026.007Zm-5.106,0h0Zm-24.282,0a.047.047,0,0,1-.028-.008.027.027,0,0,1-.01-.021V.028a.023.023,0,0,1,.011-.021A.042.042,0,0,1,51.475,0H75.757a.056.056,0,0,1,.028.007A.025.025,0,0,1,75.8.028V4.413a.026.026,0,0,1-.012.02.045.045,0,0,1-.027.007Zm-11.025,0a.046.046,0,0,1-.027-.008.022.022,0,0,1-.01-.021V.028a.022.022,0,0,1,.01-.021A.045.045,0,0,1,40.45,0h5.922A.045.045,0,0,1,46.4.007a.022.022,0,0,1,.01.021V4.413a.025.025,0,0,1-.011.02.052.052,0,0,1-.026.007Zm-29.395,0c-.021,0-.036-.014-.037-.029V.028A.035.035,0,0,1,11.055,0H35.347a.045.045,0,0,1,.027.007.022.022,0,0,1,.01.021V4.413a.025.025,0,0,1-.011.02.049.049,0,0,1-.026.007ZM.037,4.44A.046.046,0,0,1,.01,4.432.022.022,0,0,1,0,4.411V.028A.022.022,0,0,1,.01.007.045.045,0,0,1,.037,0H5.959A.035.035,0,0,1,6,.028V4.413a.037.037,0,0,1-.037.027Z" transform="translate(29.395 0)" fill="#fff" opacity="0.5"/>
        <rect id="Rectangle-2" data-name="Rectangle" width="57.432" height="4.439" transform="translate(10.002 15.68)" fill="#4c6884"/>
        <path id="Path-4" data-name="Path" d="M24.329,4.44H.037A.044.044,0,0,1,0,4.411V.028A.036.036,0,0,1,.037,0H24.329a.042.042,0,0,1,.027.007.022.022,0,0,1,.01.02V4.411a.036.036,0,0,1-.037.028Z" transform="translate(20 31.362)" fill="rgba(50,59,71,0.8)" opacity="0.987"/>
        <rect id="Rectangle-3" data-name="Rectangle" width="57.432" height="4.439" transform="translate(20.002 47.039)" fill="#323b47"/>
        <path id="Path-5" data-name="Path" d="M24.329,4.44H.037A.037.037,0,0,1,0,4.412V.028A.036.036,0,0,1,.037,0H24.329a.042.042,0,0,1,.027.007.022.022,0,0,1,.01.02V4.412a.024.024,0,0,1-.011.02.044.044,0,0,1-.027.008Z" transform="translate(40 62.717)" fill="rgba(50,59,71,0.8)"/>
        <rect id="Rectangle-4" data-name="Rectangle" width="24.365" height="4.439" rx="0.031" transform="translate(0 0)" fill="#ffc414"/>
        <rect id="Rectangle_Copy" data-name="Rectangle Copy" width="20" height="4.439" rx="0.031" transform="translate(12 76)" fill="#4c6884"/>
        <path id="Path-6" data-name="Path" d="M.036,0H16.982c.021,0,.038.013.038.028V4.412c0,.015-.017.028-.037.028H.037C.017,4.439,0,4.427,0,4.412V.028C0,.012.017,0,.037,0Z" transform="translate(60.414 31.362)" fill="#323b47" opacity="0.987"/>
        <path id="Path-7" data-name="Path" d="M.037,0h5.92C5.979,0,6,.013,6,.028V4.412c0,.015-.017.028-.037.028H.037C.017,4.439,0,4.427,0,4.412V.028C0,.012.017,0,.037,0Z" transform="translate(49.395 31.362)" fill="#323b47" opacity="0.987"/>
        <rect id="Rectangle-5" data-name="Rectangle" width="5.996" height="4.439" rx="0.031" transform="translate(80.412 62.717)" fill="#323b47"/>
        <rect id="Rectangle-6" data-name="Rectangle" width="5.996" height="4.439" rx="0.031" transform="translate(69.395 62.717)" fill="#323b47"/>
      </g>
    </g>
    <g id="Foreground" transform="translate(26 57)">
      <g id="login">
        <g id="Group_29" data-name="Group 29">
          <g id="Group_24_Copy" data-name="Group 24 Copy">
            <g transform="matrix(1, 0, 0, 1, -50, -57)" filter="url(#Rectangle)">
              <rect id="Rectangle-7" data-name="Rectangle" width="136.503" height="176.948" rx="8" transform="translate(50 57)" fill="#2a3846"/>
            </g>
          </g>
          <circle id="Oval" cx="31.598" cy="31.598" r="31.598" transform="translate(36.654 25.278)" fill="#e9f0f5" opacity="0.133"/>
          <g id="Group_3" data-name="Group 3" transform="translate(55.612 39.181)">
            <path id="Clip_2-2" data-name="Clip 2" d="M0,0H24.947V30.569H0Z" transform="translate(0 0)" fill="none"/>
            <g id="Group_3-2" data-name="Group 3" clip-path="url(#clip-path)">
              <path id="Fill_1" data-name="Fill 1" d="M23.131,30.569H1.817A1.819,1.819,0,0,1,0,28.752V13.366a1.818,1.818,0,0,1,1.817-1.814H3.928V8.545a8.545,8.545,0,0,1,17.09,0v.592H18.31V8.545a5.836,5.836,0,1,0-11.672,0v3.007H23.131a1.817,1.817,0,0,1,1.816,1.814V28.752A1.818,1.818,0,0,1,23.131,30.569ZM12.474,15.618a2.6,2.6,0,0,0-1.351,4.823l-.649,5.239h4l-.648-5.239a2.6,2.6,0,0,0-1.351-4.823Z" transform="translate(0 0)" fill="rgba(255,255,255,0.6)"/>
            </g>
          </g>
          <g id="Group_27" data-name="Group 27" transform="translate(17.695 107.433)">
            <g id="Group_3-3" data-name="Group 3" transform="translate(0 0.149)">
              <path id="Fill_1-2" data-name="Fill 1" d="M92.47,16.711H8.356A8.356,8.356,0,1,1,8.356,0H92.47a8.356,8.356,0,0,1,0,16.711" transform="translate(0 0.599)" fill="url(#linear-gradient)"/>
            </g>
            <g id="Group_6" data-name="Group 6" transform="translate(0 23.368)">
              <path id="Fill_4" data-name="Fill 4" d="M8.356,16.711A8.356,8.356,0,1,1,8.356,0H92.47a8.356,8.356,0,0,1,0,16.711Z" transform="translate(0 0.515)" fill="url(#linear-gradient)"/>
            </g>
            <path id="Combined_Shape" data-name="Combined Shape" d="M25.851,2.208a2.208,2.208,0,1,1,2.208,2.209A2.209,2.209,0,0,1,25.851,2.208Zm-6.463,0A2.208,2.208,0,1,1,21.6,4.416,2.209,2.209,0,0,1,19.388,2.208Zm-6.463,0a2.208,2.208,0,1,1,2.209,2.209A2.209,2.209,0,0,1,12.925,2.208Zm-6.463,0A2.208,2.208,0,1,1,8.671,4.416,2.209,2.209,0,0,1,6.462,2.208ZM0,2.208A2.208,2.208,0,1,1,2.208,4.416,2.208,2.208,0,0,1,0,2.208Z" transform="translate(8.012 7.116)" fill="#fff"/>
            <path id="Combined_Shape-2" data-name="Combined Shape" d="M25.851,2.209a2.208,2.208,0,1,1,2.208,2.208A2.209,2.209,0,0,1,25.851,2.209Zm-6.463,0A2.208,2.208,0,1,1,21.6,4.416,2.209,2.209,0,0,1,19.388,2.209Zm-6.463,0a2.208,2.208,0,1,1,2.209,2.208A2.209,2.209,0,0,1,12.925,2.209Zm-6.463,0A2.208,2.208,0,1,1,8.671,4.416,2.209,2.209,0,0,1,6.462,2.209ZM0,2.209A2.208,2.208,0,1,1,2.208,4.416,2.208,2.208,0,0,1,0,2.209Z" transform="translate(8.012 30.031)" fill="#e9f0f5" opacity="0.758"/>
          </g>
        </g>
      </g>
      <g id="gears" transform="translate(170.02 157)">
        <path id="Combined_Shape-3" data-name="Combined Shape" d="M33.8,60H26.232a2,2,0,0,1-1.97-1.641l-.646-3.552a1.984,1.984,0,0,0-1.348-1.515,24.356,24.356,0,0,1-3.262-1.354,2.049,2.049,0,0,0-2.072.17l-2.91,2.011a1.994,1.994,0,0,1-2.552-.229L6.114,48.539a2,2,0,0,1-.229-2.554L7.9,43.08a2.038,2.038,0,0,0,.171-2.074A24.276,24.276,0,0,1,6.715,37.75,1.989,1.989,0,0,0,5.2,36.4l-3.555-.645A2,2,0,0,1,0,33.785V26.214a2,2,0,0,1,1.642-1.966L5.2,23.6a1.989,1.989,0,0,0,1.518-1.351,24.374,24.374,0,0,1,1.352-3.26,2.03,2.03,0,0,0-.171-2.07l-2.011-2.9a2,2,0,0,1,.229-2.554L11.472,6.11a2,2,0,0,1,2.552-.23l2.91,2.014a2.039,2.039,0,0,0,1.174.37,2.062,2.062,0,0,0,.882-.2A24.365,24.365,0,0,1,22.253,6.71,1.987,1.987,0,0,0,23.6,5.2l.645-3.552A2,2,0,0,1,26.218,0h7.576a2,2,0,0,1,1.966,1.643L36.41,5.2A1.976,1.976,0,0,0,37.758,6.71,24.324,24.324,0,0,1,41.02,8.064a2.049,2.049,0,0,0,2.072-.17L46,5.88a2,2,0,0,1,2.553.23l5.358,5.354a2,2,0,0,1,.23,2.554l-2.015,2.9a2.048,2.048,0,0,0-.17,2.07,24.628,24.628,0,0,1,1.354,3.26A1.984,1.984,0,0,0,54.83,23.6l3.552.645a2,2,0,0,1,1.644,1.966v7.571a2,2,0,0,1-1.644,1.969L54.83,36.4a1.984,1.984,0,0,0-1.518,1.351,24.527,24.527,0,0,1-1.354,3.256,2.053,2.053,0,0,0,.17,2.074l2.015,2.9a2,2,0,0,1-.23,2.554L48.554,53.89A2,2,0,0,1,46,54.12l-2.909-2.011a2.049,2.049,0,0,0-2.072-.17,24.322,24.322,0,0,1-3.262,1.354,1.976,1.976,0,0,0-1.348,1.515l-.649,3.552A2,2,0,0,1,33.8,60ZM30.139,16.8A13.333,13.333,0,1,0,43.478,30.133,13.351,13.351,0,0,0,30.139,16.8Z" transform="translate(45 104)" fill="#2a3846"/>
        <path id="Combined_Shape-4" data-name="Combined Shape" d="M56.327,100H43.721a3.333,3.333,0,0,1-3.284-2.733l-1.076-5.921a3.309,3.309,0,0,0-2.247-2.524,40.447,40.447,0,0,1-5.436-2.256,3.438,3.438,0,0,0-1.485-.339,3.4,3.4,0,0,0-1.968.624L23.375,90.2a3.324,3.324,0,0,1-4.255-.383L10.19,80.9a3.334,3.334,0,0,1-.383-4.258L13.16,71.8a3.394,3.394,0,0,0,.284-3.455,40.715,40.715,0,0,1-2.253-5.428,3.315,3.315,0,0,0-2.531-2.251L2.736,59.591A3.33,3.33,0,0,1,0,56.309V43.691a3.329,3.329,0,0,1,2.736-3.276l5.925-1.076a3.317,3.317,0,0,0,2.531-2.251,40.78,40.78,0,0,1,2.253-5.433A3.385,3.385,0,0,0,13.16,28.2l-3.353-4.84a3.332,3.332,0,0,1,.383-4.257l8.93-8.924A3.338,3.338,0,0,1,23.375,9.8l4.849,3.356a3.415,3.415,0,0,0,3.428.284,40.538,40.538,0,0,1,5.436-2.255A3.311,3.311,0,0,0,39.335,8.66l1.076-5.921A3.336,3.336,0,0,1,43.7,0H56.323A3.332,3.332,0,0,1,59.6,2.739L60.682,8.66a3.293,3.293,0,0,0,2.247,2.524,40.5,40.5,0,0,1,5.437,2.255,3.415,3.415,0,0,0,3.453-.283L76.668,9.8a3.338,3.338,0,0,1,4.255.383l8.93,8.924a3.33,3.33,0,0,1,.383,4.257L86.879,28.2a3.414,3.414,0,0,0-.284,3.451,40.748,40.748,0,0,1,2.257,5.433,3.312,3.312,0,0,0,2.532,2.251L97.3,40.415a3.337,3.337,0,0,1,2.741,3.276V56.309A3.337,3.337,0,0,1,97.3,59.591l-5.919,1.076a3.309,3.309,0,0,0-2.532,2.251,40.681,40.681,0,0,1-2.257,5.428,3.418,3.418,0,0,0,.284,3.455l3.358,4.84a3.333,3.333,0,0,1-.383,4.258l-8.93,8.918a3.329,3.329,0,0,1-4.255.383L71.82,86.849a3.417,3.417,0,0,0-3.453-.284,40.511,40.511,0,0,1-5.437,2.256,3.293,3.293,0,0,0-2.247,2.524L59.6,97.267A3.326,3.326,0,0,1,56.327,100ZM50.232,28A22.222,22.222,0,1,0,72.464,50.222,22.252,22.252,0,0,0,50.232,28Z" transform="translate(0 0)" fill="url(#linear-gradient-3)"/>
        <path id="Combined_Shape-5" data-name="Combined Shape" d="M16.9,30H13.117a1,1,0,0,1-.985-.82L11.808,27.4a.992.992,0,0,0-.674-.757A12.2,12.2,0,0,1,9.5,25.97a1.029,1.029,0,0,0-.445-.1,1.017,1.017,0,0,0-.59.188L7.013,27.06a1,1,0,0,1-1.277-.115L3.057,24.269a1,1,0,0,1-.115-1.277l1.006-1.452A1.019,1.019,0,0,0,4.033,20.5a12.3,12.3,0,0,1-.675-1.629A1,1,0,0,0,2.6,18.2L.821,17.878A1,1,0,0,1,0,16.893V13.108a1,1,0,0,1,.821-.984L2.6,11.8a1,1,0,0,0,.76-.675A12.243,12.243,0,0,1,4.033,9.5a1.016,1.016,0,0,0-.085-1.036L2.942,7.009a1,1,0,0,1,.115-1.277L5.736,3.055A1,1,0,0,1,7.013,2.94L8.467,3.946A1.024,1.024,0,0,0,9.5,4.032a12.154,12.154,0,0,1,1.631-.677A.992.992,0,0,0,11.8,2.6L12.124.822A1,1,0,0,1,13.109,0H16.9a1,1,0,0,1,.984.822L18.205,2.6a.989.989,0,0,0,.674.758,12.2,12.2,0,0,1,1.631.677,1.029,1.029,0,0,0,.445.1,1.017,1.017,0,0,0,.59-.188L23,2.94a1,1,0,0,1,1.277.114l2.678,2.678a1,1,0,0,1,.115,1.277L26.063,8.461A1.025,1.025,0,0,0,25.979,9.5a12.133,12.133,0,0,1,.677,1.63,1,1,0,0,0,.76.675l1.776.322a1,1,0,0,1,.823.984v3.785a1,1,0,0,1-.823.985l-1.776.322a1,1,0,0,0-.76.675,12.186,12.186,0,0,1-.677,1.629,1.027,1.027,0,0,0,.085,1.037l1.008,1.452a1,1,0,0,1-.115,1.277l-2.678,2.676A1,1,0,0,1,23,27.06l-1.454-1.005a1.017,1.017,0,0,0-.59-.188,1.028,1.028,0,0,0-.445.1,12.2,12.2,0,0,1-1.631.677.989.989,0,0,0-.674.757L17.88,29.18A1,1,0,0,1,16.9,30ZM15.07,8.4a6.667,6.667,0,1,0,6.67,6.667A6.676,6.676,0,0,0,15.07,8.4Z" transform="translate(101 75)" fill="url(#linear-gradient-4)"/>
      </g>
    </g>
  </g>
</svg>
