<svg id="image" xmlns="http://www.w3.org/2000/svg" xmlns:xlink="http://www.w3.org/1999/xlink" width="495" height="439" viewBox="0 0 495 439">
  <defs>
    <filter id="Fill_1" x="40" y="67.407" width="417.809" height="315.265" filterUnits="userSpaceOnUse">
      <feOffset dx="10" dy="30" input="SourceAlpha"/>
      <feGaussianBlur stdDeviation="20" result="blur"/>
      <feFlood flood-opacity="0.161"/>
      <feComposite operator="in" in2="blur"/>
      <feComposite in="SourceGraphic"/>
    </filter>
    <linearGradient id="linear-gradient" x1="0.5" x2="0.5" y2="1" gradientUnits="objectBoundingBox">
      <stop offset="0" stop-color="#ffc414"/>
      <stop offset="1" stop-color="#ffb20b"/>
    </linearGradient>
    <filter id="Oval" x="282" y="182" width="213" height="213" filterUnits="userSpaceOnUse">
      <feOffset dy="9" input="SourceAlpha"/>
      <feGaussianBlur stdDeviation="25" result="blur-2"/>
      <feFlood flood-opacity="0.518"/>
      <feComposite operator="in" in2="blur-2"/>
      <feComposite in="SourceGraphic"/>
    </filter>
  </defs>
  <g id="Background" transform="translate(0 0)">
    <path id="Path" d="M233.738,270.324,233.764,0,0,135.187Z" transform="translate(0)" fill="#4c6884" opacity="0"/>
    <path id="Path-2" data-name="Path" d="M103,60.712,4.374,0,0,115Z" transform="translate(204 289)" fill="#4c6884" opacity="0"/>
    <path id="Path-3" data-name="Path" d="M25.647,37,37,0,0,7.734Z" transform="translate(308 402)" fill="#4c6884" opacity="0"/>
    <g id="Group_22" data-name="Group 22" transform="translate(220 143)" opacity="0.191">
      <path id="Fill_1-2" data-name="Fill 1" d="M3.656,0,0,6.2H7.3A57.316,57.316,0,0,0,3.656,0" transform="translate(135.632 37.055)" fill="#ffc414"/>
      <path id="Fill_3" data-name="Fill 3" d="M0,6.047a13.883,13.883,0,0,0,7.053-.1L3.527,0,0,6.047" transform="translate(135.803 147.829)" fill="#fff" opacity="0.301"/>
      <path id="Fill_5" data-name="Fill 5" d="M3.574,0A41.243,41.243,0,0,0,0,6.208H7.158C5.943,4.1,4.9,2.3,3.574,0" transform="translate(77.629 147.895)" fill="#fff"/>
      <path id="Fill_7" data-name="Fill 7" d="M3.665,0,0,6.279H7.391L3.665,0" transform="translate(58.061 147.829)" fill="rgba(255,255,255,0.3)"/>
      <path id="Fill_37" data-name="Fill 37" d="M0,6.217H7.222C5.911,3.975,4.829,2.12,3.59,0A28.569,28.569,0,0,0,0,6.217" transform="translate(97.05 203.424)" fill="#fff"/>
      <path id="Fill_41" data-name="Fill 41" d="M.334,6.513c2.181-.155,4.386.26,6.852-.3L3.5,0C2.172,2.277,1.085,4.133,0,5.99c.112.174.222.349.334.523" transform="translate(116.429 92.415)" fill="#fff" opacity="0.301"/>
      <path id="Fill_43" data-name="Fill 43" d="M7.464,6.157A54.145,54.145,0,0,0,3.731,0L0,6.358a56.59,56.59,0,0,0,7.464-.2" transform="translate(96.723 92.547)" fill="rgba(255,255,255,0.3)"/>
      <path id="Fill_45" data-name="Fill 45" d="M0,5.975c.1.173.191.349.286.523,2.194-.089,4.4.233,6.885-.237L3.5,0,0,5.975" transform="translate(38.837 92.408)" fill="rgba(255,255,255,0.3)"/>
      <path id="Fill_47" data-name="Fill 47" d="M7.394,6.32,3.7,0C2.371,2.266,1.282,4.125,0,6.312a31.668,31.668,0,0,0,7.394.008" transform="translate(19.242 92.402)" fill="rgba(255,255,255,0.3)"/>
      <path id="Fill_100" data-name="Fill 100" d="M3.633,0A45.55,45.55,0,0,0,0,6.358,61.186,61.186,0,0,0,7.284,6.2C6,4.024,4.912,2.176,3.633,0" transform="translate(77.549 37.034)" fill="rgba(255,255,255,0.3)"/>
      <path id="Fill_134" data-name="Fill 134" d="M7.112,6.164C5.858,4.053,4.783,2.245,3.45,0,2.167,2.349.8,4.04,0,6.378a35.4,35.4,0,0,0,7.112-.214" transform="translate(116.473 147.846)" fill="#fff" opacity="0.301"/>
      <path id="Fill_136" data-name="Fill 136" d="M7.07,5.949C5.992,4.106,4.927,2.285,3.588,0,2.221,2.327,1.136,4.171,0,6.106a13.954,13.954,0,0,0,7.07-.157" transform="translate(96.956 147.812)" fill="rgba(255,255,255,0.3)"/>
      <path id="Fill_140" data-name="Fill 140" d="M3.358,0C2.182,2.387.7,4.03,0,6.327H7.021A58.843,58.843,0,0,0,3.358,0" transform="translate(0.107 92.428)" fill="#fff"/>
      <path id="Fill_142" data-name="Fill 142" d="M7.368,6.327,3.663,0C2.341,2.268,1.256,4.125,0,6.276a38.1,38.1,0,0,0,7.368.051" transform="translate(38.668 147.814)" fill="rgba(255,255,255,0.3)"/>
      <path id="Fill_146" data-name="Fill 146" d="M0,5.716a17.082,17.082,0,0,0,6.747-.052A13.606,13.606,0,0,0,3.221,0,46.7,46.7,0,0,0,0,5.716" transform="translate(58.266 92.901)" fill="rgba(255,255,255,0.3)"/>
      <path id="Fill_168" data-name="Fill 168" d="M7.109,5.984C6.016,4.128,4.942,2.306,3.583,0,2.24,2.273,1.141,4.132,0,6.06a13.447,13.447,0,0,0,7.109-.076" transform="translate(77.56 92.418)" fill="#ffc414"/>
      <path id="Fill_170" data-name="Fill 170" d="M7.186,6.151A51.635,51.635,0,0,0,3.439,0C2.206,2.23.955,3.978,0,6.151Z" transform="translate(97.002 37.102)" fill="rgba(255,255,255,0.3)"/>
      <path id="Fill_172" data-name="Fill 172" d="M3.664,0,0,6.274a38.418,38.418,0,0,0,7.373.053L3.664,0" transform="translate(116.269 36.954)" fill="#fff"/>
      <path id="Fill_176" data-name="Fill 176" d="M7.2,6.181C5.971,4.1,4.868,2.234,3.545,0A46.172,46.172,0,0,0,0,6.492c2.548-.119,4.714.253,7.2-.311" transform="translate(135.797 92.427)" fill="#fff" opacity="0.301"/>
      <path id="Fill_192" data-name="Fill 192" d="M3.667,0C2.343,2.289,1.264,4.154,0,6.336H7.349C6.087,4.162,4.985,2.266,3.667,0" transform="translate(116.259 18.461)" fill="#fff"/>
      <path id="Fill_194" data-name="Fill 194" d="M3.331,0A15.125,15.125,0,0,0,0,6.036H6.882C5.605,3.864,4.5,1.98,3.331,0" transform="translate(97.347 18.758)" fill="rgba(255,255,255,0.3)"/>
      <path id="Fill_212" data-name="Fill 212" d="M6.991,5.807A13.816,13.816,0,0,0,3.386,0L0,5.807Z" transform="translate(38.67 129.839)" fill="rgba(255,255,255,0.3)"/>
      <path id="Fill_214" data-name="Fill 214" d="M7.194,6.177A36.9,36.9,0,0,0,3.531,0c-.767,1.268-1.356,2.2-1.9,3.158C1.1,4.079.62,5.022,0,6.177Z" transform="translate(116.334 74.105)" fill="#fff"/>
      <path id="Fill_216" data-name="Fill 216" d="M6.889,5.891,3.447,0A36.443,36.443,0,0,0,0,6.134a14.489,14.489,0,0,0,6.889-.242" transform="translate(97.136 73.972)" fill="rgba(255,255,255,0.3)"/>
      <path id="Fill_218" data-name="Fill 218" d="M3.513,0A55.932,55.932,0,0,0,0,6.271H7.2C5.936,4.121,4.842,2.261,3.513,0" transform="translate(97.033 129.379)" fill="rgba(255,255,255,0.3)"/>
      <path id="Fill_220" data-name="Fill 220" d="M3.314,0C2.166,2.262.758,3.956,0,6.2H7.106A59.46,59.46,0,0,0,3.314,0" transform="translate(116.51 129.472)" fill="#fff" opacity="0.301"/>
      <path id="Fill_222" data-name="Fill 222" d="M3.518,0A57.177,57.177,0,0,0,0,6.278H7.214L3.518,0" transform="translate(19.421 129.384)" fill="rgba(255,255,255,0.3)"/>
      <path id="Fill_224" data-name="Fill 224" d="M3.533,0c-.767,1.269-1.356,2.2-1.9,3.158C1.1,4.079.622,5.023,0,6.178H7.2A36.955,36.955,0,0,0,3.533,0" transform="translate(38.729 74.104)" fill="rgba(255,255,255,0.3)"/>
      <path id="Fill_226" data-name="Fill 226" d="M7.173,6.038C5.8,3.808,4.936,1.813,3.373,0A34,34,0,0,0,0,6.038Z" transform="translate(19.477 74.205)" fill="rgba(255,255,255,0.3)"/>
      <path id="Fill_244" data-name="Fill 244" d="M3.533,0A57.765,57.765,0,0,0,0,6.263H7.221C5.956,4.114,4.86,2.254,3.533,0" transform="translate(116.409 184.814)" fill="#fff" opacity="0.301"/>
      <path id="Fill_246" data-name="Fill 246" d="M0,6.03H6.952C5.64,3.79,4.55,1.928,3.421,0A14.276,14.276,0,0,0,0,6.03" transform="translate(97.325 185.118)" fill="#fff"/>
      <path id="Fill_272" data-name="Fill 272" d="M6.852,6.3c-.8-2.278-2.126-4-3.425-6.3C2.13,2.33.777,4.043,0,6.3Z" transform="translate(135.914 73.923)" fill="#ffc414"/>
      <path id="Fill_274" data-name="Fill 274" d="M0,6.359H7.21L3.484,0A53.9,53.9,0,0,0,0,6.359" transform="translate(77.651 73.892)" fill="rgba(255,255,255,0.3)"/>
      <path id="Fill_276" data-name="Fill 276" d="M3.521,0A39.677,39.677,0,0,0,0,6.385c2.484,0,4.63.129,7.206-.106L3.521,0" transform="translate(58.242 73.953)" fill="rgba(255,255,255,0.3)"/>
      <path id="Fill_278" data-name="Fill 278" d="M3.343,0A47.453,47.453,0,0,0,0,6.08H7.2C5.857,3.9,4.976,1.888,3.343,0" transform="translate(0.051 74.159)" fill="#fff"/>
      <path id="Fill_290" data-name="Fill 290" d="M0,6.412a61.564,61.564,0,0,0,7.182-.15C5.924,4.091,4.872,2.275,3.554,0A42.74,42.74,0,0,0,0,6.412" transform="translate(135.823 18.502)" fill="#ffc414"/>
      <path id="Fill_324" data-name="Fill 324" d="M3.548,0A33.76,33.76,0,0,0,0,6.255H7.184C5.895,4.037,4.809,2.169,3.548,0" transform="translate(77.661 18.563)" fill="rgba(255,255,255,0.3)"/>
      <path id="Fill_336" data-name="Fill 336" d="M3.4,0A50.146,50.146,0,0,0,0,6.182H7.073A44.886,44.886,0,0,0,3.4,0" transform="translate(0.052 129.493)" fill="rgba(255,255,255,0.3)"/>
      <path id="Fill_338" data-name="Fill 338" d="M3.642,6.487C4.684,6.433,5.79,6.766,7,6.048,5.87,4.136,4.8,2.33,3.425,0,2.23,2.434.79,4.15,0,6.5c1.449,0,2.548.044,3.642-.013" transform="translate(58.264 129.296)" fill="rgba(255,255,255,0.3)"/>
      <path id="Fill_340" data-name="Fill 340" d="M3.269,0C1.316,2.3.1,4.595,0,6.052H6.814C5.488,3.786,4.4,1.938,3.269,0" transform="translate(78.039 129.637)" fill="#7556e8"/>
      <path id="Fill_342" data-name="Fill 342" d="M3.554,0A42.391,42.391,0,0,0,0,6.421c2.5-.163,4.658.231,7.135-.334C5.911,4.008,4.821,2.154,3.554,0" transform="translate(135.811 129.404)" fill="#fff" opacity="0.301"/>
      <path id="Fill_344" data-name="Fill 344" d="M3.512,0C2.2,2.29.871,4.045,0,6.385c2.523-.067,4.673.238,7.133-.253C5.934,4.1,4.871,2.3,3.512,0" transform="translate(135.839 110.891)" fill="#fff" opacity="0.301"/>
      <path id="Fill_346" data-name="Fill 346" d="M5.8,6.191c.411,0,.822-.09,1.643-.186A45.563,45.563,0,0,0,3.659,0L0,6.2c2.3,0,4.048.009,5.8-.007" transform="translate(77.354 111.09)" fill="#7556e8"/>
      <path id="Fill_348" data-name="Fill 348" d="M7.368,6.256C6.1,4.1,5.007,2.255,3.676,0,2.363,2.234,1.279,4.077,0,6.256Z" transform="translate(58.061 110.871)" fill="rgba(255,255,255,0.3)"/>
      <path id="Fill_350" data-name="Fill 350" d="M3.558,0A44.649,44.649,0,0,0,0,6.391c1.472,0,2.564.013,3.654,0,1.055-.015,2.11-.06,3.592-.1C5.935,4.048,4.851,2.2,3.558,0" transform="translate(0 110.899)" fill="rgba(255,255,255,0.3)"/>
      <path id="Fill_376" data-name="Fill 376" d="M0,6.258H7.2C5.938,4.1,4.852,2.252,3.532,0A58.134,58.134,0,0,0,0,6.258" transform="translate(77.622 0.023)" fill="rgba(255,255,255,0.3)"/>
      <path id="Fill_390" data-name="Fill 390" d="M7.381,6.068C6.156,3.952,5.164,2.051,3.712,0,2.426,2.2,1.367,4.009,0,6.344c2.738-.144,4.943.215,7.381-.276" transform="translate(116.159 0.112)" fill="#fff"/>
      <path id="Fill_392" data-name="Fill 392" d="M0,6.269H7.339L3.661,0C2.322,2.294,1.244,4.139,0,6.269" transform="translate(96.879 0)" fill="rgba(255,255,255,0.3)"/>
      <path id="Fill_426" data-name="Fill 426" d="M0,6.286H7.329L3.663,0,0,6.286" transform="translate(38.675 55.425)" fill="rgba(255,255,255,0.3)"/>
      <path id="Fill_430" data-name="Fill 430" d="M0,6.283H7.32C6.068,4.124,4.99,2.26,3.681,0L0,6.283" transform="translate(77.469 55.418)" fill="rgba(255,255,255,0.3)"/>
      <path id="Fill_432" data-name="Fill 432" d="M3.688,0,0,6.285H7.353C6.07,4.087,4.991,2.234,3.688,0" transform="translate(96.857 55.433)" fill="rgba(255,255,255,0.3)"/>
      <path id="Fill_434" data-name="Fill 434" d="M3.531,0C2.229,2.164,1.087,4,0,6.083H7.126A34.59,34.59,0,0,0,3.531,0" transform="translate(116.333 55.629)" fill="#fff"/>
      <path id="Fill_436" data-name="Fill 436" d="M3.236,0C2.234,1.932.919,3.661,0,5.881H6.85A14.218,14.218,0,0,0,3.236,0" transform="translate(135.815 55.88)" fill="#ffc414"/>
      <path id="Fill_450" data-name="Fill 450" d="M3.6,0A49.611,49.611,0,0,0,0,6.185H7.234C5.982,4.055,4.9,2.214,3.6,0" transform="translate(19.392 110.958)" fill="rgba(255,255,255,0.3)"/>
      <path id="Fill_452" data-name="Fill 452" d="M0,6.044H6.9L3.326,0C1.211,2.778.279,4.515,0,6.044" transform="translate(39.127 111.103)" fill="rgba(255,255,255,0.3)"/>
      <path id="Fill_454" data-name="Fill 454" d="M3.416,0C2.339,1.819,1.275,3.619,0,5.771H7.021A13.008,13.008,0,0,0,3.416,0" transform="translate(96.831 111.386)" fill="rgba(255,255,255,0.3)"/>
      <path id="Fill_456" data-name="Fill 456" d="M3.645,0A29.589,29.589,0,0,0,0,6.031H7.215C5.973,3.932,4.906,2.132,3.645,0" transform="translate(116.418 111.091)" fill="#fff" opacity="0.301"/>
      <path id="Fill_458" data-name="Fill 458" d="M0,6.147H7.18L3.558,0A50.6,50.6,0,0,0,0,6.147" transform="translate(135.826 166.402)" fill="#fff" opacity="0.301"/>
      <path id="Fill_490" data-name="Fill 490" d="M3.6,0,0,6.1H7.143A35.745,35.745,0,0,0,3.6,0" transform="translate(77.468 166.456)" fill="#fff"/>
      <path id="Fill_492" data-name="Fill 492" d="M7.364,6.181,3.747,0C2.391,2.3,1.312,4.134,0,6.358a45.981,45.981,0,0,0,7.364-.177" transform="translate(96.804 166.321)" fill="rgba(255,255,255,0.3)"/>
      <path id="Fill_494" data-name="Fill 494" d="M7.193,5.965A29.675,29.675,0,0,0,3.553,0L0,6.065a35.685,35.685,0,0,0,7.193-.1" transform="translate(116.25 166.545)" fill="#fff" opacity="0.301"/>
      <path id="Fill_17" data-name="Fill 17" d="M3.565,0A40.551,40.551,0,0,0,0,6.209H7.185C5.924,4.047,4.842,2.192,3.565,0" transform="translate(213.183 147.903)" fill="#ffc414"/>
      <path id="Fill_19" data-name="Fill 19" d="M0,6.273a54.065,54.065,0,0,0,7.461.113L3.679,0,0,6.273" transform="translate(193.603 147.829)" fill="#fff"/>
      <path id="Fill_57" data-name="Fill 57" d="M6.882,5.952C5.6,3.788,4.5,1.941,3.345,0,1.42,2.324.209,4.575,0,6.221c1.839,0,3.657.01,5.475-.008a10.384,10.384,0,0,0,1.408-.261" transform="translate(174.686 92.689)" fill="#fff"/>
      <path id="Fill_59" data-name="Fill 59" d="M7.229,5.9A14.627,14.627,0,0,0,3.527,0L0,5.961A60.711,60.711,0,0,0,7.229,5.9" transform="translate(154.687 92.89)" fill="#fff" opacity="0.301"/>
      <path id="Fill_114" data-name="Fill 114" d="M7.36,6.229C6.1,4.1,5.032,2.3,3.676,0,2.338,2.282,1.255,4.13,0,6.275a31.218,31.218,0,0,0,7.36-.046" transform="translate(193.607 36.964)" fill="rgba(255,255,255,0.3)"/>
      <path id="Fill_120" data-name="Fill 120" d="M3.5,0C2.223,2.331.833,4.081,0,6.5a67.145,67.145,0,0,0,7.239-.189C5.924,4.092,4.819,2.226,3.5,0" transform="translate(193.781 92.415)" fill="#fff"/>
      <path id="Fill_148" data-name="Fill 148" d="M3.486,0,0,5.889a44.9,44.9,0,0,0,7.1-.105A13.62,13.62,0,0,0,3.486,0" transform="translate(154.718 37.458)" fill="#fff"/>
      <path id="Fill_150" data-name="Fill 150" d="M7.348,6.057A53.967,53.967,0,0,0,3.625,0L0,6.177a35.11,35.11,0,0,0,7.348-.12" transform="translate(174.164 37.126)" fill="rgba(255,255,255,0.3)"/>
      <path id="Fill_184" data-name="Fill 184" d="M3.681,0C2.352,2.279,1.269,4.134,0,6.307a37.91,37.91,0,0,0,7.365,0L3.681,0" transform="translate(174.204 147.809)" fill="#fff"/>
      <path id="Fill_188" data-name="Fill 188" d="M3.674,0C2.341,2.283,1.254,4.14,0,6.283a37.813,37.813,0,0,0,7.367.048C6.09,4.141,5.008,2.285,3.674,0" transform="translate(154.818 147.808)" fill="#fff" opacity="0.301"/>
      <path id="Fill_208" data-name="Fill 208" d="M7.316,6.246C6.09,4.143,5.006,2.286,3.671,0,2.312,2.344,1.233,4.2,0,6.331a33.54,33.54,0,0,0,7.316-.085" transform="translate(174.205 18.465)" fill="rgba(255,255,255,0.3)"/>
      <path id="Fill_210" data-name="Fill 210" d="M0,6.254H7.17C5.921,4.106,4.837,2.241,3.536,0A43.4,43.4,0,0,0,0,6.254" transform="translate(154.991 18.527)" fill="#fff"/>
      <path id="Fill_238" data-name="Fill 238" d="M3.584,0C2.2,2.324,1,4.124,0,6.248H7.266C6,4.1,4.9,2.239,3.584,0" transform="translate(174.309 73.962)" fill="#fff"/>
      <path id="Fill_240" data-name="Fill 240" d="M6.916,6.025C5.617,3.8,4.53,1.938,3.4,0A13.734,13.734,0,0,0,0,6.125c2.185-.038,4.35.082,6.916-.1" transform="translate(155.286 74.239)" fill="#fff"/>
      <path id="Fill_264" data-name="Fill 264" d="M0,6.388a59.056,59.056,0,0,0,7.449-.142C6.17,4.069,5.077,2.216,3.775,0,2.426,2.281,1.329,4.137,0,6.388" transform="translate(154.72 129.375)" fill="#fff" opacity="0.301"/>
      <path id="Fill_266" data-name="Fill 266" d="M7.178,6.185,3.546,0A49.633,49.633,0,0,0,0,6.185Z" transform="translate(174.374 129.442)" fill="#fff"/>
      <path id="Fill_288" data-name="Fill 288" d="M3.537,0A59.051,59.051,0,0,0,0,6.124H7.092A43.157,43.157,0,0,0,3.537,0" transform="translate(193.729 74.075)" fill="#fff"/>
      <path id="Fill_300" data-name="Fill 300" d="M7.186,6.276,3.514,0A40.783,40.783,0,0,0,0,6.457c2.5-.087,4.655.122,7.186-.181" transform="translate(193.789 18.492)" fill="rgba(255,255,255,0.3)"/>
      <path id="Fill_326" data-name="Fill 326" d="M7.448,6.266,3.763,0C2.44,2.258,1.352,4.119,0,6.428a64.843,64.843,0,0,0,7.448-.163" transform="translate(193.521 129.354)" fill="#fff"/>
      <path id="Fill_328" data-name="Fill 328" d="M0,6.379a70.539,70.539,0,0,0,7.179-.12C5.874,4.032,4.79,2.181,3.513,0,2.181,2.276.839,4.037,0,6.379" transform="translate(213.204 129.394)" fill="#ffc414"/>
      <path id="Fill_358" data-name="Fill 358" d="M7.359,6.122,3.782,0C2.428,2.291,1.338,4.135,0,6.4c2.709-.083,4.895.284,7.359-.276" transform="translate(212.912 110.871)" fill="#ffc414"/>
      <path id="Fill_360" data-name="Fill 360" d="M0,6.14H7.2C5.921,3.975,4.916,2.04,3.484,0A51.145,51.145,0,0,0,0,6.14" transform="translate(193.773 111.014)" fill="#fff"/>
      <path id="Fill_380" data-name="Fill 380" d="M3.521,0A71.4,71.4,0,0,0,0,6.3H7.187C5.945,4.164,4.86,2.3,3.521,0" transform="translate(154.969 55.423)" fill="#fff"/>
      <path id="Fill_382" data-name="Fill 382" d="M3.664,0C2.331,2.288,1.247,4.148,0,6.286H7.33C6.052,4.1,4.971,2.241,3.664,0" transform="translate(174.224 55.424)" fill="rgba(255,255,255,0.3)"/>
      <path id="Fill_384" data-name="Fill 384" d="M7.344,6.171C6.117,4.076,5.029,2.218,3.73,0,2.417,2.267,1.339,4.129,0,6.443c2.684-.1,4.863.241,7.344-.273" transform="translate(193.55 55.416)" fill="rgba(255,255,255,0.3)"/>
      <path id="Fill_438" data-name="Fill 438" d="M3.447,0A57.46,57.46,0,0,0,0,6.087H7.264A59.364,59.364,0,0,0,3.447,0" transform="translate(154.947 111.08)" fill="#fff" opacity="0.301"/>
      <path id="Fill_440" data-name="Fill 440" d="M7.209,6.174C5.963,4.045,4.883,2.2,3.6,0A49.568,49.568,0,0,0,0,6.174Z" transform="translate(174.346 110.962)" fill="#fff"/>
      <path id="Fill_460" data-name="Fill 460" d="M7.309,6.246,3.657,0,0,6.246Z" transform="translate(154.835 166.311)" fill="#fff" opacity="0.301"/>
      <path id="Fill_464" data-name="Fill 464" d="M3.585,0A45.992,45.992,0,0,0,0,6.156H7.224L3.585,0" transform="translate(193.76 166.43)" fill="#fff"/>
    </g>
    <path id="_" data-name="{…}" d="M31.356,25V23.182H32.81a1.7,1.7,0,0,0,1.342-.573,2.447,2.447,0,0,0,.5-1.664V15.436a3.046,3.046,0,0,1,.616-1.985,2.786,2.786,0,0,1,1.454-.978,2.651,2.651,0,0,1-1.454-.937,3.033,3.033,0,0,1-.616-2V4.055a2.5,2.5,0,0,0-.5-1.678A1.679,1.679,0,0,0,32.81,1.79H31.356V0h1.65a4.011,4.011,0,0,1,2.852.993A3.658,3.658,0,0,1,36.921,3.8V9.144a3.067,3.067,0,0,0,.434,1.832,2.483,2.483,0,0,0,1.552.8l.755.2V13l-.755.2a2.479,2.479,0,0,0-1.552.8,3.063,3.063,0,0,0-.434,1.832V21.2a3.76,3.76,0,0,1-1.007,2.824A4,4,0,0,1,33.006,25Zm-24.7,0a4,4,0,0,1-2.908-.979A3.76,3.76,0,0,1,2.74,21.2V15.827a3.071,3.071,0,0,0-.434-1.817A2.41,2.41,0,0,0,.783,13.2L0,13V11.969l.783-.2a2.414,2.414,0,0,0,1.524-.811A3.073,3.073,0,0,0,2.74,9.144V3.8A3.658,3.658,0,0,1,3.8.993,4.011,4.011,0,0,1,6.655,0h1.65V1.79H6.88a1.71,1.71,0,0,0-1.371.587,2.5,2.5,0,0,0-.5,1.678V9.536a3.084,3.084,0,0,1-.6,2,2.592,2.592,0,0,1-1.469.937,2.716,2.716,0,0,1,1.469.978,3.1,3.1,0,0,1,.6,1.985v5.509a2.447,2.447,0,0,0,.5,1.664,1.729,1.729,0,0,0,1.371.573H8.305V25Zm18.181-5.09V17.03h2.88v2.881Zm-6.46,0V17.03h2.881v2.881Zm-6.459,0V17.03H14.8v2.881Z" transform="translate(180 334)" fill="#fff"/>
  </g>
  <g id="foreground" transform="translate(90 37)">
    <g id="dev_screen" data-name="dev screen" transform="translate(0 59)">
      <g id="Image-2" data-name="Image">
        <g id="bg" transform="translate(0 1.407)">
          <g transform="matrix(1, 0, 0, 1, -90, -97.41)" filter="url(#Fill_1)">
            <path id="Fill_1-3" data-name="Fill 1" d="M290.6,195.265H7.214A7.237,7.237,0,0,1,0,188.005V7.26A7.237,7.237,0,0,1,7.214,0H290.6a7.237,7.237,0,0,1,7.214,7.26V188.005a7.236,7.236,0,0,1-7.214,7.26" transform="translate(90 97.41)" fill="#2a3846"/>
          </g>
        </g>
        <g id="Dev_Side" data-name="Dev Side" transform="translate(7.713)">
          <g id="code" transform="translate(0.379 0.485)">
            <path id="Combined_Shape" data-name="Combined Shape" d="M0,168.371V163.5H4.755v4.873Zm0-12.577v-4.873H4.755v4.873Zm0-12.577v-4.874H4.755v4.874ZM0,130.64v-4.873H4.755v4.873Zm0-12.577v-4.873H4.755v4.873Zm0-12.577v-4.873H2.962v4.873ZM0,92.911V88.038H2.962v4.873ZM.006,80.334V75.461H2.968v4.873Zm0-12.577V62.884H2.968v4.873Zm0-12.577V50.307H2.968V55.18Zm0-12.577V37.731H2.968V42.6ZM0,30.027V25.153H2.962v4.874ZM0,17.449V12.577H2.962v4.873ZM0,4.873V0H2.962V4.873Z" transform="translate(0.077 12.893)" fill="#fff" opacity="0.75"/>
            <path id="Path-4" data-name="Path" d="M.3,194.652V0" transform="translate(10.558 0.346)" fill="none" stroke="#fff" stroke-miterlimit="10" stroke-width="2" opacity="0.15"/>
            <rect id="Rectangle" width="2.816" height="4.527" transform="translate(44.928 121.083) rotate(90)" fill="#e9eef1"/>
            <rect id="Rectangle-2" data-name="Rectangle" width="1.966" height="25.009" transform="translate(76.004 14.845) rotate(90)" fill="#ffc00e"/>
            <rect id="Rectangle-3" data-name="Rectangle" width="1.966" height="22.497" transform="translate(105.592 14.839) rotate(90)" fill="#8478f9"/>
            <rect id="Rectangle-4" data-name="Rectangle" width="1.966" height="35.94" transform="translate(153.945 14.995) rotate(90)" fill="#e9eef1"/>
            <rect id="Rectangle-5" data-name="Rectangle" width="1.966" height="26.178" transform="translate(52.063 86.271) rotate(90)" fill="#ffc00e"/>
            <rect id="Rectangle-6" data-name="Rectangle" width="1.966" height="35.484" transform="translate(96.793 86.265) rotate(90)" fill="#e9eef1"/>
            <rect id="Rectangle-7" data-name="Rectangle" width="1.966" height="23.384" transform="translate(129.351 86.265) rotate(90)" fill="#e9eef1"/>
            <rect id="Rectangle-8" data-name="Rectangle" width="1.966" height="51.757" transform="translate(77.647 54.948) rotate(90)" fill="#ffc414"/>
            <rect id="Rectangle-9" data-name="Rectangle" width="1.966" height="20.686" transform="translate(107.831 54.942) rotate(90)" fill="#acb2b6"/>
            <rect id="Rectangle-10" data-name="Rectangle" width="1.966" height="24.434" transform="translate(140.419 54.942) rotate(90)" fill="#acb2b6"/>
            <rect id="Rectangle-11" data-name="Rectangle" width="1.966" height="38.236" transform="translate(185.455 54.942) rotate(90)" fill="#acb2b6"/>
            <rect id="Rectangle-12" data-name="Rectangle" width="1.966" height="26.304" transform="translate(219.908 54.942) rotate(90)" fill="#acb2b6"/>
            <rect id="Rectangle-13" data-name="Rectangle" width="1.966" height="12.292" transform="translate(240.349 54.948) rotate(90)" fill="#acb2b6"/>
            <rect id="Rectangle-14" data-name="Rectangle" width="1.966" height="20.686" transform="translate(55.061 151.101) rotate(90)" fill="#acb2b6"/>
            <rect id="Rectangle-15" data-name="Rectangle" width="1.966" height="24.434" transform="translate(87.649 151.101) rotate(90)" fill="#acb2b6"/>
            <rect id="Rectangle-16" data-name="Rectangle" width="1.966" height="38.236" transform="translate(132.685 151.101) rotate(90)" fill="#acb2b6"/>
            <rect id="Rectangle-17" data-name="Rectangle" width="20.686" height="1.966" transform="translate(35.846 69.069)" fill="#acb2b6"/>
            <rect id="Rectangle-18" data-name="Rectangle" width="30.364" height="1.966" transform="translate(51.703 69.205)" fill="#acb2b6"/>
            <rect id="Rectangle-19" data-name="Rectangle" width="1.966" height="38.236" transform="translate(125.543 69.199) rotate(90)" fill="#acb2b6"/>
            <rect id="Rectangle-20" data-name="Rectangle" width="1.966" height="26.304" transform="translate(159.996 69.205) rotate(90)" fill="#acb2b6"/>
            <rect id="Rectangle-21" data-name="Rectangle" width="1.966" height="12.292" transform="translate(180.437 69.205) rotate(90)" fill="#acb2b6"/>
            <rect id="Rectangle-22" data-name="Rectangle" width="1.966" height="25.249" transform="translate(213.84 69.205) rotate(90)" fill="#acb2b6"/>
            <rect id="Rectangle-23" data-name="Rectangle" width="1.966" height="35.94" transform="translate(71.883 27.469) rotate(90)" fill="#e9eef1"/>
            <rect id="Rectangle-24" data-name="Rectangle" width="1.966" height="14.318" transform="translate(93.963 27.677) rotate(90)" fill="#e9eef1"/>
            <rect id="Rectangle-25" data-name="Rectangle" width="1.966" height="12.975" transform="translate(114.685 27.677) rotate(90)" fill="#e9eef1"/>
            <rect id="Rectangle-26" data-name="Rectangle" width="1.966" height="28.601" transform="translate(151.032 27.677) rotate(90)" fill="#e9eef1"/>
            <rect id="Rectangle-27" data-name="Rectangle" width="1.966" height="9.923" transform="translate(168.703 27.671) rotate(90)" fill="#e9eef1"/>
            <rect id="Rectangle-28" data-name="Rectangle" width="1.966" height="28.601" transform="translate(54.935 137.194) rotate(90)" fill="#ffc00e"/>
            <rect id="Rectangle-29" data-name="Rectangle" width="1.966" height="9.923" transform="translate(72.605 137.194) rotate(90)" fill="#e9eef1"/>
            <rect id="Rectangle-30" data-name="Rectangle" width="1.966" height="35.94" transform="translate(76.468 165.394) rotate(90)" fill="#e9eef1"/>
            <rect id="Rectangle-31" data-name="Rectangle" width="1.966" height="14.318" transform="translate(93.963 165.448) rotate(90)" fill="#e9eef1"/>
            <rect id="Rectangle-32" data-name="Rectangle" width="1.966" height="12.975" transform="translate(114.691 165.442) rotate(90)" fill="#e9eef1"/>
            <rect id="Rectangle-33" data-name="Rectangle" width="1.966" height="28.601" transform="translate(151.038 165.442) rotate(90)" fill="#8478f9"/>
            <rect id="Rectangle-34" data-name="Rectangle" width="1.966" height="9.923" transform="translate(168.703 165.442) rotate(90)" fill="#8478f9"/>
            <rect id="Rectangle-35" data-name="Rectangle" width="1.966" height="9.923" transform="translate(50.538 39.539) rotate(90)" fill="#e9eef1"/>
            <rect id="Rectangle-36" data-name="Rectangle" width="1.966" height="3.682" transform="translate(52.866 121.677) rotate(90)" fill="#e9eef1"/>
            <rect id="Rectangle-37" data-name="Rectangle" width="1.966" height="20.686" transform="translate(55.168 97.446) rotate(90)" fill="#e9eef1"/>
            <rect id="Rectangle-38" data-name="Rectangle" width="1.966" height="24.434" transform="translate(87.757 97.44) rotate(90)" fill="#e9eef1"/>
            <rect id="Rectangle-39" data-name="Rectangle" width="1.966" height="38.236" transform="translate(132.793 97.44) rotate(90)" fill="#e9eef1"/>
            <rect id="Rectangle-40" data-name="Rectangle" width="1.966" height="26.304" transform="translate(167.245 97.44) rotate(90)" fill="#e9eef1"/>
            <rect id="Rectangle-41" data-name="Rectangle" width="1.966" height="20.686" transform="translate(60.921 177.427) rotate(90)" fill="#e9eef1"/>
            <rect id="Rectangle-42" data-name="Rectangle" width="1.966" height="24.434" transform="translate(87.751 177.636) rotate(90)" fill="#e9eef1"/>
            <rect id="Rectangle-43" data-name="Rectangle" width="1.966" height="38.236" transform="translate(132.787 177.636) rotate(90)" fill="#e9eef1"/>
            <rect id="Rectangle-44" data-name="Rectangle" width="1.966" height="26.304" transform="translate(167.245 177.636) rotate(90)" fill="#e9eef1"/>
            <rect id="Rectangle-45" data-name="Rectangle" width="1.966" height="38.236" transform="translate(72.617 110.732) rotate(90)" fill="#e9eef1"/>
            <rect id="Rectangle-46" data-name="Rectangle" width="1.966" height="26.304" transform="translate(107.064 110.732) rotate(90)" fill="#e9eef1"/>
            <rect id="Rectangle-47" data-name="Rectangle" width="1.966" height="12.292" transform="translate(127.504 110.726) rotate(90)" fill="#e9eef1"/>
            <rect id="Rectangle-48" data-name="Rectangle" width="1.966" height="25.249" transform="translate(160.908 110.732) rotate(90)" fill="#e9eef1"/>
            <path id="Stroke_13" data-name="Stroke 13" d="M0,0,4.215,3.3.275,6.6" transform="translate(38.347 12.441)" fill="none" stroke="#fff" stroke-linecap="round" stroke-miterlimit="10" stroke-width="2.5" opacity="0.54"/>
            <path id="Stroke_15" data-name="Stroke 15" d="M3.673,0,0,9.051" transform="translate(30.011 11.216)" fill="none" stroke="#fff" stroke-linecap="round" stroke-miterlimit="10" stroke-width="2.5" opacity="0.54"/>
            <path id="Stroke_17" data-name="Stroke 17" d="M4.215,0,0,3.3,3.94,6.6" transform="translate(21.258 12.441)" fill="none" stroke="#fff" stroke-linecap="round" stroke-miterlimit="10" stroke-width="2.5" opacity="0.54"/>
          </g>
        </g>
      </g>
    </g>
    <g id="update_icon" data-name="update icon" transform="translate(267 211)">
      <g transform="matrix(1, 0, 0, 1, -357, -248)" filter="url(#Oval)">
        <circle id="Oval-2" data-name="Oval" cx="31.5" cy="31.5" r="31.5" transform="translate(357 248)" fill="url(#linear-gradient)"/>
      </g>
      <g id="Group_11" data-name="Group 11" transform="translate(13.172 13.172)">
        <path id="Fill_1-4" data-name="Fill 1" d="M11.906,20.112H7.738a.5.5,0,0,1-.5-.424l-.4-2.737a7.066,7.066,0,0,1-1.509-.845L2.766,17.113a.588.588,0,0,1-.184.03.489.489,0,0,1-.44-.252l-2.074-3.6a.5.5,0,0,1,.121-.643l2.155-1.712A8.3,8.3,0,0,1,2.363,9.2L.209,7.469a.5.5,0,0,1-.121-.645l2.074-3.6a.493.493,0,0,1,.432-.261A.505.505,0,0,1,2.786,3L5.364,4.006a8.31,8.31,0,0,1,1.488-.845l.4-2.738A.511.511,0,0,1,7.758,0h4.168a.5.5,0,0,1,.5.442l.4,2.739a6.945,6.945,0,0,1,1.51.847L16.919,3.02a.581.581,0,0,1,.185-.031.494.494,0,0,1,.44.253l2.072,3.6a.5.5,0,0,1-.119.645L17.34,9.2a8.292,8.292,0,0,1-.018,1.731l2.134,1.712a.5.5,0,0,1,.119.643L17.5,16.89a.5.5,0,0,1-.432.261.5.5,0,0,1-.193-.039L14.3,16.106a8.4,8.4,0,0,1-1.49.845l-.4,2.737A.515.515,0,0,1,11.906,20.112ZM9.852,7.045a3.02,3.02,0,1,0,3.019,3.02A3.024,3.024,0,0,0,9.852,7.045Z" transform="translate(8.05 8.178)" fill="#2a3846"/>
        <path id="Stroke_3" data-name="Stroke 3" d="M7.556,0A1.25,1.25,0,0,1,8.8,1.122l.006.128V7.556A1.25,1.25,0,0,1,7.684,8.8l-.128.006H1.25a1.25,1.25,0,0,1-.128-2.494l.128-.006H6.306V1.25A1.25,1.25,0,0,1,7.429.006Z" transform="translate(26.075 0.67)" fill="#2a3846"/>
        <path id="Stroke_5" data-name="Stroke 5" d="M7.556,0a1.25,1.25,0,0,1,.128,2.494L7.556,2.5H2.5V7.556A1.25,1.25,0,0,1,1.378,8.8l-.128.006A1.25,1.25,0,0,1,.006,7.684L0,7.556V1.25A1.25,1.25,0,0,1,1.122.006L1.25,0Z" transform="translate(1.571 27.337)" fill="#2a3846"/>
        <path id="Stroke_7" data-name="Stroke 7" d="M34.19,0a1.25,1.25,0,0,1,1.25,1.25A19.27,19.27,0,0,1,16.171,20.519,19.247,19.247,0,0,1,.216,12.055a1.25,1.25,0,0,1,2.069-1.4,16.747,16.747,0,0,0,13.887,7.367A16.77,16.77,0,0,0,32.94,1.25,1.25,1.25,0,0,1,34.19,0Z" transform="translate(2.016 16.937)" fill="#2a3846"/>
        <path id="Stroke_9" data-name="Stroke 9" d="M19.269,0A19.246,19.246,0,0,1,35.245,8.495a1.25,1.25,0,1,1-2.072,1.4A16.77,16.77,0,0,0,2.5,19.269a1.25,1.25,0,0,1-2.5,0A19.27,19.27,0,0,1,19.269,0Z" transform="translate(-1.081 -1.081)" fill="#2a3846"/>
      </g>
    </g>
    <g id="speech" transform="translate(180)">
      <g id="Group_31" data-name="Group 31">
        <g id="Rectangle_3" data-name="Rectangle 3" fill="none" stroke-miterlimit="10">
          <path d="M16.8,49.531H3a3,3,0,0,1-3-3V3A3,3,0,0,1,3,0H70.442a3,3,0,0,1,3,3V46.531a3,3,0,0,1-3,3H43.778L17.079,64.9Z" stroke="none"/>
          <path d="M 17.07930183410645 64.90260314941406 L 43.777587890625 49.53060150146484 L 70.44210052490234 49.53060150146484 C 72.0989990234375 49.53060150146484 73.44180297851563 48.18780136108398 73.44180297851563 46.53090286254883 L 73.44180297851563 2.999701499938965 C 73.44180297851563 1.342801570892334 72.0989990234375 1.574707084728288e-06 70.44210052490234 1.574707084728288e-06 L 2.999701499938965 1.574707084728288e-06 C 1.342801451683044 1.574707084728288e-06 1.489257783759967e-06 1.342801570892334 1.489257783759967e-06 2.999701499938965 L 1.489257783759967e-06 46.53090286254883 C 1.489257783759967e-06 48.18780136108398 1.342801451683044 49.53060150146484 2.999701499938965 49.53060150146484 L 16.79623031616211 49.53060150146484 L 17.07930183410645 64.90260314941406 M 15.14200115203857 68.32585906982422 L 15.07964420318604 64.93943023681641 L 14.83272457122803 51.53060150146484 L 2.999701499938965 51.53060150146484 C 0.2428586333990097 51.53060150146484 -1.999998569488525 49.28774261474609 -1.999998569488525 46.53090286254883 L -1.999998569488525 2.999701499938965 C -1.999998569488525 0.2428587228059769 0.2428586333990097 -1.999998450279236 2.999701499938965 -1.999998450279236 L 70.44210052490234 -1.999998450279236 C 73.19894409179688 -1.999998450279236 75.44180297851563 0.2428587228059769 75.44180297851563 2.999701499938965 L 75.44180297851563 46.53090286254883 C 75.44180297851563 49.28774261474609 73.19894409179688 51.53060150146484 70.44210052490234 51.53060150146484 L 44.31222152709961 51.53060150146484 L 18.07724380493164 66.63584136962891 L 15.14200115203857 68.32585906982422 Z" stroke="none" fill="#c9d8e6"/>
        </g>
        <path id="Stroke_13-2" data-name="Stroke 13" d="M.264.482a1.25,1.25,0,0,1,1.642-.3l.112.078L12.372,8.327l-9.727,8.1A1.25,1.25,0,0,1,.946,14.6l.1-.093L8.386,8.391.482,2.236A1.25,1.25,0,0,1,.186.594Z" transform="translate(48.341 17.638)" fill="#c9d8e6"/>
        <path id="Stroke_15-2" data-name="Stroke 15" d="M8.048.778a1.25,1.25,0,0,1,2.357.824l-.042.121L2.408,21.213a1.25,1.25,0,0,1-2.357-.824l.042-.121Z" transform="translate(32.708 15)" fill="#c9d8e6"/>
        <path id="Stroke_17-2" data-name="Stroke 17" d="M10.354.264a1.25,1.25,0,0,1,1.639,1.883l-.1.089L3.985,8.391,11.327,14.5a1.25,1.25,0,0,1,.242,1.651l-.082.109a1.25,1.25,0,0,1-1.651.242l-.109-.082L0,8.327Z" transform="translate(15.16 17.638)" fill="#c9d8e6"/>
      </g>
    </g>
  </g>
</svg>
