<svg id="icon" xmlns="http://www.w3.org/2000/svg" xmlns:xlink="http://www.w3.org/1999/xlink" width="60" height="60" viewBox="0 0 60 60">
  <defs>
    <linearGradient id="linear-gradient" x1="0.5" x2="0.5" y2="1" gradientUnits="objectBoundingBox">
      <stop offset="0" stop-color="#f6fbff"/>
      <stop offset="1" stop-color="#e9f0f5"/>
    </linearGradient>
    <linearGradient id="linear-gradient-2" x1="0.5" x2="0.5" y2="1" gradientUnits="objectBoundingBox">
      <stop offset="0" stop-color="#8a6cf9"/>
      <stop offset="1" stop-color="#6d57e2"/>
    </linearGradient>
  </defs>
  <circle id="Oval" cx="30" cy="30" r="30" fill="url(#linear-gradient)"/>
  <g id="Group_27" data-name="Group 27" transform="translate(17 12)">
    <path id="Fill_1" data-name="Fill 1" d="M11.143,5.571A5.571,5.571,0,1,1,5.571,0a5.571,5.571,0,0,1,5.571,5.571" transform="translate(7.758 12.311)" fill="url(#linear-gradient-2)"/>
    <path id="Stroke_3" data-name="Stroke 3" d="M4.673,2.337A2.337,2.337,0,1,1,2.337,0,2.337,2.337,0,0,1,4.673,2.337Z" transform="translate(10.993 0)" fill="none" stroke="#2a3846" stroke-miterlimit="10" stroke-width="1.75"/>
    <path id="Stroke_5" data-name="Stroke 5" d="M.214,5.143V0" transform="translate(13.115 4.48)" fill="none" stroke="#2a3846" stroke-miterlimit="10" stroke-width="1.75"/>
    <path id="Stroke_7" data-name="Stroke 7" d="M0,2.337A2.337,2.337,0,1,1,2.337,4.673,2.336,2.336,0,0,1,0,2.337Z" transform="translate(10.993 31.092)" fill="none" stroke="#2a3846" stroke-miterlimit="10" stroke-width="1.75"/>
    <path id="Stroke_9" data-name="Stroke 9" d="M.214,0V5.143" transform="translate(13.115 26.143)" fill="none" stroke="#2a3846" stroke-miterlimit="10" stroke-width="1.75"/>
    <path id="Stroke_11" data-name="Stroke 11" d="M3.989,3.989a2.337,2.337,0,1,1,0-3.3A2.337,2.337,0,0,1,3.989,3.989Z" transform="translate(21.985 4.553)" fill="none" stroke="#2a3846" stroke-miterlimit="10" stroke-width="1.75"/>
    <path id="Stroke_13" data-name="Stroke 13" d="M0,3.636,3.636,0" transform="translate(19.17 8.405)" fill="none" stroke="#2a3846" stroke-miterlimit="10" stroke-width="1.75"/>
    <path id="Stroke_15" data-name="Stroke 15" d="M.684.685a2.336,2.336,0,1,1,0,3.3A2.336,2.336,0,0,1,.684.685Z" transform="translate(0 26.539)" fill="none" stroke="#2a3846" stroke-miterlimit="10" stroke-width="1.75"/>
    <path id="Stroke_17" data-name="Stroke 17" d="M3.636,0,0,3.636" transform="translate(3.852 23.723)" fill="none" stroke="#2a3846" stroke-miterlimit="10" stroke-width="1.75"/>
    <path id="Stroke_19" data-name="Stroke 19" d="M3.989.684a2.337,2.337,0,1,1-3.3,0A2.337,2.337,0,0,1,3.989.684Z" transform="translate(0 4.553)" fill="none" stroke="#2a3846" stroke-miterlimit="10" stroke-width="1.75"/>
    <path id="Stroke_21" data-name="Stroke 21" d="M3.636,3.636,0,0" transform="translate(3.852 8.405)" fill="none" stroke="#2a3846" stroke-miterlimit="10" stroke-width="1.75"/>
    <path id="Stroke_23" data-name="Stroke 23" d="M.684,3.989a2.337,2.337,0,1,1,3.3,0A2.337,2.337,0,0,1,.684,3.989Z" transform="translate(21.985 26.538)" fill="none" stroke="#2a3846" stroke-miterlimit="10" stroke-width="1.75"/>
    <path id="Stroke_25" data-name="Stroke 25" d="M0,0,3.636,3.636" transform="translate(19.17 23.723)" fill="none" stroke="#2a3846" stroke-miterlimit="10" stroke-width="1.75"/>
  </g>
</svg>
