<svg xmlns="http://www.w3.org/2000/svg" width="173" height="45" viewBox="0 0 173 45">
    <g fill="none" fill-rule="evenodd">
        <g fill-rule="nonzero">
            <g>
                <g>
                    <path fill="#717171" d="M69.546 33.723c1.913 0 3.587-.318 4.823-.755v-4.572c-1.515-.715-3.308-1.032-5.222-1.032-2.59 0-4.424.834-4.424 2.98 0 2.028 1.594 3.38 4.823 3.38m7.972-9.66v10.693c-1.754.954-5.063 1.829-8.012 1.829-5.74 0-8.092-2.625-8.092-6.083 0-3.816 3.349-5.962 7.733-5.962 2.073 0 3.866.397 5.222.954v-1.431c0-2.823-1.834-4.333-5.142-4.333-2.272 0-4.185.835-5.341 1.71-.859-.411-1.467-1.21-1.634-2.147 1.195-1.194 3.946-2.545 7.134-2.545 4.505 0 8.132 2.068 8.132 7.314m19.8 7.314V20.923c-.955-.755-2.51-1.233-4.224-1.233-3.987 0-6.737 2.743-6.737 6.68 0 4.014 2.75 6.399 6.737 6.399 2.112 0 3.268-.676 4.225-1.391m3.228-12.204v16.378c0 4.69-3.627 8.268-8.968 8.268-3.308 0-6.258-1.033-8.211-3.26.28-.795.997-1.749 2.073-2.186 1.235 1.43 3.109 2.584 6.138 2.584 3.986 0 5.74-2.386 5.74-5.406v-1.073c-1.276.635-2.75 1.113-4.504 1.113-5.341 0-9.766-3.499-9.766-9.223 0-5.565 4.225-9.62 10.045-9.62 2.75 0 5.5.915 7.453 2.425m6.907 17.11V17.523c.559-.119 1.117-.16 1.635-.16s1.077.04 1.594.16v18.763c-.517.118-1.076.159-1.594.159s-1.076-.04-1.634-.16m-.678-24.247c0-1.273.997-2.267 2.312-2.267 1.235 0 2.232.994 2.232 2.267 0 1.271-.996 2.265-2.232 2.265-1.275 0-2.312-.994-2.312-2.265m11.167 24.01V9.93c.524-.11 1.058-.163 1.594-.16.518 0 1.116.04 1.634.16v26.117c-.519.12-1.116.16-1.634.16-.536.003-1.07-.05-1.594-.16m10.447.238V17.522c.558-.119 1.117-.16 1.634-.16.519 0 1.077.04 1.595.16v18.763c-.518.118-1.076.159-1.595.159-.517 0-1.076-.04-1.633-.16m-.678-24.247c0-1.273.997-2.267 2.311-2.267 1.236 0 2.233.994 2.233 2.267 0 1.271-.997 2.265-2.233 2.265-1.275 0-2.311-.994-2.311-2.265m24.259 22.825c-.996.915-2.95 1.988-5.262 1.988-3.786 0-6.536-1.789-6.536-6.281V20.353h-3.23c-.111-.428-.164-.87-.158-1.312 0-.437.04-.834.159-1.271h3.229V12.72c.518-.12 1.036-.159 1.594-.159.518 0 1.036.04 1.555.16v5.048h7.453c.12.437.16.834.16 1.271 0 .478-.04.835-.16 1.312h-7.453v9.58c0 3.379 1.594 4.094 3.627 4.094 1.514 0 2.989-.914 3.587-1.43.797.556 1.276 1.43 1.435 2.265m20.636-17.017c-3.109 11.885-6.656 19-13.632 26.594-1.116-.199-1.913-1.074-2.272-1.948 1.953-2.147 3.747-4.373 5.063-6.56-3.627-6.002-5.9-12.084-7.534-18.206.638-.198 1.276-.278 1.993-.278.438 0 .956.04 1.435.119 1.395 5.327 3.029 9.66 5.74 15.067l.318.596c.08-.2.2-.358.28-.557 2.59-4.97 4.065-9.819 5.34-15.105.435-.078.875-.118 1.316-.12.638 0 1.355.16 1.953.398" transform="translate(-332 -33) translate(0 7) translate(332 26)"/>
                    <path fill="#FFC414" d="M30.054 37.311L12.157 37.311 25.647 14.009 39.137 37.311 43.072 44.254 51.195 44.254 25.646 0.124 0.098 44.254 33.19 44.254z" transform="translate(-332 -33) translate(0 7) translate(332 26)"/>
                </g>
            </g>
        </g>
    </g>
</svg>
