<?xml version="1.0" encoding="UTF-8"?>
<svg width="98px" height="90px" viewBox="0 0 98 90" version="1.1" xmlns="http://www.w3.org/2000/svg" xmlns:xlink="http://www.w3.org/1999/xlink">
    <title>image</title>
    <defs>
        <polygon id="path-1" points="0 0.153618475 77.0742531 0.153618475 77.0742531 68.4057497 0 68.4057497"></polygon>
        <linearGradient x1="50%" y1="0%" x2="50%" y2="100%" id="linearGradient-3">
            <stop stop-color="#8A6CF9" offset="0%"></stop>
            <stop stop-color="#6D57E2" offset="100%"></stop>
        </linearGradient>
        <linearGradient x1="50%" y1="0%" x2="50%" y2="100%" id="linearGradient-4">
            <stop stop-color="#8A6CF9" offset="0%"></stop>
            <stop stop-color="#6D57E2" offset="100%"></stop>
        </linearGradient>
        <linearGradient x1="50%" y1="0%" x2="50%" y2="100%" id="linearGradient-5">
            <stop stop-color="#8A6CF9" offset="0%"></stop>
            <stop stop-color="#6D57E2" offset="100%"></stop>
        </linearGradient>
        <polygon id="path-6" points="0.0252331143 0.261391507 26.6400529 0.261391507 26.6400529 26.8759848 0.0252331143 26.8759848"></polygon>
    </defs>
    <g id="Page-1" stroke="none" stroke-width="1" fill="none" fill-rule="evenodd">
        <g id="AgilityCMS-Footer--Email-Sign-Up-Thank-You" transform="translate(-1530.000000, -588.000000)">
            <g id="subscribe---Thank-you" transform="translate(1045.000000, 477.000000)">
                <g id="image" transform="translate(485.000000, 111.000000)">
                    <g id="Group-3" transform="translate(0.000000, 20.124428)">
                        <mask id="mask-2" fill="white">
                            <use xlink:href="#path-1"></use>
                        </mask>
                        <g id="Clip-2"></g>
                        <path d="M65.0459097,58.0362081 L52.6748884,68.405795 L52.6748884,58.0362081 L5.97848131,58.0362081 C2.69047515,58.0362081 0,55.346186 0,52.0577268 L0,6.13255281 C0,2.84409362 2.69002213,0.153618475 5.97848131,0.153618475 L71.0953188,0.153618475 C74.3833249,0.153618475 77.0742531,2.84409362 77.0742531,6.13255281 L77.0742531,52.0577268 C77.0742531,55.345733 74.3833249,58.0362081 71.0953188,58.0362081 L65.0459097,58.0362081 Z" id="Fill-1" fill="#FFFFFF" mask="url(#mask-2)"></path>
                    </g>
                    <path d="M13.4622062,31.719429 L63.6117751,31.719429 C65.0129604,31.719429 66.1590964,32.8660181 66.1590964,34.2672034 L66.1590964,65.0602102 C66.1590964,66.4613955 65.0125074,67.6079846 63.6117751,67.6079846 L13.4622062,67.6079846 C12.0614739,67.6079846 10.9144318,66.4618485 10.9144318,65.0602102 L10.9144318,34.2672034 C10.9144318,32.8655651 12.0610209,31.719429 13.4622062,31.719429" id="Fill-6" fill="url(#linearGradient-3)"></path>
                    <path d="M63.6118657,67.6080752 L13.4622968,67.6080752 C12.8249002,67.6080752 12.2405067,67.3706936 11.7924717,66.980192 L38.5368547,47.8456088 L65.2821438,66.980192 C64.8336558,67.3706936 64.2492623,67.6080752 63.6118657,67.6080752" id="Fill-8" stroke="#FFFFFF" stroke-width="1.5" fill="url(#linearGradient-4)"></path>
                    <path d="M63.6117751,31.719429 C64.2487187,31.719429 64.8335652,31.9568105 65.2816002,32.3473122 L38.5372172,55.9219269 L11.7919281,32.3473122 C12.2404161,31.9568105 12.8248096,31.719429 13.4622062,31.719429 L63.6117751,31.719429 Z" id="Fill-10" stroke="#FFFFFF" stroke-width="1.5" fill="url(#linearGradient-5)"></path>
                    <path d="M65.8566162,40.4731905 C70.678089,40.4731905 74.609834,36.5409924 74.609834,31.7195196 C74.609834,26.8980468 70.678089,22.9658487 65.8566162,22.9658487 C61.0351434,22.9658487 57.1029453,26.8980468 57.1029453,31.7195196 C57.1029453,36.5409924 61.0351434,40.4731905 65.8566162,40.4731905" id="Fill-12" stroke="#FFFFFF" fill="#FFC414"></path>
                    <path d="M68.9764167,36.4095265 L62.7365439,36.4095265 L62.7365439,34.7754898 L64.704455,34.7754898 L64.704455,29.8344202 L62.7365439,29.8344202 L62.7365439,28.3032187 C63.0364419,28.3032187 63.3259206,28.286004 63.6027147,28.2497625 C63.8767907,28.2157862 64.1064709,28.1532697 64.2908493,28.0653841 C64.5096571,27.9602839 64.6727437,27.8252845 64.779656,27.6581208 C64.8892864,27.490957 64.9513499,27.2807566 64.9685646,27.0297845 L67.0465591,27.0297845 L67.0465591,34.7754898 L68.9764167,34.7754898 L68.9764167,36.4095265 Z" id="Fill-14" fill="#171B20"></path>
                    <g id="Group-18" transform="translate(70.217822, 0.191627)">
                        <mask id="mask-7" fill="white">
                            <use xlink:href="#path-6"></use>
                        </mask>
                        <g id="Clip-17"></g>
                        <path d="M0.891403931,14.0102677 C0.413016702,14.0102677 0.0252331143,13.6224841 0.0252331143,13.1440968 L0.0252331143,1.12778883 C0.0252331143,0.648948585 0.413016702,0.261164998 0.891403931,0.261164998 C1.37024418,0.261164998 1.75802777,0.648948585 1.75802777,1.12778883 L1.75802777,13.1440968 C1.75802777,13.6224841 1.37024418,14.0102677 0.891403931,14.0102677 M7.32335647,15.7340019 C7.17657857,15.7340019 7.02753558,15.6968545 6.8911771,15.6180293 C6.47666544,15.3788357 6.33487074,14.8488044 6.57406435,14.4342927 L12.5824449,4.02801141 C12.8216385,3.61395277 13.3512168,3.47215807 13.7657284,3.71089866 C14.1802401,3.95009228 14.3215818,4.48012358 14.0828412,4.89463525 L8.07446066,15.3009165 C7.91409222,15.5786167 7.62280151,15.7340019 7.32335647,15.7340019 M12.0347459,20.4435793 C11.7353008,20.4435793 11.4440101,20.288194 11.2831886,20.0104938 C11.044448,19.5959822 11.1862427,19.0659509 11.6007544,18.8263042 L22.0065827,12.8183768 C22.4220004,12.5791831 22.9511256,12.7214309 23.1903193,13.1354895 C23.4295129,13.5500012 23.2877182,14.0800325 22.8727535,14.3192261 L12.4669252,20.3271536 C12.3305667,20.4059787 12.1815238,20.4435793 12.0347459,20.4435793 M25.7738821,26.8759848 L13.7575741,26.8759848 C13.2791869,26.8759848 12.8909503,26.4882012 12.8909503,26.009814 C12.8909503,25.5314268 13.2791869,25.1436432 13.7575741,25.1436432 L25.7738821,25.1436432 C26.2518163,25.1436432 26.6400529,25.5314268 26.6400529,26.009814 C26.6400529,26.4882012 26.2518163,26.8759848 25.7738821,26.8759848" id="Fill-16" fill="#FFFFFF" mask="url(#mask-7)"></path>
                    </g>
                </g>
            </g>
        </g>
    </g>
</svg>