<svg id="User_Guides" data-name="User Guides" xmlns="http://www.w3.org/2000/svg" xmlns:xlink="http://www.w3.org/1999/xlink" width="412" height="392" viewBox="0 0 412 392">
  <defs>
    <linearGradient id="linear-gradient" x1="0.996" y1="0.5" x2="0" y2="0.5" gradientUnits="objectBoundingBox">
      <stop offset="0" stop-color="#300868"/>
      <stop offset="1" stop-color="#4600a8"/>
    </linearGradient>
    <linearGradient id="linear-gradient-2" x1="0.996" y1="0.5" x2="0" y2="0.5" gradientUnits="objectBoundingBox">
      <stop offset="0" stop-color="#4514a7"/>
      <stop offset="1" stop-color="#300868"/>
    </linearGradient>
    <clipPath id="clip-path">
      <rect id="Rectangle" width="2000" height="805" fill="url(#linear-gradient)"/>
    </clipPath>
    <linearGradient id="linear-gradient-3" x1="0.5" x2="0.5" y2="1" gradientUnits="objectBoundingBox">
      <stop offset="0" stop-color="#ffc414"/>
      <stop offset="1" stop-color="#ffb20b"/>
    </linearGradient>
  </defs>
  <g id="bg">
    <g id="Group_22" data-name="Group 22" opacity="0.191">
      <path id="Fill_1" data-name="Fill 1" d="M6.832,0,0,11.592H13.649A107.108,107.108,0,0,0,6.832,0" transform="translate(253.459 69.245)" fill="#ffc414"/>
      <path id="Fill_3" data-name="Fill 3" d="M0,11.3c4.342,1.072,10.01.988,13.18-.183C11.094,7.6,9.044,4.139,6.59,0,4.117,4.24,2.1,7.7,0,11.3" transform="translate(253.78 276.254)" fill="#fff" opacity="0.301"/>
      <path id="Fill_5" data-name="Fill 5" d="M6.679,0A77.073,77.073,0,0,0,0,11.6H13.377C11.107,7.669,9.154,4.29,6.679,0" transform="translate(145.067 276.377)" fill="#fff"/>
      <path id="Fill_7" data-name="Fill 7" d="M6.849,0,0,11.735H13.813C11.366,7.611,9.311,4.147,6.849,0" transform="translate(108.501 276.253)" fill="rgba(255,255,255,0.3)"/>
      <path id="Fill_37" data-name="Fill 37" d="M0,11.618H13.5C11.046,7.427,9.024,3.962,6.709,0A53.388,53.388,0,0,0,0,11.618" transform="translate(181.36 380.145)" fill="#fff"/>
      <path id="Fill_41" data-name="Fill 41" d="M.624,12.171c4.076-.289,8.2.486,12.8-.552L6.545,0C4.059,4.255,2.028,7.723,0,11.193c.209.326.414.652.624.978" transform="translate(217.574 172.699)" fill="#fff" opacity="0.301"/>
      <path id="Fill_43" data-name="Fill 43" d="M13.949,11.506A101.182,101.182,0,0,0,6.972,0C4.575,4.085,2.548,7.54,0,11.881c5.112-.093,9.214.322,13.949-.375" transform="translate(180.75 172.946)" fill="rgba(255,255,255,0.3)"/>
      <path id="Fill_45" data-name="Fill 45" d="M0,11.165c.179.324.356.652.535.978,4.1-.166,8.222.436,12.865-.442C11.061,7.708,9.026,4.234,6.545,0L0,11.165" transform="translate(72.576 172.686)" fill="rgba(255,255,255,0.3)"/>
      <path id="Fill_47" data-name="Fill 47" d="M13.817,11.81C11.424,7.717,9.4,4.247,6.914,0,4.43,4.234,2.4,7.708,0,11.8a59.18,59.18,0,0,0,13.817.015" transform="translate(35.958 172.675)" fill="rgba(255,255,255,0.3)"/>
      <path id="Fill_100" data-name="Fill 100" d="M6.789,0A85.12,85.12,0,0,0,0,11.881c4.829-.056,8.854.3,13.612-.293C11.217,7.52,9.18,4.065,6.789,0" transform="translate(144.919 69.207)" fill="rgba(255,255,255,0.3)"/>
      <path id="Fill_134" data-name="Fill 134" d="M13.29,11.519C10.947,7.574,8.938,4.195,6.448,0,4.05,4.389,1.5,7.55,0,11.918c4.594.006,8.7.488,13.29-.4" transform="translate(217.657 276.284)" fill="#fff" opacity="0.301"/>
      <path id="Fill_136" data-name="Fill 136" d="M13.213,11.117C11.2,7.673,9.208,4.27,6.7,0,4.15,4.348,2.123,7.794,0,11.411c4.793,1.027,10.235.887,13.213-.293" transform="translate(181.185 276.222)" fill="rgba(255,255,255,0.3)"/>
      <path id="Fill_140" data-name="Fill 140" d="M6.275,0C4.078,4.46,1.312,7.531,0,11.823H13.12A109.962,109.962,0,0,0,6.275,0" transform="translate(0.2 172.723)" fill="#fff"/>
      <path id="Fill_142" data-name="Fill 142" d="M13.77,11.823C11.383,7.747,9.354,4.286,6.845,0,4.374,4.238,2.348,7.708,0,11.728a71.194,71.194,0,0,0,13.77.095" transform="translate(72.26 276.225)" fill="rgba(255,255,255,0.3)"/>
      <path id="Fill_146" data-name="Fill 146" d="M0,10.682c4.564.818,9.6.736,12.609-.1C11.463,6.825,8.478,1.964,6.018,0,3.94,3.489,1.634,6.81,0,10.682" transform="translate(108.883 173.608)" fill="rgba(255,255,255,0.3)"/>
      <path id="Fill_168" data-name="Fill 168" d="M13.284,11.182C11.243,7.714,9.236,4.309,6.7,0,4.186,4.247,2.132,7.721,0,11.325c4.137,1.15,10,1.077,13.284-.142" transform="translate(144.94 172.705)" fill="#ffc414"/>
      <path id="Fill_170" data-name="Fill 170" d="M13.429,11.5c-2.4-4.232-4.2-7.816-7-11.5C4.122,4.167,1.785,7.434,0,11.5Z" transform="translate(181.27 69.334)" fill="rgba(255,255,255,0.3)"/>
      <path id="Fill_172" data-name="Fill 172" d="M6.847,0C4.376,4.229,2.35,7.7,0,11.724a71.793,71.793,0,0,0,13.778.1C11.387,7.745,9.359,4.283,6.847,0" transform="translate(217.277 69.057)" fill="#fff"/>
      <path id="Fill_176" data-name="Fill 176" d="M13.461,11.551C11.158,7.656,9.1,4.176,6.625,0,4.2,4.3,1.707,7.609,0,12.132c4.762-.222,8.809.473,13.461-.58" transform="translate(253.768 172.722)" fill="#fff" opacity="0.301"/>
      <path id="Fill_192" data-name="Fill 192" d="M6.853,0C4.378,4.277,2.363,7.762,0,11.84H13.733C11.374,7.777,9.316,4.234,6.853,0" transform="translate(217.257 34.5)" fill="#fff"/>
      <path id="Fill_194" data-name="Fill 194" d="M6.226,0C2.825,4.109.436,8.532,0,11.279H12.861C10.474,7.22,8.4,3.7,6.226,0" transform="translate(181.915 35.054)" fill="rgba(255,255,255,0.3)"/>
      <path id="Fill_212" data-name="Fill 212" d="M13.064,10.852C11.694,6.64,8.742,1.867,6.327,0,4.322,3.44,2.333,6.851,0,10.852Z" transform="translate(72.263 242.635)" fill="rgba(255,255,255,0.3)"/>
      <path id="Fill_214" data-name="Fill 214" d="M13.444,11.543A68.961,68.961,0,0,0,6.6,0C5.166,2.369,4.065,4.115,3.045,5.9,2.061,7.622,1.159,9.385,0,11.543Z" transform="translate(217.398 138.482)" fill="#fff"/>
      <path id="Fill_216" data-name="Fill 216" d="M12.874,11.01C10.852,7.55,8.854,4.13,6.441,0,3.863,4.275,1.418,7.527,0,11.463c4.955.842,10.075.673,12.874-.453" transform="translate(181.522 138.233)" fill="rgba(255,255,255,0.3)"/>
      <path id="Fill_218" data-name="Fill 218" d="M6.564,0C4.048,4.409,1.644,7.691,0,11.72H13.457C11.094,7.7,9.048,4.225,6.564,0" transform="translate(181.328 241.775)" fill="rgba(255,255,255,0.3)"/>
      <path id="Fill_220" data-name="Fill 220" d="M6.193,0C4.048,4.227,1.416,7.393,0,11.584H13.28C10.813,7.378,9.022,3.737,6.193,0" transform="translate(217.726 241.948)" fill="#fff" opacity="0.301"/>
      <path id="Fill_222" data-name="Fill 222" d="M6.575,0C4.076,4.372,1.685,7.658,0,11.732H13.48C11.117,7.719,9.072,4.242,6.575,0" transform="translate(36.292 241.784)" fill="rgba(255,255,255,0.3)"/>
      <path id="Fill_224" data-name="Fill 224" d="M6.6,0C5.17,2.372,4.07,4.113,3.049,5.9,2.063,7.622,1.163,9.387,0,11.545H13.446A69.059,69.059,0,0,0,6.6,0" transform="translate(72.375 138.481)" fill="rgba(255,255,255,0.3)"/>
      <path id="Fill_226" data-name="Fill 226" d="M13.4,11.284C10.846,7.117,9.225,3.388,6.3,0,3.951,3.822,1.549,7.1,0,11.284Z" transform="translate(36.397 138.669)" fill="rgba(255,255,255,0.3)"/>
      <path id="Fill_244" data-name="Fill 244" d="M6.6,0C4.07,4.365,1.7,7.673,0,11.7H13.493C11.13,7.689,9.083,4.212,6.6,0" transform="translate(217.537 345.369)" fill="#fff" opacity="0.301"/>
      <path id="Fill_246" data-name="Fill 246" d="M0,11.269H12.991C10.539,7.082,8.5,3.6,6.394,0,3.248,3.375.516,8.252,0,11.269" transform="translate(181.874 345.937)" fill="#fff"/>
      <path id="Fill_272" data-name="Fill 272" d="M12.8,11.773C11.3,7.516,8.832,4.307,6.4,0,3.981,4.355,1.452,7.555,0,11.773Z" transform="translate(253.987 138.142)" fill="#ffc414"/>
      <path id="Fill_274" data-name="Fill 274" d="M0,11.884H13.474C11.046,7.743,9.009,4.266,6.51,0,4.165,4.279,1.672,7.568,0,11.884" transform="translate(145.11 138.084)" fill="rgba(255,255,255,0.3)"/>
      <path id="Fill_276" data-name="Fill 276" d="M6.579,0C4.076,4.255,1.593,7.6,0,11.931c4.642,0,8.653.242,13.465-.2C10.984,7.5,8.949,4.035,6.579,0" transform="translate(108.838 138.199)" fill="rgba(255,255,255,0.3)"/>
      <path id="Fill_278" data-name="Fill 278" d="M6.247,0C4.046,3.9,1.649,7.149,0,11.361H13.454C10.945,7.281,9.3,3.528,6.247,0" transform="translate(0.096 138.584)" fill="#fff"/>
      <path id="Fill_290" data-name="Fill 290" d="M0,11.983c4.665-.043,8.679.287,13.422-.281C11.07,7.645,9.1,4.251,6.642,0,4.081,4.229,1.724,7.645,0,11.983" transform="translate(253.818 34.575)" fill="#ffc414"/>
      <path id="Fill_324" data-name="Fill 324" d="M6.631,0A63.089,63.089,0,0,0,0,11.689H13.424C11.016,7.544,8.988,4.053,6.631,0" transform="translate(145.127 34.689)" fill="rgba(255,255,255,0.3)"/>
      <path id="Fill_336" data-name="Fill 336" d="M6.361,0C4.048,4.106,1.657,7.354,0,11.553H13.217A83.881,83.881,0,0,0,6.361,0" transform="translate(0.097 241.988)" fill="rgba(255,255,255,0.3)"/>
      <path id="Fill_338" data-name="Fill 338" d="M6.806,12.123c1.946-.1,4.014.52,6.275-.82C10.969,7.73,8.973,4.355,6.4,0,4.167,4.549,1.476,7.755,0,12.147c2.708,0,4.762.082,6.806-.024" transform="translate(108.879 241.62)" fill="rgba(255,255,255,0.3)"/>
      <path id="Fill_340" data-name="Fill 340" d="M6.109,0C2.46,4.294.19,8.586,0,11.31H12.734C10.256,7.076,8.23,3.621,6.109,0" transform="translate(145.835 242.258)" fill="#7556e8"/>
      <path id="Fill_342" data-name="Fill 342" d="M6.642,0C4.147,4.21,1.711,7.568,0,12c4.68-.3,8.7.432,13.334-.624C11.046,7.49,9.009,4.024,6.642,0" transform="translate(253.795 241.822)" fill="#fff" opacity="0.301"/>
      <path id="Fill_344" data-name="Fill 344" d="M6.562,0C4.117,4.279,1.627,7.559,0,11.931c4.715-.125,8.733.445,13.329-.473C11.089,7.665,9.1,4.3,6.562,0" transform="translate(253.847 207.226)" fill="#fff" opacity="0.301"/>
      <path id="Fill_346" data-name="Fill 346" d="M10.833,11.568c.768-.006,1.536-.168,3.071-.347C11.5,7.3,9.836,3.567,6.838,0L0,11.581c4.3,0,7.566.017,10.833-.013" transform="translate(144.554 207.597)" fill="#7556e8"/>
      <path id="Fill_348" data-name="Fill 348" d="M13.77,11.691C11.394,7.669,9.357,4.214,6.869,0,4.415,4.176,2.391,7.62,0,11.691Z" transform="translate(108.501 207.188)" fill="rgba(255,255,255,0.3)"/>
      <path id="Fill_350" data-name="Fill 350" d="M6.648,0C4.152,4.255,1.716,7.555,0,11.944c2.751,0,4.791.024,6.828-.006,1.972-.028,3.942-.112,6.713-.194C11.092,7.566,9.065,4.119,6.648,0" transform="translate(0 207.24)" fill="rgba(255,255,255,0.3)"/>
      <path id="Fill_376" data-name="Fill 376" d="M0,11.694H13.457C11.1,7.665,9.067,4.208,6.6,0,4.128,4.223,1.772,7.587,0,11.694" transform="translate(145.055 0.043)" fill="rgba(255,255,255,0.3)"/>
      <path id="Fill_390" data-name="Fill 390" d="M13.793,11.34C11.5,7.384,9.65,3.832,6.938,0,4.534,4.106,2.555,7.492,0,11.855c5.116-.27,9.238.4,13.793-.516" transform="translate(217.069 0.209)" fill="#fff"/>
      <path id="Fill_392" data-name="Fill 392" d="M0,11.715H13.716L6.841,0C4.34,4.288,2.324,7.734,0,11.715" transform="translate(181.041 0)" fill="rgba(255,255,255,0.3)"/>
      <path id="Fill_426" data-name="Fill 426" d="M0,11.748H13.7L6.845,0,0,11.748" transform="translate(72.273 103.574)" fill="rgba(255,255,255,0.3)"/>
      <path id="Fill_430" data-name="Fill 430" d="M0,11.741H13.679C11.34,7.706,9.324,4.223,6.879,0,4.45,4.145,2.415,7.62,0,11.741" transform="translate(144.768 103.561)" fill="rgba(255,255,255,0.3)"/>
      <path id="Fill_432" data-name="Fill 432" d="M6.892,0,0,11.745H13.741C11.344,7.637,9.326,4.176,6.892,0" transform="translate(181 103.59)" fill="rgba(255,255,255,0.3)"/>
      <path id="Fill_434" data-name="Fill 434" d="M6.6,0C4.165,4.044,2.031,7.468,0,11.368H13.316A64.64,64.64,0,0,0,6.6,0" transform="translate(217.396 103.957)" fill="#fff"/>
      <path id="Fill_436" data-name="Fill 436" d="M6.046,0C4.176,3.61,1.718,6.841,0,10.99H12.8C11.426,6.75,8.463,1.916,6.046,0" transform="translate(253.802 104.424)" fill="#ffc414"/>
      <path id="Fill_450" data-name="Fill 450" d="M6.724,0A92.71,92.71,0,0,0,0,11.558H13.519C11.178,7.579,9.156,4.137,6.724,0" transform="translate(36.238 207.35)" fill="rgba(255,255,255,0.3)"/>
      <path id="Fill_452" data-name="Fill 452" d="M0,11.294H12.9C10.548,7.32,8.513,3.882,6.215,0,2.264,5.192.522,8.437,0,11.294" transform="translate(73.118 207.623)" fill="rgba(255,255,255,0.3)"/>
      <path id="Fill_454" data-name="Fill 454" d="M6.383,0C4.372,3.4,2.382,6.763,0,10.785H13.12C11.864,6.677,8.936,1.944,6.383,0" transform="translate(180.951 208.151)" fill="rgba(255,255,255,0.3)"/>
      <path id="Fill_456" data-name="Fill 456" d="M6.812,0A55.294,55.294,0,0,0,0,11.271H13.483C11.163,7.348,9.169,3.983,6.812,0" transform="translate(217.553 207.599)" fill="#fff" opacity="0.301"/>
      <path id="Fill_458" data-name="Fill 458" d="M0,11.486H13.418C11.1,7.553,9.113,4.18,6.648,0A94.551,94.551,0,0,0,0,11.486" transform="translate(253.822 310.961)" fill="#fff" opacity="0.301"/>
      <path id="Fill_490" data-name="Fill 490" d="M6.728,0C4.363,4.005,2.372,7.378,0,11.4H13.349A66.8,66.8,0,0,0,6.728,0" transform="translate(144.766 311.062)" fill="#fff"/>
      <path id="Fill_492" data-name="Fill 492" d="M13.761,11.551C11.53,7.736,9.559,4.372,7,0,4.469,4.3,2.451,7.725,0,11.881c4.983.03,9.065.369,13.761-.33" transform="translate(180.9 310.81)" fill="rgba(255,255,255,0.3)"/>
      <path id="Fill_494" data-name="Fill 494" d="M13.442,11.148A55.454,55.454,0,0,0,6.64,0C4.368,3.878,2.352,7.317,0,11.333c4.875.22,8.96.494,13.442-.186" transform="translate(217.24 311.228)" fill="#fff" opacity="0.301"/>
      <path id="Fill_17" data-name="Fill 17" d="M6.661,0A75.78,75.78,0,0,0,0,11.6H13.426C11.07,7.563,9.048,4.1,6.661,0" transform="translate(398.382 276.392)" fill="#ffc414"/>
      <path id="Fill_19" data-name="Fill 19" d="M0,11.722a101.033,101.033,0,0,0,13.942.211C11.4,7.632,9.344,4.169,6.875,0L0,11.722" transform="translate(361.792 276.252)" fill="#fff"/>
      <path id="Fill_57" data-name="Fill 57" d="M12.861,11.122C10.459,7.078,8.407,3.627,6.251,0,2.654,4.344.391,8.55,0,11.625c3.438,0,6.834.019,10.231-.015a19.406,19.406,0,0,0,2.63-.488" transform="translate(326.442 173.212)" fill="#fff"/>
      <path id="Fill_59" data-name="Fill 59" d="M13.508,11.031C11.735,6.245,9,1.91,6.59,0,4.568,3.418,2.566,6.8,0,11.139a113.453,113.453,0,0,0,13.508-.108" transform="translate(289.068 173.587)" fill="#fff" opacity="0.301"/>
      <path id="Fill_114" data-name="Fill 114" d="M13.754,11.64C11.4,7.667,9.4,4.29,6.869,0,4.37,4.264,2.346,7.719,0,11.726a58.337,58.337,0,0,0,13.754-.086" transform="translate(361.801 69.075)" fill="rgba(255,255,255,0.3)"/>
      <path id="Fill_120" data-name="Fill 120" d="M6.538,0C4.154,4.357,1.556,7.626,0,12.155c4.73-.14,8.772.274,13.528-.354C11.07,7.648,9,4.16,6.538,0" transform="translate(362.126 172.699)" fill="#fff"/>
      <path id="Fill_148" data-name="Fill 148" d="M6.515,0C4.488,3.425,2.477,6.819,0,11.005c4.909.1,9.037.395,13.275-.2C11.877,6.558,8.94,1.845,6.515,0" transform="translate(289.127 69.999)" fill="#fff"/>
      <path id="Fill_150" data-name="Fill 150" d="M13.731,11.318C11.385,7.348,9.635,3.694,6.774,0L0,11.543c5.008.209,9.128.52,13.731-.224" transform="translate(325.467 69.378)" fill="rgba(255,255,255,0.3)"/>
      <path id="Fill_184" data-name="Fill 184" d="M6.879,0C4.4,4.26,2.372,7.725,0,11.786a70.844,70.844,0,0,0,13.763,0C11.4,7.747,9.378,4.279,6.879,0" transform="translate(325.541 276.215)" fill="#fff"/>
      <path id="Fill_188" data-name="Fill 188" d="M6.866,0C4.374,4.266,2.343,7.736,0,11.741a70.663,70.663,0,0,0,13.767.091C11.381,7.738,9.359,4.27,6.866,0" transform="translate(289.315 276.213)" fill="#fff" opacity="0.301"/>
      <path id="Fill_208" data-name="Fill 208" d="M13.672,11.672C11.381,7.743,9.354,4.273,6.86,0,4.32,4.381,2.3,7.855,0,11.832a62.677,62.677,0,0,0,13.672-.16" transform="translate(325.542 34.506)" fill="rgba(255,255,255,0.3)"/>
      <path id="Fill_210" data-name="Fill 210" d="M0,11.687H13.4C11.066,7.673,9.039,4.188,6.607,0A81.108,81.108,0,0,0,0,11.687" transform="translate(289.638 34.622)" fill="#fff"/>
      <path id="Fill_238" data-name="Fill 238" d="M6.7,0C4.115,4.344,1.86,7.706,0,11.676H13.577C11.21,7.658,9.165,4.184,6.7,0" transform="translate(325.737 138.215)" fill="#fff"/>
      <path id="Fill_240" data-name="Fill 240" d="M12.924,11.26C10.5,7.1,8.465,3.621,6.353,0,3.04,3.651.44,8.36,0,11.445c4.083-.071,8.129.153,12.924-.186" transform="translate(290.189 138.733)" fill="#fff"/>
      <path id="Fill_264" data-name="Fill 264" d="M0,11.937c5.052-.028,9.162.343,13.921-.265C11.53,7.6,9.488,4.141,7.054,0,4.534,4.262,2.484,7.732,0,11.937" transform="translate(289.13 241.767)" fill="#fff" opacity="0.301"/>
      <path id="Fill_266" data-name="Fill 266" d="M13.413,11.558,6.627,0A92.751,92.751,0,0,0,0,11.558Z" transform="translate(325.858 241.892)" fill="#fff"/>
      <path id="Fill_288" data-name="Fill 288" d="M6.61,0A110.351,110.351,0,0,0,0,11.443H13.254A80.649,80.649,0,0,0,6.61,0" transform="translate(362.027 138.426)" fill="#fff"/>
      <path id="Fill_300" data-name="Fill 300" d="M13.429,11.728C11.02,7.611,9.035,4.219,6.566,0,4.065,4.316,1.605,7.667,0,12.067c4.678-.162,8.7.229,13.429-.339" transform="translate(362.139 34.558)" fill="rgba(255,255,255,0.3)"/>
      <path id="Fill_326" data-name="Fill 326" d="M13.918,11.709C11.478,7.559,9.443,4.1,7.033,0,4.56,4.219,2.527,7.7,0,12.013c5.16-.065,9.175.285,13.918-.3" transform="translate(361.639 241.728)" fill="#fff"/>
      <path id="Fill_328" data-name="Fill 328" d="M0,11.92c4.717-.022,8.716.252,13.416-.224C10.977,7.535,8.951,4.076,6.564,0,4.076,4.253,1.569,7.544,0,11.92" transform="translate(398.422 241.803)" fill="#ffc414"/>
      <path id="Fill_358" data-name="Fill 358" d="M13.752,11.441C11.534,7.643,9.562,4.268,7.067,0,4.538,4.281,2.5,7.727,0,11.957c5.062-.155,9.147.531,13.752-.516" transform="translate(397.876 207.189)" fill="#ffc414"/>
      <path id="Fill_360" data-name="Fill 360" d="M0,11.474H13.45C11.066,7.427,9.186,3.813,6.51,0,4.027,4.089,1.769,7.412,0,11.474" transform="translate(362.111 207.456)" fill="#fff"/>
      <path id="Fill_380" data-name="Fill 380" d="M6.579,0C4.1,4.441,1.739,7.736,0,11.776H13.431C11.109,7.781,9.083,4.3,6.579,0" transform="translate(289.595 103.571)" fill="#fff"/>
      <path id="Fill_382" data-name="Fill 382" d="M6.847,0C4.357,4.275,2.331,7.751,0,11.748H13.7C11.31,7.656,9.29,4.188,6.847,0" transform="translate(325.578 103.573)" fill="rgba(255,255,255,0.3)"/>
      <path id="Fill_384" data-name="Fill 384" d="M13.724,11.532C11.43,7.617,9.4,4.145,6.97,0,4.516,4.236,2.5,7.717,0,12.041c5.015-.188,9.087.451,13.724-.509" transform="translate(361.694 103.558)" fill="rgba(255,255,255,0.3)"/>
      <path id="Fill_438" data-name="Fill 438" d="M6.441,0C4.065,4.061,1.75,7.341,0,11.374H13.575C11.07,7.4,9.389,3.664,6.441,0" transform="translate(289.554 207.58)" fill="#fff" opacity="0.301"/>
      <path id="Fill_440" data-name="Fill 440" d="M13.472,11.538C11.143,7.559,9.126,4.115,6.72,0A92.63,92.63,0,0,0,0,11.538Z" transform="translate(325.806 207.358)" fill="#fff"/>
      <path id="Fill_460" data-name="Fill 460" d="M13.659,11.672C11.34,7.7,9.331,4.27,6.834,0L0,11.672Z" transform="translate(289.345 310.79)" fill="#fff" opacity="0.301"/>
      <path id="Fill_464" data-name="Fill 464" d="M6.7,0A85.947,85.947,0,0,0,0,11.5H13.5L6.7,0" transform="translate(362.086 311.013)" fill="#fff"/>
    </g>
  </g>
</svg>
