<svg xmlns="http://www.w3.org/2000/svg" xmlns:xlink="http://www.w3.org/1999/xlink" width="352.436" height="402.973" viewBox="0 0 352.436 402.973">
  <defs>
    <clipPath id="clip-path">
      <path id="Clip_60" data-name="Clip 60" d="M0,0H6.765V5.656H0Z" fill="none"/>
    </clipPath>
  </defs>
  <g id="Group_37" data-name="Group 37" transform="translate(-160.107 -286.38)">
    <g id="Group_496" data-name="Group 496" transform="translate(160.078 475.5)" opacity="0.277">
      <path id="Fill_1" data-name="Fill 1" d="M3.422,0,0,5.81H6.836A53.693,53.693,0,0,0,3.422,0" transform="translate(326.943 52.05)" fill="#536dfe"/>
      <path id="Fill_3" data-name="Fill 3" d="M0,5.664a12.986,12.986,0,0,0,6.6-.092L3.3,0,0,5.664" transform="translate(327.104 155.807)" fill="#4500a7"/>
      <path id="Fill_5" data-name="Fill 5" d="M3.345,0A38.637,38.637,0,0,0,0,5.815H6.7C5.563,3.844,4.585,2.15,3.345,0" transform="translate(272.653 155.869)" fill="#4500a7"/>
      <path id="Fill_7" data-name="Fill 7" d="M3.43,0,0,5.882H6.918L3.43,0" transform="translate(254.339 155.807)" fill="#4500a7"/>
      <path id="Fill_9" data-name="Fill 9" d="M6.8,5.82C5.59,3.769,4.57,2.037,3.373,0A39.512,39.512,0,0,0,0,5.925a53.616,53.616,0,0,0,6.8-.1" transform="translate(199.973 155.872)" fill="#7556e6"/>
      <path id="Fill_11" data-name="Fill 11" d="M3.4,0,2.868.048C2,1.845.625,3.368,0,5.48H6.639L3.4,0" transform="translate(181.978 156.21)" fill="#7556e6"/>
      <path id="Fill_13" data-name="Fill 13" d="M6.952,5.872C5.762,3.853,4.764,2.157,3.493,0L0,5.923a38.311,38.311,0,0,0,6.952-.051" transform="translate(127.177 155.803)" fill="#7556e6"/>
      <path id="Fill_15" data-name="Fill 15" d="M3.222,0,0,5.473H6.553A12.977,12.977,0,0,0,3.222,0" transform="translate(109.038 156.227)" fill="#7556e6"/>
      <path id="Fill_17" data-name="Fill 17" d="M3.336,0A37.989,37.989,0,0,0,0,5.816H6.725C5.545,3.791,4.532,2.053,3.336,0" transform="translate(54.75 155.876)" fill="#7556e6"/>
      <path id="Fill_19" data-name="Fill 19" d="M0,5.875a50.568,50.568,0,0,0,6.983.106L3.443,0,0,5.875" transform="translate(36.424 155.806)" fill="#7556e6"/>
      <path id="Fill_21" data-name="Fill 21" d="M6.724,5.789A48.554,48.554,0,0,0,3.18,0C2,2,1,3.689,0,5.382q.11.264.217.527a59.283,59.283,0,0,0,6.506-.12" transform="translate(0.291 207.897)" fill="#fff"/>
      <path id="Fill_23" data-name="Fill 23" d="M0,5.8a39.216,39.216,0,0,0,6.946.026A57.439,57.439,0,0,0,3.374,0L0,5.8" transform="translate(18.25 207.878)" fill="#fff"/>
      <path id="Fill_25" data-name="Fill 25" d="M0,5.382c.071.176.145.352.217.527a59.291,59.291,0,0,0,6.506-.12A48.708,48.708,0,0,0,3.178,0L0,5.382" transform="translate(72.927 207.897)" fill="#fff"/>
      <path id="Fill_27" data-name="Fill 27" d="M6.732,5.835C5.535,3.811,4.511,2.082,3.28,0,2.028,2.143,1.014,3.879,0,5.616l.319.467a36.956,36.956,0,0,0,6.414-.248" transform="translate(91.063 207.742)" fill="#fff"/>
      <path id="Fill_29" data-name="Fill 29" d="M6.682,5.587,3.395,0C2.142,2.139,1.125,3.874,0,5.794a12.927,12.927,0,0,0,6.682-.207" transform="translate(145.434 207.739)" fill="#2a3846"/>
      <path id="Fill_31" data-name="Fill 31" d="M5.05,2.807C4.543,1.952,4.013,1.113,3.329,0,2.286,1.739,1.44,3.132.615,4.539A15.168,15.168,0,0,0,0,5.956c2.3.043,4.355.116,6.825-.064C6.069,4.577,5.571,3.685,5.05,2.807" transform="translate(163.647 207.828)" fill="#2a3846"/>
      <path id="Fill_37" data-name="Fill 37" d="M0,5.823H6.759C5.533,3.723,4.52,1.986,3.36,0A26.764,26.764,0,0,0,0,5.823" transform="translate(290.831 207.88)" fill="#49aef7"/>
      <path id="Fill_41" data-name="Fill 41" d="M.312,6.1c2.042-.145,4.1.243,6.414-.277L3.278,0C2.033,2.133,1.016,3.871,0,5.61c.1.163.208.327.312.49" transform="translate(308.97 103.903)" fill="#7556e6"/>
      <path id="Fill_43" data-name="Fill 43" d="M6.986,5.767A50.721,50.721,0,0,0,3.492,0L0,5.955a52.93,52.93,0,0,0,6.986-.188" transform="translate(290.526 104.027)" fill="#7556e6"/>
      <path id="Fill_45" data-name="Fill 45" d="M0,5.6c.09.162.178.327.268.49C2.322,6,4.386,6.3,6.712,5.864L3.278,0,0,5.6" transform="translate(236.345 103.897)" fill="#7556e6"/>
      <path id="Fill_47" data-name="Fill 47" d="M6.92,5.919,3.463,0C2.219,2.122,1.2,3.863,0,5.912a29.62,29.62,0,0,0,6.92.008" transform="translate(218.004 103.892)" fill="#536dfe"/>
      <path id="Fill_49" data-name="Fill 49" d="M0,5.95H6.732C5.506,3.853,4.486,2.111,3.252,0,2.052,2.166.746,3.771,0,5.95" transform="translate(163.746 103.914)" fill="#7556e6"/>
      <path id="Fill_51" data-name="Fill 51" d="M6.957,5.808A50.145,50.145,0,0,0,3.437,0C2.238,2.045,1.222,3.776,0,5.864a42.833,42.833,0,0,0,6.957-.056" transform="translate(145.308 104.03)" fill="#7556e6"/>
      <path id="Fill_53" data-name="Fill 53" d="M6.992,5.82A67,67,0,0,0,3.483,0C2.285,2.056,1.27,3.8,0,5.971A58.813,58.813,0,0,0,6.992,5.82" transform="translate(90.799 104.002)" fill="#7556e6"/>
      <path id="Fill_55" data-name="Fill 55" d="M0,5.75a44.028,44.028,0,0,0,6.954,0A35.911,35.911,0,0,0,3.4,0C2.251,1.939,1.229,3.67,0,5.75" transform="translate(72.68 104.12)" fill="#7556e6"/>
      <path id="Fill_57" data-name="Fill 57" d="M6.442,5.574C5.239,3.548,4.211,1.818,3.131,0A13.02,13.02,0,0,0,0,5.826c1.722,0,3.423.01,5.124-.008a9.713,9.713,0,0,0,1.318-.244" transform="translate(18.718 104.161)" fill="#7556e6"/>
      <path id="Fill_62" data-name="Fill 62" d="M0,5.878a40.962,40.962,0,0,0,6.925-.044A44.467,44.467,0,0,0,3.4,0L0,5.878" transform="translate(0.068 0.167)" fill="#7556e6"/>
      <path id="Fill_64" data-name="Fill 64" d="M6.683,5.652A35.422,35.422,0,0,0,3.146,0L0,5.435q.152.243.307.487c2.041-.143,4.1.247,6.376-.269" transform="translate(18.432 0.242)" fill="#7556e6"/>
      <path id="Fill_66" data-name="Fill 66" d="M3.118,0C1.3,2.161.165,4.295,0,5.718H6.464C5.27,3.678,4.258,1.948,3.118,0" transform="translate(36.913 0.28)" fill="#7556e6"/>
      <path id="Fill_68" data-name="Fill 68" d="M0,5.542q.186.227.375.452A35.053,35.053,0,0,0,6.7,5.772,56.383,56.383,0,0,0,3.247,0C2.029,2.079,1.014,3.809,0,5.542" transform="translate(54.72 0.135)" fill="#7556e6"/>
      <path id="Fill_70" data-name="Fill 70" d="M3.248,0C2.229,1.709,1.383,3.106.563,4.519A13.04,13.04,0,0,0,0,5.857a39.608,39.608,0,0,0,6.736-.024A46.54,46.54,0,0,0,3.248,0" transform="translate(72.889 0.183)" fill="#7556e6"/>
      <path id="Fill_72" data-name="Fill 72" d="M6.75,5.9,3.277,0C2.032,2.135,1.015,3.875,0,5.614l.267.509A42.362,42.362,0,0,0,6.75,5.9" transform="translate(91.068 0.025)" fill="#7556e6"/>
      <path id="Fill_74" data-name="Fill 74" d="M0,5.718H6.463C5.271,3.678,4.257,1.948,3.118,0,1.306,2.161.165,4.295,0,5.718" transform="translate(109.548 0.28)" fill="#7556e6"/>
      <path id="Fill_76" data-name="Fill 76" d="M.374,5.994A35.046,35.046,0,0,0,6.7,5.772,55.8,55.8,0,0,0,3.246,0L0,5.542l.374.452" transform="translate(127.356 0.135)" fill="#7556e6"/>
      <path id="Fill_78" data-name="Fill 78" d="M6.715,5.574A13.516,13.516,0,0,0,3.25,0L0,5.557a48.378,48.378,0,0,0,6.715.017" transform="translate(145.316 0.483)" fill="#7556e6"/>
      <path id="Fill_80" data-name="Fill 80" d="M6.407,5.472A38.371,38.371,0,0,0,3.034,0,12.529,12.529,0,0,0,0,5.72c1.725,0,3.428.01,5.132-.008a9,9,0,0,0,1.275-.241" transform="translate(163.988 0.428)" fill="#7556e6"/>
      <path id="Fill_82" data-name="Fill 82" d="M6.7,5.874A60.123,60.123,0,0,0,3.271,0,35.068,35.068,0,0,0,0,6a55.31,55.31,0,0,0,6.7-.129" transform="translate(181.853 0.122)" fill="#7556e6"/>
      <path id="Fill_84" data-name="Fill 84" d="M6.646,5.662,3.334,0C2.094,2.152,1.07,3.93,0,5.788a13.311,13.311,0,0,0,6.646-.125" transform="translate(199.967 0.014)" fill="#7556e6"/>
      <path id="Fill_86" data-name="Fill 86" d="M0,6.061a50.258,50.258,0,0,0,6.994-.036L3.512,0,0,6.061" transform="translate(217.954 0)" fill="#7556e6"/>
      <path id="Fill_88" data-name="Fill 88" d="M0,5.877c2.032-.081,4.056.233,6.378-.246L3.118,0C1.221,2.329.137,4.381,0,5.877" transform="translate(236.647 0.262)" fill="#7556e6"/>
      <path id="Fill_90" data-name="Fill 90" d="M0,5.519l.38.461a36.712,36.712,0,0,0,6.283-.2A43.675,43.675,0,0,0,3.235,0C2.033,2.052,1.016,3.786,0,5.519" transform="translate(254.472 0.151)" fill="#7556e6"/>
      <path id="Fill_92" data-name="Fill 92" d="M6.683,5.842A50.841,50.841,0,0,0,3.374,0,37.163,37.163,0,0,0,0,5.842Z" transform="translate(272.6 0.164)" fill="#7556e6"/>
      <path id="Fill_94" data-name="Fill 94" d="M7.051,5.925,3.595,0,0,6.111a48.456,48.456,0,0,0,7.051-.186" transform="translate(290.511 0.023)" fill="#7556e6"/>
      <path id="Fill_96" data-name="Fill 96" d="M6.922,5.917A53.455,53.455,0,0,0,3.432,0L0,5.924a43.228,43.228,0,0,0,6.922-.006" transform="translate(308.763 0.109)" fill="#7556e6"/>
      <path id="Fill_98" data-name="Fill 98" d="M3.2,0C2.007,2.125.711,3.752,0,5.931H6.53A29.71,29.71,0,0,0,3.2,0" transform="translate(327.168 0.137)" fill="#7556e6"/>
      <path id="Fill_100" data-name="Fill 100" d="M3.4,0A42.672,42.672,0,0,0,0,5.955a57.229,57.229,0,0,0,6.818-.147C5.618,3.769,4.6,2.038,3.4,0" transform="translate(272.579 52.031)" fill="#7556e6"/>
      <path id="Fill_102" data-name="Fill 102" d="M3.238,0A33.443,33.443,0,0,0,0,5.831H6.681L3.238,0" transform="translate(254.573 52.023)" fill="#7556e6"/>
      <path id="Fill_104" data-name="Fill 104" d="M6.659,5.341C5.456,2.368,4.252.57,3.1,0,2.125,1.683,1.145,3.371,0,5.341Z" transform="translate(199.854 52.523)" fill="#7556e6"/>
      <path id="Fill_106" data-name="Fill 106" d="M3.422,0,0,5.812H6.862A62.084,62.084,0,0,0,3.422,0" transform="translate(181.673 52.048)" fill="#7556e6"/>
      <path id="Fill_108" data-name="Fill 108" d="M3.226,0C2,2.1.734,3.729,0,5.852H6.638L3.226,0" transform="translate(127.471 51.997)" fill="#7556e6"/>
      <path id="Fill_110" data-name="Fill 110" d="M0,5.885a29.742,29.742,0,0,0,6.728-.1L3.313,0A49.982,49.982,0,0,0,0,5.885" transform="translate(109.212 51.997)" fill="#7556e6"/>
      <path id="Fill_112" data-name="Fill 112" d="M3.284,0C2.111,2.2.847,3.834,0,6.031a48.108,48.108,0,0,0,6.753-.137C5.559,3.867,4.539,2.134,3.284,0" transform="translate(54.732 51.934)" fill="#7556e6"/>
      <path id="Fill_114" data-name="Fill 114" d="M6.889,5.834C5.712,3.843,4.71,2.15,3.44,0,2.189,2.137,1.175,3.869,0,5.877a29.2,29.2,0,0,0,6.889-.043" transform="translate(36.429 51.965)" fill="#7556e6"/>
      <path id="Fill_116" data-name="Fill 116" d="M0,6.075c2.375-.114,4.4.237,6.73-.292C5.577,3.836,4.547,2.093,3.309,0A39.931,39.931,0,0,0,0,6.075" transform="translate(36.569 207.76)" fill="#fff"/>
      <path id="Fill_118" data-name="Fill 118" d="M0,5.836a14.386,14.386,0,0,0,6.535-.271L3.258,0A33.277,33.277,0,0,0,0,5.836" transform="translate(54.806 207.792)" fill="#fff"/>
      <path id="Fill_120" data-name="Fill 120" d="M3.275,0C2.081,2.184.779,3.822,0,6.093a62.8,62.8,0,0,0,6.776-.177C5.545,3.833,4.51,2.085,3.275,0" transform="translate(36.591 103.904)" fill="#7556e6"/>
      <path id="Fill_122" data-name="Fill 122" d="M3.429,0C2.234,2.03,1.229,3.734,0,5.818H6.875A41.466,41.466,0,0,0,3.429,0" transform="translate(109.008 207.863)" fill="#fff"/>
      <path id="Fill_124" data-name="Fill 124" d="M0,5.6l.362.48C2.376,6.021,4.4,6.208,6.8,5.926,5.569,3.831,4.543,2.091,3.311,0L0,5.6" transform="translate(54.725 103.91)" fill="#7556e6"/>
      <path id="Fill_126" data-name="Fill 126" d="M0,5.927H6.849L3.363,0A38.261,38.261,0,0,0,0,5.927" transform="translate(127.346 207.806)" fill="#fff"/>
      <path id="Fill_128" data-name="Fill 128" d="M7,5.841C5.837,3.868,4.811,2.127,3.553,0,2.316,2.1,1.293,3.835,0,6.027a37.4,37.4,0,0,0,7-.186" transform="translate(181.591 207.747)" fill="#2a3846"/>
      <path id="Fill_130" data-name="Fill 130" d="M0,5.622c2.408-.076,4.427.221,6.472-.185A12.874,12.874,0,0,0,3.137,0,43.961,43.961,0,0,0,0,5.622" transform="translate(109.139 104.359)" fill="#7556e6"/>
      <path id="Fill_132" data-name="Fill 132" d="M6.943,5.68A33.082,33.082,0,0,0,3.365,0C2.232,1.913,1.222,3.618,0,5.68Z" transform="translate(127.166 104.153)" fill="#7556e6"/>
      <path id="Fill_134" data-name="Fill 134" d="M6.657,5.773C5.483,3.8,4.477,2.1,3.229,0,2.029,2.2.75,3.784,0,5.974a33.113,33.113,0,0,0,6.657-.2" transform="translate(309.011 155.823)" fill="#4500a7"/>
      <path id="Fill_136" data-name="Fill 136" d="M6.618,5.572C5.608,3.846,4.612,2.14,3.358,0,2.078,2.179,1.064,3.907,0,5.719a13.052,13.052,0,0,0,6.618-.147" transform="translate(290.743 155.791)" fill="#4500a7"/>
      <path id="Fill_138" data-name="Fill 138" d="M0,6.194c2.348-.142,4.365.223,6.686-.308L3.207,0C2.1,2.35.695,3.92,0,6.194" transform="translate(181.883 103.819)" fill="#7556e6"/>
      <path id="Fill_140" data-name="Fill 140" d="M3.143,0C2.043,2.236.657,3.775,0,5.926H6.571A55.125,55.125,0,0,0,3.143,0" transform="translate(200.095 103.915)" fill="#7556e6"/>
      <path id="Fill_142" data-name="Fill 142" d="M6.9,5.926,3.428,0C2.191,2.124,1.176,3.863,0,5.878a35.634,35.634,0,0,0,6.9.048" transform="translate(236.187 155.793)" fill="#4500a7"/>
      <path id="Fill_144" data-name="Fill 144" d="M3.146,0C2.007,2.094.758,3.688,0,5.755H6.649A48.394,48.394,0,0,0,3.146,0" transform="translate(218.228 155.939)" fill="#7556e6"/>
      <path id="Fill_146" data-name="Fill 146" d="M0,5.354a15.978,15.978,0,0,0,6.315-.049A12.746,12.746,0,0,0,3.014,0,43.754,43.754,0,0,0,0,5.354" transform="translate(254.53 104.359)" fill="#7556e6"/>
      <path id="Fill_148" data-name="Fill 148" d="M3.263,0,0,5.516a42,42,0,0,0,6.649-.1A12.758,12.758,0,0,0,3.263,0" transform="translate(0.029 52.428)" fill="#7556e6"/>
      <path id="Fill_150" data-name="Fill 150" d="M6.877,5.673A50.554,50.554,0,0,0,3.393,0L0,5.785a32.839,32.839,0,0,0,6.877-.112" transform="translate(18.23 52.117)" fill="#7556e6"/>
      <path id="Fill_152" data-name="Fill 152" d="M3.452,0,0,5.931a32.749,32.749,0,0,0,6.9-.094C5.746,3.883,4.738,2.179,3.452,0" transform="translate(163.524 155.796)" fill="#7556e6"/>
      <path id="Fill_154" data-name="Fill 154" d="M6.648,5.635A32.3,32.3,0,0,0,3.144,0,35.034,35.034,0,0,0,0,5.635Z" transform="translate(72.949 52.233)" fill="#7556e6"/>
      <path id="Fill_156" data-name="Fill 156" d="M6.878,5.673A50.874,50.874,0,0,0,3.394,0L0,5.785a32.849,32.849,0,0,0,6.878-.112" transform="translate(90.865 52.117)" fill="#7556e6"/>
      <path id="Fill_158" data-name="Fill 158" d="M3.181,0C2.167,1.716,1.16,3.419,0,5.381a31.343,31.343,0,0,0,6.583.087A12.8,12.8,0,0,0,3.181,0" transform="translate(145.381 156.266)" fill="#7556e6"/>
      <path id="Fill_160" data-name="Fill 160" d="M6.577,5.474A12.776,12.776,0,0,0,3.179,0C2.164,1.716,1.158,3.42,0,5.377a31.376,31.376,0,0,0,6.577.1" transform="translate(145.384 52.427)" fill="#7556e6"/>
      <path id="Fill_162" data-name="Fill 162" d="M3.254,0A41.531,41.531,0,0,0,0,5.949a31.6,31.6,0,0,0,6.677-.157L3.254,0" transform="translate(163.729 51.979)" fill="#7556e6"/>
      <path id="Fill_164" data-name="Fill 164" d="M0,5.725a37.324,37.324,0,0,0,6.987-.137C5.647,3.635,4.935,1.712,3.382,0,2.259,1.9,1.256,3.6,0,5.725" transform="translate(217.956 52.202)" fill="#536dfe"/>
      <path id="Fill_166" data-name="Fill 166" d="M0,5.9H6.916L3.434,0C2.183,2.147,1.173,3.885,0,5.9" transform="translate(236.178 51.956)" fill="#7556e6"/>
      <path id="Fill_168" data-name="Fill 168" d="M6.653,5.6C5.631,3.867,4.626,2.16,3.354,0,2.1,2.129,1.068,3.87,0,5.676A12.577,12.577,0,0,0,6.653,5.6" transform="translate(272.589 103.906)" fill="#7556e6"/>
      <path id="Fill_170" data-name="Fill 170" d="M6.726,5.762A48.37,48.37,0,0,0,3.219,0C2.064,2.089.894,3.726,0,5.762Z" transform="translate(290.786 52.095)" fill="#536dfe"/>
      <path id="Fill_172" data-name="Fill 172" d="M3.429,0,0,5.876a35.933,35.933,0,0,0,6.9.05L3.429,0" transform="translate(308.821 51.956)" fill="#536dfe"/>
      <path id="Fill_174" data-name="Fill 174" d="M3.468,0C2.209,2.161,1.2,3.895,0,5.954a32.75,32.75,0,0,0,6.9-.14L3.468,0" transform="translate(90.871 155.798)" fill="#7556e6"/>
      <path id="Fill_178" data-name="Fill 178" d="M0,5.685H6.512L3.171,0A12.7,12.7,0,0,0,0,5.685" transform="translate(200.317 208.049)" fill="#2a3846"/>
      <path id="Fill_180" data-name="Fill 180" d="M6.9,5.865,3.478,0C2.217,2.149,1.2,3.884,0,5.93a35.423,35.423,0,0,0,6.9-.065" transform="translate(72.724 155.795)" fill="#7556e6"/>
      <path id="Fill_184" data-name="Fill 184" d="M3.446,0C2.2,2.135,1.188,3.872,0,5.908a35.459,35.459,0,0,0,6.893,0L3.446,0" transform="translate(18.267 155.788)" fill="#7556e6"/>
      <path id="Fill_186" data-name="Fill 186" d="M6.506,5.386A52.737,52.737,0,0,0,3.25,0,39.354,39.354,0,0,0,0,5.513a12.476,12.476,0,0,0,6.506-.127" transform="translate(272.685 207.962)" fill="#49aef7"/>
      <path id="Fill_188" data-name="Fill 188" d="M3.439,0C2.191,2.138,1.174,3.877,0,5.885a35.368,35.368,0,0,0,6.9.045C5.7,3.879,4.687,2.14,3.439,0" transform="translate(0.123 155.787)" fill="#7556e6"/>
      <path id="Fill_192" data-name="Fill 192" d="M3.433,0C2.193,2.144,1.183,3.89,0,5.935H6.878C5.7,3.9,4.666,2.122,3.433,0" transform="translate(308.811 34.635)" fill="#7556e6"/>
      <path id="Fill_194" data-name="Fill 194" d="M3.118,0A14.17,14.17,0,0,0,0,5.653H6.442C5.246,3.619,4.21,1.855,3.118,0" transform="translate(291.109 34.913)" fill="#7556e6"/>
      <path id="Fill_196" data-name="Fill 196" d="M6.964,5.8A62.9,62.9,0,0,0,3.429,0L0,5.922c2.511-.03,4.559.124,6.964-.123" transform="translate(236.107 34.764)" fill="#7556e6"/>
      <path id="Fill_198" data-name="Fill 198" d="M6.919,5.872C5.778,3.9,4.771,2.156,3.523,0,2.23,2.236,1.222,3.976,0,6.086a47.417,47.417,0,0,0,6.919-.214" transform="translate(217.938 34.609)" fill="#7556e6"/>
      <path id="Fill_200" data-name="Fill 200" d="M3.424,0A47.676,47.676,0,0,0,0,5.968a66.639,66.639,0,0,0,6.825-.124L3.424,0" transform="translate(163.613 34.713)" fill="#7556e6"/>
      <path id="Fill_202" data-name="Fill 202" d="M3.194,0A14.956,14.956,0,0,0,0,5.663H6.5C5.267,3.555,4.253,1.818,3.194,0" transform="translate(145.803 34.92)" fill="#7556e6"/>
      <path id="Fill_204" data-name="Fill 204" d="M3.391,0C2.152,2.144,1.142,3.888,0,5.863c3.084.387,5.275.3,6.662-.254C5.634,3.847,4.619,2.106,3.391,0" transform="translate(90.954 34.623)" fill="#6c0bfe"/>
      <path id="Fill_206" data-name="Fill 206" d="M3.266,0A57.818,57.818,0,0,0,0,5.914H6.743L3.266,0" transform="translate(72.907 34.656)" fill="#6c0bfe"/>
      <path id="Fill_208" data-name="Fill 208" d="M6.848,5.85C5.7,3.881,4.685,2.142,3.436,0,2.164,2.2,1.154,3.937,0,5.93a31.371,31.371,0,0,0,6.848-.08" transform="translate(18.268 34.639)" fill="#7556e6"/>
      <path id="Fill_210" data-name="Fill 210" d="M0,5.858H6.711C5.542,3.846,4.528,2.1,3.309,0A40.661,40.661,0,0,0,0,5.858" transform="translate(0.285 34.697)" fill="#7556e6"/>
      <path id="Fill_212" data-name="Fill 212" d="M6.543,5.439A12.942,12.942,0,0,0,3.169,0L0,5.439Z" transform="translate(236.189 138.957)" fill="#7556e6"/>
      <path id="Fill_214" data-name="Fill 214" d="M6.733,5.785A34.57,34.57,0,0,0,3.305,0c-.718,1.188-1.269,2.063-1.78,2.958C1.032,3.82.58,4.7,0,5.785Z" transform="translate(308.881 86.753)" fill="#7556e6"/>
      <path id="Fill_216" data-name="Fill 216" d="M6.448,5.518,3.226,0A34.141,34.141,0,0,0,0,5.745a13.552,13.552,0,0,0,6.448-.227" transform="translate(290.912 86.629)" fill="#7556e6"/>
      <path id="Fill_218" data-name="Fill 218" d="M3.288,0A52.4,52.4,0,0,0,0,5.874H6.74L3.288,0" transform="translate(290.815 138.526)" fill="#7556e6"/>
      <path id="Fill_220" data-name="Fill 220" d="M3.1,0C2.028,2.119.709,3.705,0,5.806H6.651A55.7,55.7,0,0,0,3.1,0" transform="translate(309.046 138.612)" fill="#7556e6"/>
      <path id="Fill_222" data-name="Fill 222" d="M3.293,0A53.566,53.566,0,0,0,0,5.881H6.752L3.293,0" transform="translate(218.172 138.53)" fill="#7556e6"/>
      <path id="Fill_224" data-name="Fill 224" d="M3.307,0C2.59,1.189,2.038,2.061,1.527,2.958,1.033,3.82.583,4.7,0,5.786H6.735A34.619,34.619,0,0,0,3.307,0" transform="translate(236.244 86.753)" fill="#7556e6"/>
      <path id="Fill_226" data-name="Fill 226" d="M6.714,5.656A41.19,41.19,0,0,0,3.157,0,31.852,31.852,0,0,0,0,5.656Z" transform="translate(218.224 86.847)" fill="#536dfe"/>
      <path id="Fill_228" data-name="Fill 228" d="M3.394,0C2.21,2.013,1.186,3.758,0,5.777H6.907A53.08,53.08,0,0,0,3.394,0" transform="translate(163.513 86.721)" fill="#fec313"/>
      <path id="Fill_230" data-name="Fill 230" d="M6.6,5.79A39.828,39.828,0,0,0,3.1,0C2.022,2.14.695,3.721,0,5.79Z" transform="translate(145.611 86.691)" fill="#fec313"/>
      <path id="Fill_232" data-name="Fill 232" d="M3.353,0A45.952,45.952,0,0,0,0,5.9H6.817C5.579,3.792,4.555,2.05,3.353,0" transform="translate(91.023 86.646)" fill="#fec313"/>
      <path id="Fill_234" data-name="Fill 234" d="M0,5.661H6.488C5.258,3.555,4.24,1.811,3.182,0A13.154,13.154,0,0,0,0,5.661" transform="translate(73.197 86.885)" fill="#7556e6"/>
      <path id="Fill_236" data-name="Fill 236" d="M3.155,0C2,2.045.738,3.659,0,5.749H6.72C5.409,3.655,4.54,1.813,3.155,0" transform="translate(163.76 138.668)" fill="#7556e6"/>
      <path id="Fill_238" data-name="Fill 238" d="M3.355,0C2.061,2.177.932,3.862,0,5.852H6.8C5.615,3.839,4.59,2.1,3.355,0" transform="translate(18.365 86.62)" fill="#7556e6"/>
      <path id="Fill_242" data-name="Fill 242" d="M0,5.66H6.967C5.68,3.659,4.906,1.734,3.351,0,2.225,1.9,1.217,3.6,0,5.66" transform="translate(145.347 138.757)" fill="#7556e6"/>
      <path id="Fill_246" data-name="Fill 246" d="M0,5.648H6.506C5.279,3.55,4.258,1.806,3.2,0A13.374,13.374,0,0,0,0,5.648" transform="translate(291.089 190.734)" fill="#7556e6"/>
      <path id="Fill_248" data-name="Fill 248" d="M0,5.9H6.82C5.582,3.792,4.559,2.049,3.355,0A46.743,46.743,0,0,0,0,5.9" transform="translate(236.29 190.485)" fill="#7556e6"/>
      <path id="Fill_250" data-name="Fill 250" d="M6.448,5.519C5.435,3.786,4.435,2.07,3.226,0A34.114,34.114,0,0,0,0,5.746a13.553,13.553,0,0,0,6.448-.227" transform="translate(218.277 190.466)" fill="#7556e6"/>
      <path id="Fill_252" data-name="Fill 252" d="M3.173,0A13.3,13.3,0,0,0,0,5.65H6.495C5.26,3.548,4.235,1.806,3.173,0" transform="translate(163.982 190.736)" fill="#7556e6"/>
      <path id="Fill_254" data-name="Fill 254" d="M3.155,0C2.007,2.08.738,3.687,0,5.772H6.578A36.615,36.615,0,0,0,3.155,0" transform="translate(145.595 190.558)" fill="#6c0bfe"/>
      <path id="Fill_256" data-name="Fill 256" d="M0,5.895H6.819C5.582,3.789,4.559,2.044,3.357,0A45.974,45.974,0,0,0,0,5.895" transform="translate(91.02 190.488)" fill="#6c0bfe"/>
      <path id="Fill_258" data-name="Fill 258" d="M0,5.884H6.9L3.464,0,0,5.884" transform="translate(72.743 190.426)" fill="#7556e6"/>
      <path id="Fill_260" data-name="Fill 260" d="M0,5.9H6.819C5.581,3.792,4.558,2.049,3.355,0A46.467,46.467,0,0,0,0,5.9" transform="translate(18.385 190.485)" fill="none"/>
      <path id="Fill_262" data-name="Fill 262" d="M3.354,0C2.206,1.96,1.182,3.7,0,5.718H6.952A45.119,45.119,0,0,0,3.354,0" transform="translate(0.082 190.614)" fill="none"/>
      <path id="Fill_264" data-name="Fill 264" d="M0,5.983A55.237,55.237,0,0,0,6.972,5.85C5.775,3.811,4.752,2.076,3.533,0,2.271,2.136,1.244,3.875,0,5.983" transform="translate(0.03 138.522)" fill="#7556e6"/>
      <path id="Fill_266" data-name="Fill 266" d="M6.718,5.793,3.319,0A46.5,46.5,0,0,0,0,5.793Z" transform="translate(18.426 138.584)" fill="#7556e6"/>
      <path id="Fill_268" data-name="Fill 268" d="M0,5.662H6.462L3.155,0A12.9,12.9,0,0,0,0,5.662" transform="translate(73.214 138.805)" fill="#7556e6"/>
      <path id="Fill_270" data-name="Fill 270" d="M.419,4.8A8.645,8.645,0,0,0,0,5.875,43.347,43.347,0,0,0,6.741,5.9L3.251,0C2.156,1.852,1.278,3.323.419,4.8" transform="translate(91.099 138.533)" fill="#7556e6"/>
      <path id="Fill_274" data-name="Fill 274" d="M0,5.956H6.749L3.261,0A50.5,50.5,0,0,0,0,5.956" transform="translate(272.675 86.554)" fill="#7556e6"/>
      <path id="Fill_276" data-name="Fill 276" d="M3.3,0A37.172,37.172,0,0,0,0,5.98c2.325,0,4.334.121,6.744-.1L3.3,0" transform="translate(254.508 86.611)" fill="#7556e6"/>
      <path id="Fill_278" data-name="Fill 278" d="M3.129,0A44.456,44.456,0,0,0,0,5.695H6.739A40.221,40.221,0,0,0,3.129,0" transform="translate(200.042 86.804)" fill="#7556e6"/>
      <path id="Fill_280" data-name="Fill 280" d="M6.94,5.806C5.775,3.828,4.754,2.093,3.522,0,2.3,2.093,1.283,3.834,0,6.027a43.015,43.015,0,0,0,6.94-.221" transform="translate(181.617 86.572)" fill="#7556e6"/>
      <path id="Fill_282" data-name="Fill 282" d="M.35,6.022A34.778,34.778,0,0,0,6.661,5.8C5.513,3.834,4.5,2.093,3.273,0L0,5.561c.117.154.235.306.35.461" transform="translate(127.402 86.572)" fill="#fec313"/>
      <path id="Fill_284" data-name="Fill 284" d="M3.309,0A55.324,55.324,0,0,0,0,5.735H6.637A40.359,40.359,0,0,0,3.309,0" transform="translate(109.178 86.725)" fill="#fec313"/>
      <path id="Fill_286" data-name="Fill 286" d="M6.635,5.772,3.263,0C2.027,2.122.758,3.766,0,6a38.311,38.311,0,0,0,6.635-.227" transform="translate(54.792 86.599)" fill="#7556e6"/>
      <path id="Fill_288" data-name="Fill 288" d="M3.311,0A55.32,55.32,0,0,0,0,5.736H6.638A40.43,40.43,0,0,0,3.311,0" transform="translate(36.542 86.725)" fill="#7556e6"/>
      <path id="Fill_290" data-name="Fill 290" d="M0,6.006a57.582,57.582,0,0,0,6.723-.141C5.545,3.832,4.56,2.131,3.327,0A40.04,40.04,0,0,0,0,6.006" transform="translate(327.123 34.673)" fill="#7556e6"/>
      <path id="Fill_292" data-name="Fill 292" d="M3.18,0A49.275,49.275,0,0,0,0,5.759H6.589A37.614,37.614,0,0,0,3.18,0" transform="translate(254.52 34.784)" fill="#7556e6"/>
      <path id="Fill_294" data-name="Fill 294" d="M6.96,5.914C5.742,3.821,4.73,2.079,3.52,0,2.277,2.144,1.261,3.894,0,6.067a61.184,61.184,0,0,0,6.96-.153" transform="translate(181.623 34.62)" fill="#7556e6"/>
      <path id="Fill_296" data-name="Fill 296" d="M6.909,5.823C5.752,3.844,4.733,2.1,3.505,0,2.284,2.106,1.271,3.854,0,6.044a40.529,40.529,0,0,0,6.909-.221" transform="translate(108.999 34.63)" fill="#6c0bfe"/>
      <path id="Fill_300" data-name="Fill 300" d="M6.726,5.878,3.289,0A38.208,38.208,0,0,0,0,6.048c2.343-.081,4.357.115,6.726-.17" transform="translate(36.598 34.664)" fill="#7556e6"/>
      <path id="Fill_302" data-name="Fill 302" d="M3.082,0C2,2.193.6,3.716,0,5.872H6.5A53.752,53.752,0,0,0,3.082,0" transform="translate(272.791 190.448)" fill="#7556e6"/>
      <path id="Fill_304" data-name="Fill 304" d="M3.117,0A49.622,49.622,0,0,0,0,5.627H6.311A15.766,15.766,0,0,0,3.117,0" transform="translate(254.508 190.677)" fill="#7556e6"/>
      <path id="Fill_306" data-name="Fill 306" d="M6.823,5.838C5.593,3.738,4.579,2,3.406,0A42.67,42.67,0,0,0,0,5.943c2.464-.005,4.468.124,6.823-.1" transform="translate(199.947 190.489)" fill="#7556e6"/>
      <path id="Fill_308" data-name="Fill 308" d="M6.713,5.947C5.487,3.857,4.469,2.12,3.225,0,2.091,2.273.748,3.893,0,6.087a57.772,57.772,0,0,0,6.713-.141" transform="translate(181.884 190.35)" fill="#7556e6"/>
      <path id="Fill_310" data-name="Fill 310" d="M6.643,5.83,3.238,0C2.074,2.2.755,3.818,0,6.057A38.376,38.376,0,0,0,6.643,5.83" transform="translate(127.421 190.381)" fill="#6c0bfe"/>
      <path id="Fill_312" data-name="Fill 312" d="M3.162,0C2.01,2.132.73,3.726,0,5.851H6.612C5.491,3.766,4.479,2,3.162,0" transform="translate(109.301 190.474)" fill="#6c0bfe"/>
      <path id="Fill_314" data-name="Fill 314" d="M3.3,0A32.126,32.126,0,0,0,0,5.971a45.884,45.884,0,0,0,6.678-.185C5.513,3.793,4.493,2.05,3.3,0" transform="translate(54.776 190.464)" fill="none"/>
      <path id="Fill_316" data-name="Fill 316" d="M6.494,5.462A12.219,12.219,0,0,0,3.2,0C2.194,1.72,1.2,3.419,0,5.462Z" transform="translate(36.418 190.843)" fill="none"/>
      <path id="Fill_318" data-name="Fill 318" d="M3.321,0A31.724,31.724,0,0,0,0,5.859H6.724C5.518,3.78,4.5,2.031,3.321,0" transform="translate(54.777 34.73)" fill="#6c0bfe"/>
      <path id="Fill_320" data-name="Fill 320" d="M3.3,0A33.209,33.209,0,0,0,0,5.9H6.719L3.3,0" transform="translate(127.418 34.704)" fill="#6c0bfe"/>
      <path id="Fill_322" data-name="Fill 322" d="M0,5.829H6.54A43.152,43.152,0,0,0,3.05,0C1.979,2.119.619,3.668,0,5.829" transform="translate(200.149 34.756)" fill="#7556e6"/>
      <path id="Fill_324" data-name="Fill 324" d="M3.321,0A31.628,31.628,0,0,0,0,5.859H6.724C5.518,3.781,4.5,2.031,3.321,0" transform="translate(272.683 34.73)" fill="#7556e6"/>
      <path id="Fill_326" data-name="Fill 326" d="M6.971,5.869,3.522,0C2.284,2.114,1.266,3.858,0,6.021a60.649,60.649,0,0,0,6.971-.153" transform="translate(36.347 138.502)" fill="#7556e6"/>
      <path id="Fill_328" data-name="Fill 328" d="M0,5.975a65.976,65.976,0,0,0,6.719-.112C5.5,3.777,4.483,2.043,3.288,0A35.862,35.862,0,0,0,0,5.975" transform="translate(54.771 138.54)" fill="#7556e6"/>
      <path id="Fill_330" data-name="Fill 330" d="M3.313,0A42.144,42.144,0,0,0,0,5.887H6.78L3.313,0" transform="translate(109.224 138.565)" fill="#7556e6"/>
      <path id="Fill_332" data-name="Fill 332" d="M0,5.914H6.4A42.645,42.645,0,0,0,3.168,0C1.976,2.2.7,3.78,0,5.914" transform="translate(127.492 138.494)" fill="#7556e6"/>
      <path id="Fill_334" data-name="Fill 334" d="M6.629,5.825C5.454,3.678,4.472,1.927,3.173,0,2,2.112.722,3.752,0,5.825Z" transform="translate(181.926 138.592)" fill="#7556e6"/>
      <path id="Fill_336" data-name="Fill 336" d="M3.186,0A46.979,46.979,0,0,0,0,5.791H6.62A42.049,42.049,0,0,0,3.186,0" transform="translate(200.043 138.632)" fill="#7556e6"/>
      <path id="Fill_338" data-name="Fill 338" d="M3.409,6.076c.975-.051,2.01.261,3.143-.411C5.494,3.874,4.494,2.183,3.206,0,2.087,2.28.739,3.887,0,6.088c1.356,0,2.385.041,3.409-.012" transform="translate(254.528 138.448)" fill="#7556e6"/>
      <path id="Fill_340" data-name="Fill 340" d="M3.06,0C1.232,2.152.1,4.3,0,5.669H6.378C5.137,3.546,4.122,1.815,3.06,0" transform="translate(273.038 138.768)" fill="#7556e6"/>
      <path id="Fill_342" data-name="Fill 342" d="M3.327,0A39.714,39.714,0,0,0,0,6.015c2.344-.153,4.36.216,6.678-.313C5.533,3.754,4.512,2.017,3.327,0" transform="translate(327.111 138.549)" fill="#7556e6"/>
      <path id="Fill_344" data-name="Fill 344" d="M3.287,0A40.757,40.757,0,0,0,0,5.98c2.362-.063,4.374.223,6.676-.237C5.554,3.842,4.559,2.155,3.287,0" transform="translate(327.137 121.209)" fill="#7556e6"/>
      <path id="Fill_346" data-name="Fill 346" d="M5.426,5.8c.385,0,.77-.084,1.538-.174A42.681,42.681,0,0,0,3.425,0L0,5.8c2.153,0,3.789.009,5.426-.006" transform="translate(272.396 121.395)" fill="#7556e6"/>
      <path id="Fill_348" data-name="Fill 348" d="M6.9,5.86C5.707,3.844,4.686,2.112,3.44,0,2.211,2.093,1.2,3.819,0,5.86Z" transform="translate(254.339 121.19)" fill="#7556e6"/>
      <path id="Fill_350" data-name="Fill 350" d="M3.33,0A41.829,41.829,0,0,0,0,5.987c1.378,0,2.4.012,3.42,0,.988-.014,1.975-.056,3.362-.1C5.555,3.792,4.54,2.065,3.33,0" transform="translate(199.994 121.216)" fill="#7556e6"/>
      <path id="Fill_352" data-name="Fill 352" d="M3.282,0A42.909,42.909,0,0,0,0,5.822H6.719C5.529,3.808,4.509,2.077,3.282,0" transform="translate(181.887 121.234)" fill="#7556e6"/>
      <path id="Fill_354" data-name="Fill 354" d="M6.889,5.74C5.773,3.827,4.784,2.134,3.537,0,2.27,2.15,1.247,3.877,0,5.99c2.537-.069,4.584.265,6.889-.25" transform="translate(127.134 121.191)" fill="#4500a7"/>
      <path id="Fill_356" data-name="Fill 356" d="M0,5.889H6.777L3.3,0A60.865,60.865,0,0,0,0,5.889" transform="translate(109.209 121.19)" fill="#4500a7"/>
      <path id="Fill_358" data-name="Fill 358" d="M6.888,5.735,3.54,0C2.273,2.146,1.253,3.873,0,5.993c2.536-.078,4.582.266,6.888-.258" transform="translate(54.497 121.191)" fill="#7556e6"/>
      <path id="Fill_360" data-name="Fill 360" d="M0,5.751H6.737C5.542,3.723,4.6,1.911,3.261,0A47.914,47.914,0,0,0,0,5.751" transform="translate(36.584 121.325)" fill="#7556e6"/>
      <path id="Fill_362" data-name="Fill 362" d="M0,5.678H6.7A46.748,46.748,0,0,0,3.316,0,41.984,41.984,0,0,0,0,5.678" transform="translate(36.547 17.569)" fill="#7556e6"/>
      <path id="Fill_364" data-name="Fill 364" d="M3.463,0,0,5.872H6.9C5.694,3.814,4.685,2.089,3.463,0" transform="translate(54.574 17.349)" fill="#7556e6"/>
      <path id="Fill_366" data-name="Fill 366" d="M0,5.749H6.659C5.467,3.655,4.515,1.887,3.2,0A39.2,39.2,0,0,0,0,5.749" transform="translate(109.277 17.488)" fill="#7556e6"/>
      <path id="Fill_368" data-name="Fill 368" d="M5.426,5.865c.384,0,.768-.084,1.45-.164A40.37,40.37,0,0,0,3.464,0C2.276,2.012,1.281,3.7,0,5.872c2.154,0,3.789.009,5.426-.006" transform="translate(127.127 17.49)" fill="#7556e6"/>
      <path id="Fill_370" data-name="Fill 370" d="M6.782,5.876,3.314,0C2.051,2.215.912,3.876,0,5.876Z" transform="translate(181.828 17.349)" fill="#7556e6"/>
      <path id="Fill_372" data-name="Fill 372" d="M6.726,5.705A40.542,40.542,0,0,0,3.315,0C2.072,2.023.99,3.718,0,5.705Z" transform="translate(199.934 17.524)" fill="#7556e6"/>
      <path id="Fill_374" data-name="Fill 374" d="M0,5.826H6.729C5.54,3.814,4.519,2.083,3.29,0A44.563,44.563,0,0,0,0,5.826" transform="translate(254.514 17.394)" fill="#7556e6"/>
      <path id="Fill_376" data-name="Fill 376" d="M0,5.861H6.74C5.558,3.842,4.542,2.109,3.306,0A54.462,54.462,0,0,0,0,5.861" transform="translate(272.647 17.365)" fill="#7556e6"/>
      <path id="Fill_378" data-name="Fill 378" d="M6.33,5.488,3.09,0C1.368,1.974.132,4.279,0,5.717a33.81,33.81,0,0,0,6.33-.229" transform="translate(327.484 17.625)" fill="#7556e6"/>
      <path id="Fill_382" data-name="Fill 382" d="M3.429,0C2.182,2.143,1.167,3.885,0,5.888H6.861C5.665,3.837,4.653,2.1,3.429,0" transform="translate(18.286 69.256)" fill="#7556e6"/>
      <path id="Fill_384" data-name="Fill 384" d="M6.874,5.78,3.491,0C2.262,2.123,1.254,3.868,0,6.035c2.512-.094,4.551.226,6.874-.255" transform="translate(36.375 69.249)" fill="#7556e6"/>
      <path id="Fill_386" data-name="Fill 386" d="M3.329,0A60.06,60.06,0,0,0,0,5.857H6.716L3.329,0" transform="translate(54.732 69.28)" fill="#7556e6"/>
      <path id="Fill_388" data-name="Fill 388" d="M6.822,5.563A33.779,33.779,0,0,0,3.4,0C2.257,1.948,1.239,3.684,0,5.8c2.528-.079,4.586.256,6.822-.233" transform="translate(72.676 69.472)" fill="#7556e6"/>
      <path id="Fill_390" data-name="Fill 390" d="M6.909,5.684C5.762,3.7,4.833,1.921,3.475,0,2.271,2.058,1.28,3.755,0,5.942c2.563-.135,4.627.2,6.909-.258" transform="translate(308.717 17.448)" fill="#7556e6"/>
      <path id="Fill_392" data-name="Fill 392" d="M0,5.872H6.87L3.426,0C2.174,2.149,1.164,3.876,0,5.872" transform="translate(290.672 17.343)" fill="#7556e6"/>
      <path id="Fill_394" data-name="Fill 394" d="M6.892,5.765C5.767,3.855,4.774,2.169,3.5,0L0,5.967a36.1,36.1,0,0,0,6.892-.2" transform="translate(236.122 17.352)" fill="#7556e6"/>
      <path id="Fill_396" data-name="Fill 396" d="M6.911,5.557C5.7,3.642,4.94,1.764,3.38,0,2.244,1.92,1.223,3.642,0,5.706a39.8,39.8,0,0,0,6.911-.149" transform="translate(217.959 17.599)" fill="#7556e6"/>
      <path id="Fill_398" data-name="Fill 398" d="M6.555,5.393A12.026,12.026,0,0,0,3.16,0L0,5.393Z" transform="translate(163.535 17.838)" fill="#7556e6"/>
      <path id="Fill_400" data-name="Fill 400" d="M6.977,5.6C5.7,3.577,4.933,1.7,3.367,0,2.249,1.9,1.256,3.584,0,5.715A60.414,60.414,0,0,0,6.977,5.6" transform="translate(145.309 17.617)" fill="#7556e6"/>
      <path id="Fill_402" data-name="Fill 402" d="M6.944,5.741A61.42,61.42,0,0,0,3.451,0C2.255,2.043,1.262,3.738,0,5.9a68.041,68.041,0,0,0,6.944-.155" transform="translate(90.824 17.47)" fill="#7556e6"/>
      <path id="Fill_404" data-name="Fill 404" d="M6.785,5.823C5.606,3.809,4.613,2.116,3.375,0A52.525,52.525,0,0,0,0,5.951a55.216,55.216,0,0,0,6.785-.128" transform="translate(72.841 17.384)" fill="#7556e6"/>
      <path id="Fill_406" data-name="Fill 406" d="M6.516,5.607C5.334,3.6,4.341,1.914,3.213,0A16.343,16.343,0,0,0,0,5.737a47.957,47.957,0,0,0,6.516-.13" transform="translate(18.638 17.592)" fill="#7556e6"/>
      <path id="Fill_408" data-name="Fill 408" d="M3.351,0C2.2,1.939,1.181,3.661,0,5.656H6.791A29.19,29.19,0,0,0,3.351,0" transform="translate(0.095 17.578)" fill="#7556e6"/>
      <path id="Fill_410" data-name="Fill 410" d="M3.272,0C2.081,2.057.968,3.751,0,5.738H6.634A33.356,33.356,0,0,0,3.272,0" transform="translate(91.004 69.416)" fill="#7556e6"/>
      <path id="Fill_412" data-name="Fill 412" d="M0,5.982H6.8L3.3,0C2.139,2.2.944,3.883,0,5.982" transform="translate(109.18 69.225)" fill="#7556e6"/>
      <path id="Fill_414" data-name="Fill 414" d="M3.363,0,0,5.786H6.858A62.631,62.631,0,0,0,3.363,0" transform="translate(127.232 69.377)" fill="#7556e6"/>
      <path id="Fill_416" data-name="Fill 416" d="M3.333,0C2.191,1.949,1.174,3.685,0,5.69H6.843A35.224,35.224,0,0,0,3.333,0" transform="translate(145.374 69.476)" fill="#7556e6"/>
      <path id="Fill_418" data-name="Fill 418" d="M0,5.7H6.67A32.549,32.549,0,0,0,3.305,0C2.086,2.028,1.016,3.743,0,5.7" transform="translate(163.61 69.448)" fill="#7556e6"/>
      <path id="Fill_420" data-name="Fill 420" d="M4.749,5.931c.6-.006,1.192-.065,2.094-.116A50.374,50.374,0,0,0,3.426,0C2.234,2.067,1.229,3.808,0,5.936c1.907,0,3.329.011,4.749,0" transform="translate(181.651 69.347)" fill="#7556e6"/>
      <path id="Fill_422" data-name="Fill 422" d="M0,5.931H6.733C5.5,3.811,4.5,2.076,3.29,0A49.641,49.641,0,0,0,0,5.931" transform="translate(200.027 69.268)" fill="#7556e6"/>
      <path id="Fill_424" data-name="Fill 424" d="M3.322,0A65.187,65.187,0,0,0,0,5.719H6.735C5.895,4.245,5.2,3,4.481,1.775c-.3-.517-.653-1-1.159-1.775" transform="translate(218.115 69.421)" fill="#536dfe"/>
      <path id="Fill_426" data-name="Fill 426" d="M0,5.888H6.86L3.428,0,0,5.888" transform="translate(236.193 69.257)" fill="#7556e6"/>
      <path id="Fill_428" data-name="Fill 428" d="M3.03,0C2.092,1.809.861,3.429,0,5.508H6.412A13.33,13.33,0,0,0,3.03,0" transform="translate(254.479 69.683)" fill="#7556e6"/>
      <path id="Fill_430" data-name="Fill 430" d="M0,5.885H6.851C5.68,3.862,4.67,2.117,3.446,0L0,5.885" transform="translate(272.504 69.25)" fill="#7556e6"/>
      <path id="Fill_432" data-name="Fill 432" d="M3.452,0,0,5.887H6.883C5.682,3.828,4.671,2.093,3.452,0" transform="translate(290.651 69.265)" fill="#7556e6"/>
      <path id="Fill_434" data-name="Fill 434" d="M3.305,0C2.086,2.027,1.017,3.743,0,5.7H6.67A32.4,32.4,0,0,0,3.305,0" transform="translate(308.88 69.449)" fill="#7556e6"/>
      <path id="Fill_436" data-name="Fill 436" d="M3.028,0C2.091,1.809.86,3.429,0,5.508H6.411A13.318,13.318,0,0,0,3.028,0" transform="translate(327.115 69.683)" fill="#7556e6"/>
      <path id="Fill_438" data-name="Fill 438" d="M3.226,0A53.83,53.83,0,0,0,0,5.7H6.8A55.609,55.609,0,0,0,3.226,0" transform="translate(0.243 121.386)" fill="#7556e6"/>
      <path id="Fill_440" data-name="Fill 440" d="M6.748,5.783C5.581,3.789,4.571,2.063,3.366,0A46.436,46.436,0,0,0,0,5.783Z" transform="translate(18.4 121.275)" fill="#7556e6"/>
      <path id="Fill_442" data-name="Fill 442" d="M6.778,5.856,3.338,0A58.992,58.992,0,0,0,0,5.856Z" transform="translate(72.873 121.219)" fill="#7556e6"/>
      <path id="Fill_444" data-name="Fill 444" d="M6.758,5.687C5.647,3.8,4.655,2.11,3.412,0A56.544,56.544,0,0,0,0,5.989c2.406-.15,4.471.252,6.758-.3" transform="translate(90.961 121.234)" fill="#7556e6"/>
      <path id="Fill_446" data-name="Fill 446" d="M0,5.781H6.648A42.105,42.105,0,0,0,3.2,0,56.224,56.224,0,0,0,0,5.781" transform="translate(145.543 121.308)" fill="#7556e6"/>
      <path id="Fill_448" data-name="Fill 448" d="M6.9,5.767C5.769,3.857,4.774,2.171,3.494,0,2.219,2.175,1.205,3.9,0,5.961a36.283,36.283,0,0,0,6.9-.194" transform="translate(163.488 121.193)" fill="#4500a7"/>
      <path id="Fill_450" data-name="Fill 450" d="M3.368,0A46.476,46.476,0,0,0,0,5.793H6.771C5.6,3.8,4.586,2.073,3.368,0" transform="translate(218.144 121.271)" fill="#7556e6"/>
      <path id="Fill_452" data-name="Fill 452" d="M0,5.661H6.462L3.113,0C1.134,2.6.262,4.229,0,5.661" transform="translate(236.616 121.408)" fill="#7556e6"/>
      <path id="Fill_454" data-name="Fill 454" d="M3.2,0C2.19,1.7,1.193,3.39,0,5.406H6.571A12.185,12.185,0,0,0,3.2,0" transform="translate(290.626 121.673)" fill="#7556e6"/>
      <path id="Fill_456" data-name="Fill 456" d="M3.412,0A27.718,27.718,0,0,0,0,5.649H6.753C5.591,3.683,4.592,2,3.412,0" transform="translate(308.959 121.396)" fill="#7556e6"/>
      <path id="Fill_458" data-name="Fill 458" d="M0,5.757H6.72L3.33,0A47.4,47.4,0,0,0,0,5.757" transform="translate(327.125 173.203)" fill="#7556e6"/>
      <path id="Fill_460" data-name="Fill 460" d="M6.842,5.85,3.423,0,0,5.85Z" transform="translate(0.138 173.118)" fill="#7556e6"/>
      <path id="Fill_462" data-name="Fill 462" d="M6.848,5.86,3.428,0,0,5.86Z" transform="translate(18.287 173.116)" fill="#7556e6"/>
      <path id="Fill_464" data-name="Fill 464" d="M3.356,0A43.086,43.086,0,0,0,0,5.766H6.762L3.356,0" transform="translate(36.571 173.229)" fill="#7556e6"/>
      <path id="Fill_466" data-name="Fill 466" d="M6.764,5.764C5.587,3.754,4.575,2.025,3.388,0A44.468,44.468,0,0,0,0,5.764Z" transform="translate(54.708 173.229)" fill="#7556e6"/>
      <path id="Fill_468" data-name="Fill 468" d="M0,5.711a59.1,59.1,0,0,0,6.495-.1L3.208,0A15.667,15.667,0,0,0,0,5.711" transform="translate(73.137 173.382)" fill="#ffc414"/>
      <path id="Fill_470" data-name="Fill 470" d="M0,5.656H6.752A28.171,28.171,0,0,0,3.309,0C2.171,1.945,1.162,3.669,0,5.656" transform="translate(90.911 173.337)" fill="#ffc414"/>
      <path id="Fill_472" data-name="Fill 472" d="M3.342,0A44.708,44.708,0,0,0,0,5.821H6.775L3.342,0" transform="translate(109.207 173.203)" fill="#ffc414"/>
      <path id="Fill_474" data-name="Fill 474" d="M6.566,5.517,3.342,0,0,5.661a13.02,13.02,0,0,0,6.566-.144" transform="translate(127.334 173.126)" fill="#7556e6"/>
      <path id="Fill_476" data-name="Fill 476" d="M0,5.937a62.578,62.578,0,0,0,6.773-.1L3.355,0A53.027,53.027,0,0,0,0,5.937" transform="translate(145.492 173.154)" fill="#7556e6"/>
      <path id="Fill_478" data-name="Fill 478" d="M0,5.329c3.084.394,5.261.3,6.5-.217C5.349,2.515,4.333.952,3.111,0L0,5.329" transform="translate(163.599 173.583)" fill="#7556e6"/>
      <path id="Fill_480" data-name="Fill 480" d="M6.473,5.37C5.464,3.665,4.464,1.973,3.3,0A45.485,45.485,0,0,0,0,5.612c2.617.475,5.165.38,6.473-.242" transform="translate(181.899 173.233)" fill="#7556e6"/>
      <path id="Fill_482" data-name="Fill 482" d="M.792,4.182c-.233.4-.4.838-.792,1.658,2.4-.087,4.416.114,6.655-.161A33.994,33.994,0,0,0,3.282,0C2.328,1.6,1.549,2.883.792,4.182" transform="translate(199.948 173.3)" fill="#7556e6"/>
      <path id="Fill_484" data-name="Fill 484" d="M3.427,0C2.168,2.153,1.162,3.875,0,5.864H6.853C5.684,3.862,4.678,2.142,3.427,0" transform="translate(218.04 173.116)" fill="#7556e6"/>
      <path id="Fill_486" data-name="Fill 486" d="M6.885,5.733C5.772,3.843,4.779,2.161,3.506,0,2.231,2.179,1.221,3.907,0,5.993c2.517-.1,4.572.244,6.885-.26" transform="translate(236.111 173.127)" fill="#7556e6"/>
      <path id="Fill_488" data-name="Fill 488" d="M6.634,5.38A13.971,13.971,0,0,0,3.259,0L0,5.564c2.558-.065,4.582.2,6.634-.184" transform="translate(254.27 173.551)" fill="#7556e6"/>
      <path id="Fill_490" data-name="Fill 490" d="M3.37,0,0,5.712H6.686A33.487,33.487,0,0,0,3.37,0" transform="translate(272.503 173.254)" fill="#7556e6"/>
      <path id="Fill_492" data-name="Fill 492" d="M6.892,5.79,3.507,0C2.238,2.155,1.228,3.872,0,5.955A43.007,43.007,0,0,0,6.892,5.79" transform="translate(290.601 173.127)" fill="#7556e6"/>
      <path id="Fill_494" data-name="Fill 494" d="M6.732,5.587A27.8,27.8,0,0,0,3.326,0L0,5.68a33.377,33.377,0,0,0,6.732-.093" transform="translate(308.802 173.337)" fill="#7556e6"/>
    </g>
    <g id="Group_496-2" data-name="Group 496" transform="translate(178.621 286.357)" opacity="0.277">
      <path id="Fill_3-2" data-name="Fill 3" d="M0,5.664a12.986,12.986,0,0,0,6.6-.092L3.3,0,0,5.664" transform="translate(327.104 155.807)" fill="#4500a7"/>
      <path id="Fill_5-2" data-name="Fill 5" d="M3.345,0A38.637,38.637,0,0,0,0,5.815H6.7C5.563,3.844,4.585,2.15,3.345,0" transform="translate(272.653 155.869)" fill="#4500a7"/>
      <path id="Fill_7-2" data-name="Fill 7" d="M3.43,0,0,5.882H6.918L3.43,0" transform="translate(254.339 155.807)" fill="#4500a7"/>
      <path id="Fill_9-2" data-name="Fill 9" d="M6.8,5.82C5.59,3.769,4.57,2.037,3.373,0A39.512,39.512,0,0,0,0,5.925a53.616,53.616,0,0,0,6.8-.1" transform="translate(199.973 155.872)" fill="#7556e6"/>
      <path id="Fill_11-2" data-name="Fill 11" d="M3.4,0,2.868.048C2,1.845.625,3.368,0,5.48H6.639L3.4,0" transform="translate(181.978 156.21)" fill="#7556e6"/>
      <path id="Fill_13-2" data-name="Fill 13" d="M6.952,5.872C5.762,3.853,4.764,2.157,3.493,0L0,5.923a38.311,38.311,0,0,0,6.952-.051" transform="translate(127.177 155.803)" fill="#7556e6"/>
      <path id="Fill_15-2" data-name="Fill 15" d="M3.222,0,0,5.473H6.553A12.977,12.977,0,0,0,3.222,0" transform="translate(109.038 156.227)" fill="#7556e6"/>
      <path id="Fill_17-2" data-name="Fill 17" d="M3.336,0A37.989,37.989,0,0,0,0,5.816H6.725C5.545,3.791,4.532,2.053,3.336,0" transform="translate(54.75 155.876)" fill="#7556e6"/>
      <path id="Fill_19-2" data-name="Fill 19" d="M0,5.875a50.568,50.568,0,0,0,6.983.106L3.443,0,0,5.875" transform="translate(36.424 155.806)" fill="#7556e6"/>
      <path id="Fill_21-2" data-name="Fill 21" d="M6.724,5.789A48.554,48.554,0,0,0,3.18,0C2,2,1,3.689,0,5.382q.11.264.217.527a59.283,59.283,0,0,0,6.506-.12" transform="translate(0.291 207.897)" fill="#fff"/>
      <path id="Fill_23-2" data-name="Fill 23" d="M0,5.8a39.216,39.216,0,0,0,6.946.026A57.439,57.439,0,0,0,3.374,0L0,5.8" transform="translate(18.25 207.878)" fill="#fff"/>
      <path id="Fill_25-2" data-name="Fill 25" d="M0,5.382c.071.176.145.352.217.527a59.291,59.291,0,0,0,6.506-.12A48.708,48.708,0,0,0,3.178,0L0,5.382" transform="translate(72.927 207.897)" fill="#fff"/>
      <path id="Fill_27-2" data-name="Fill 27" d="M6.732,5.835C5.535,3.811,4.511,2.082,3.28,0,2.028,2.143,1.014,3.879,0,5.616l.319.467a36.956,36.956,0,0,0,6.414-.248" transform="translate(91.063 207.742)" fill="#fff"/>
      <path id="Fill_29-2" data-name="Fill 29" d="M6.682,5.587,3.395,0C2.142,2.139,1.125,3.874,0,5.794a12.927,12.927,0,0,0,6.682-.207" transform="translate(145.434 207.739)" fill="#2a3846"/>
      <path id="Fill_31-2" data-name="Fill 31" d="M5.05,2.807C4.543,1.952,4.013,1.113,3.329,0,2.286,1.739,1.44,3.132.615,4.539A15.168,15.168,0,0,0,0,5.956c2.3.043,4.355.116,6.825-.064C6.069,4.577,5.571,3.685,5.05,2.807" transform="translate(163.647 207.828)" fill="#2a3846"/>
      <path id="Fill_33" data-name="Fill 33" d="M6.969,5.716A34.3,34.3,0,0,0,3.38,0C2.238,1.93,1.219,3.657,0,5.719a42.115,42.115,0,0,0,6.969,0" transform="translate(217.953 207.982)" fill="#7556e6"/>
      <path id="Fill_35" data-name="Fill 35" d="M0,5.975H6.725L3.213,0C2.045,2.217.692,3.8,0,5.975" transform="translate(236.402 207.728)" fill="#7556e6"/>
      <path id="Fill_37-2" data-name="Fill 37" d="M0,5.823H6.759C5.533,3.723,4.52,1.986,3.36,0A26.764,26.764,0,0,0,0,5.823" transform="translate(290.831 207.88)" fill="#49aef7"/>
      <path id="Fill_39" data-name="Fill 39" d="M6.585,5.546c-1.005-1.7-2-3.4-3.272-5.546C2.057,2.155,1.043,3.894,0,5.68c2.1.624,5.207.553,6.585-.134" transform="translate(308.936 207.736)" fill="#49aef7"/>
      <path id="Fill_43-2" data-name="Fill 43" d="M6.986,5.767A50.721,50.721,0,0,0,3.492,0L0,5.955a52.93,52.93,0,0,0,6.986-.188" transform="translate(290.526 104.027)" fill="#7556e6"/>
      <path id="Fill_45-2" data-name="Fill 45" d="M0,5.6c.09.162.178.327.268.49C2.322,6,4.386,6.3,6.712,5.864L3.278,0,0,5.6" transform="translate(236.345 103.897)" fill="#7556e6"/>
      <path id="Fill_47-2" data-name="Fill 47" d="M6.92,5.919,3.463,0C2.219,2.122,1.2,3.863,0,5.912a29.62,29.62,0,0,0,6.92.008" transform="translate(218.004 103.892)" fill="#536dfe"/>
      <path id="Fill_49-2" data-name="Fill 49" d="M0,5.95H6.732C5.506,3.853,4.486,2.111,3.252,0,2.052,2.166.746,3.771,0,5.95" transform="translate(163.746 103.914)" fill="#7556e6"/>
      <path id="Fill_51-2" data-name="Fill 51" d="M6.957,5.808A50.145,50.145,0,0,0,3.437,0C2.238,2.045,1.222,3.776,0,5.864a42.833,42.833,0,0,0,6.957-.056" transform="translate(145.308 104.03)" fill="#7556e6"/>
      <path id="Fill_53-2" data-name="Fill 53" d="M6.992,5.82A67,67,0,0,0,3.483,0C2.285,2.056,1.27,3.8,0,5.971A58.813,58.813,0,0,0,6.992,5.82" transform="translate(90.799 104.002)" fill="#7556e6"/>
      <path id="Fill_55-2" data-name="Fill 55" d="M0,5.75a44.028,44.028,0,0,0,6.954,0A35.911,35.911,0,0,0,3.4,0C2.251,1.939,1.229,3.67,0,5.75" transform="translate(72.68 104.12)" fill="#7556e6"/>
      <path id="Fill_57-2" data-name="Fill 57" d="M6.442,5.574C5.239,3.548,4.211,1.818,3.131,0A13.02,13.02,0,0,0,0,5.826c1.722,0,3.423.01,5.124-.008a9.713,9.713,0,0,0,1.318-.244" transform="translate(18.718 104.161)" fill="#7556e6"/>
      <g id="Group_61" data-name="Group 61" transform="translate(0 104.349)">
        <path id="Clip_60-2" data-name="Clip 60" d="M0,0H6.765V5.656H0Z" transform="translate(0 0)" fill="none"/>
        <g id="Group_61-2" data-name="Group 61" transform="translate(0 0)" clip-path="url(#clip-path)">
          <path id="Fill_59" data-name="Fill 59" d="M6.766,5.529A13.7,13.7,0,0,0,3.3,0L0,5.583a56.785,56.785,0,0,0,6.766-.054" transform="translate(-0.001)" fill="#7556e6"/>
        </g>
      </g>
      <path id="Fill_64-2" data-name="Fill 64" d="M6.683,5.652A35.422,35.422,0,0,0,3.146,0L0,5.435q.152.243.307.487c2.041-.143,4.1.247,6.376-.269" transform="translate(18.432 0.242)" fill="#7556e6"/>
      <path id="Fill_66-2" data-name="Fill 66" d="M3.118,0C1.3,2.161.165,4.295,0,5.718H6.464C5.27,3.678,4.258,1.948,3.118,0" transform="translate(36.913 0.28)" fill="#7556e6"/>
      <path id="Fill_68-2" data-name="Fill 68" d="M0,5.542q.186.227.375.452A35.053,35.053,0,0,0,6.7,5.772,56.383,56.383,0,0,0,3.247,0C2.029,2.079,1.014,3.809,0,5.542" transform="translate(54.72 0.135)" fill="#7556e6"/>
      <path id="Fill_70-2" data-name="Fill 70" d="M3.248,0C2.229,1.709,1.383,3.106.563,4.519A13.04,13.04,0,0,0,0,5.857a39.608,39.608,0,0,0,6.736-.024A46.54,46.54,0,0,0,3.248,0" transform="translate(72.889 0.183)" fill="#7556e6"/>
      <path id="Fill_72-2" data-name="Fill 72" d="M6.75,5.9,3.277,0C2.032,2.135,1.015,3.875,0,5.614l.267.509A42.362,42.362,0,0,0,6.75,5.9" transform="translate(91.068 0.025)" fill="#7556e6"/>
      <path id="Fill_74-2" data-name="Fill 74" d="M0,5.718H6.463C5.271,3.678,4.257,1.948,3.118,0,1.306,2.161.165,4.295,0,5.718" transform="translate(109.548 0.28)" fill="#7556e6"/>
      <path id="Fill_76-2" data-name="Fill 76" d="M.374,5.994A35.046,35.046,0,0,0,6.7,5.772,55.8,55.8,0,0,0,3.246,0L0,5.542l.374.452" transform="translate(127.356 0.135)" fill="#7556e6"/>
      <path id="Fill_78-2" data-name="Fill 78" d="M6.715,5.574A13.516,13.516,0,0,0,3.25,0L0,5.557a48.378,48.378,0,0,0,6.715.017" transform="translate(145.316 0.483)" fill="#7556e6"/>
      <path id="Fill_92-2" data-name="Fill 92" d="M6.683,5.842A50.841,50.841,0,0,0,3.374,0,37.163,37.163,0,0,0,0,5.842Z" transform="translate(272.6 0.164)" fill="#7556e6"/>
      <path id="Fill_94-2" data-name="Fill 94" d="M7.051,5.925,3.595,0,0,6.111a48.456,48.456,0,0,0,7.051-.186" transform="translate(290.511 0.023)" fill="#7556e6"/>
      <path id="Fill_100-2" data-name="Fill 100" d="M3.4,0A42.672,42.672,0,0,0,0,5.955a57.229,57.229,0,0,0,6.818-.147C5.618,3.769,4.6,2.038,3.4,0" transform="translate(272.579 52.031)" fill="#7556e6"/>
      <path id="Fill_102-2" data-name="Fill 102" d="M3.238,0A33.443,33.443,0,0,0,0,5.831H6.681L3.238,0" transform="translate(254.573 52.023)" fill="#7556e6"/>
      <path id="Fill_104-2" data-name="Fill 104" d="M6.659,5.341C5.456,2.368,4.252.57,3.1,0,2.125,1.683,1.145,3.371,0,5.341Z" transform="translate(199.854 52.523)" fill="#7556e6"/>
      <path id="Fill_106-2" data-name="Fill 106" d="M3.422,0,0,5.812H6.862A62.084,62.084,0,0,0,3.422,0" transform="translate(181.673 52.048)" fill="#7556e6"/>
      <path id="Fill_108-2" data-name="Fill 108" d="M3.226,0C2,2.1.734,3.729,0,5.852H6.638L3.226,0" transform="translate(127.471 51.997)" fill="#7556e6"/>
      <path id="Fill_110-2" data-name="Fill 110" d="M0,5.885a29.742,29.742,0,0,0,6.728-.1L3.313,0A49.982,49.982,0,0,0,0,5.885" transform="translate(109.212 51.997)" fill="#7556e6"/>
      <path id="Fill_112-2" data-name="Fill 112" d="M3.284,0C2.111,2.2.847,3.834,0,6.031a48.108,48.108,0,0,0,6.753-.137C5.559,3.867,4.539,2.134,3.284,0" transform="translate(54.732 51.934)" fill="#7556e6"/>
      <path id="Fill_114-2" data-name="Fill 114" d="M6.889,5.834C5.712,3.843,4.71,2.15,3.44,0,2.189,2.137,1.175,3.869,0,5.877a29.2,29.2,0,0,0,6.889-.043" transform="translate(36.429 51.965)" fill="#7556e6"/>
      <path id="Fill_116-2" data-name="Fill 116" d="M0,6.075c2.375-.114,4.4.237,6.73-.292C5.577,3.836,4.547,2.093,3.309,0A39.931,39.931,0,0,0,0,6.075" transform="translate(36.569 207.76)" fill="#fff"/>
      <path id="Fill_118-2" data-name="Fill 118" d="M0,5.836a14.386,14.386,0,0,0,6.535-.271L3.258,0A33.277,33.277,0,0,0,0,5.836" transform="translate(54.806 207.792)" fill="#fff"/>
      <path id="Fill_120-2" data-name="Fill 120" d="M3.275,0C2.081,2.184.779,3.822,0,6.093a62.8,62.8,0,0,0,6.776-.177C5.545,3.833,4.51,2.085,3.275,0" transform="translate(36.591 103.904)" fill="#7556e6"/>
      <path id="Fill_122-2" data-name="Fill 122" d="M3.429,0C2.234,2.03,1.229,3.734,0,5.818H6.875A41.466,41.466,0,0,0,3.429,0" transform="translate(109.008 207.863)" fill="#fff"/>
      <path id="Fill_124-2" data-name="Fill 124" d="M0,5.6l.362.48C2.376,6.021,4.4,6.208,6.8,5.926,5.569,3.831,4.543,2.091,3.311,0L0,5.6" transform="translate(54.725 103.91)" fill="#7556e6"/>
      <path id="Fill_126-2" data-name="Fill 126" d="M0,5.927H6.849L3.363,0A38.261,38.261,0,0,0,0,5.927" transform="translate(127.346 207.806)" fill="#fff"/>
      <path id="Fill_128-2" data-name="Fill 128" d="M7,5.841C5.837,3.868,4.811,2.127,3.553,0,2.316,2.1,1.293,3.835,0,6.027a37.4,37.4,0,0,0,7-.186" transform="translate(181.591 207.747)" fill="#2a3846"/>
      <path id="Fill_130-2" data-name="Fill 130" d="M0,5.622c2.408-.076,4.427.221,6.472-.185A12.874,12.874,0,0,0,3.137,0,43.961,43.961,0,0,0,0,5.622" transform="translate(109.139 104.359)" fill="#7556e6"/>
      <path id="Fill_132-2" data-name="Fill 132" d="M6.943,5.68A33.082,33.082,0,0,0,3.365,0C2.232,1.913,1.222,3.618,0,5.68Z" transform="translate(127.166 104.153)" fill="#7556e6"/>
      <path id="Fill_134-2" data-name="Fill 134" d="M6.657,5.773C5.483,3.8,4.477,2.1,3.229,0,2.029,2.2.75,3.784,0,5.974a33.113,33.113,0,0,0,6.657-.2" transform="translate(309.011 155.823)" fill="#4500a7"/>
      <path id="Fill_136-2" data-name="Fill 136" d="M6.618,5.572C5.608,3.846,4.612,2.14,3.358,0,2.078,2.179,1.064,3.907,0,5.719a13.052,13.052,0,0,0,6.618-.147" transform="translate(290.743 155.791)" fill="#4500a7"/>
      <path id="Fill_138-2" data-name="Fill 138" d="M0,6.194c2.348-.142,4.365.223,6.686-.308L3.207,0C2.1,2.35.695,3.92,0,6.194" transform="translate(181.883 103.819)" fill="#7556e6"/>
      <path id="Fill_140-2" data-name="Fill 140" d="M3.143,0C2.043,2.236.657,3.775,0,5.926H6.571A55.125,55.125,0,0,0,3.143,0" transform="translate(200.095 103.915)" fill="#7556e6"/>
      <path id="Fill_142-2" data-name="Fill 142" d="M6.9,5.926,3.428,0C2.191,2.124,1.176,3.863,0,5.878a35.634,35.634,0,0,0,6.9.048" transform="translate(236.187 155.793)" fill="#4500a7"/>
      <path id="Fill_144-2" data-name="Fill 144" d="M3.146,0C2.007,2.094.758,3.688,0,5.755H6.649A48.394,48.394,0,0,0,3.146,0" transform="translate(218.228 155.939)" fill="#7556e6"/>
      <path id="Fill_146-2" data-name="Fill 146" d="M0,5.354a15.978,15.978,0,0,0,6.315-.049A12.746,12.746,0,0,0,3.014,0,43.754,43.754,0,0,0,0,5.354" transform="translate(254.53 104.359)" fill="#7556e6"/>
      <path id="Fill_150-2" data-name="Fill 150" d="M6.877,5.673A50.554,50.554,0,0,0,3.393,0L0,5.785a32.839,32.839,0,0,0,6.877-.112" transform="translate(18.23 52.117)" fill="#7556e6"/>
      <path id="Fill_152-2" data-name="Fill 152" d="M3.452,0,0,5.931a32.749,32.749,0,0,0,6.9-.094C5.746,3.883,4.738,2.179,3.452,0" transform="translate(163.524 155.796)" fill="#7556e6"/>
      <path id="Fill_154-2" data-name="Fill 154" d="M6.648,5.635A32.3,32.3,0,0,0,3.144,0,35.034,35.034,0,0,0,0,5.635Z" transform="translate(72.949 52.233)" fill="#7556e6"/>
      <path id="Fill_156-2" data-name="Fill 156" d="M6.878,5.673A50.874,50.874,0,0,0,3.394,0L0,5.785a32.849,32.849,0,0,0,6.878-.112" transform="translate(90.865 52.117)" fill="#7556e6"/>
      <path id="Fill_158-2" data-name="Fill 158" d="M3.181,0C2.167,1.716,1.16,3.419,0,5.381a31.343,31.343,0,0,0,6.583.087A12.8,12.8,0,0,0,3.181,0" transform="translate(145.381 156.266)" fill="#7556e6"/>
      <path id="Fill_160-2" data-name="Fill 160" d="M6.577,5.474A12.776,12.776,0,0,0,3.179,0C2.164,1.716,1.158,3.42,0,5.377a31.376,31.376,0,0,0,6.577.1" transform="translate(145.384 52.427)" fill="#7556e6"/>
      <path id="Fill_162-2" data-name="Fill 162" d="M3.254,0A41.531,41.531,0,0,0,0,5.949a31.6,31.6,0,0,0,6.677-.157L3.254,0" transform="translate(163.729 51.979)" fill="#7556e6"/>
      <path id="Fill_164-2" data-name="Fill 164" d="M0,5.725a37.324,37.324,0,0,0,6.987-.137C5.647,3.635,4.935,1.712,3.382,0,2.259,1.9,1.256,3.6,0,5.725" transform="translate(217.956 52.202)" fill="#536dfe"/>
      <path id="Fill_166-2" data-name="Fill 166" d="M0,5.9H6.916L3.434,0C2.183,2.147,1.173,3.885,0,5.9" transform="translate(236.178 51.956)" fill="#7556e6"/>
      <path id="Fill_168-2" data-name="Fill 168" d="M6.653,5.6C5.631,3.867,4.626,2.16,3.354,0,2.1,2.129,1.068,3.87,0,5.676A12.577,12.577,0,0,0,6.653,5.6" transform="translate(272.589 103.906)" fill="#7556e6"/>
      <path id="Fill_170-2" data-name="Fill 170" d="M6.726,5.762A48.37,48.37,0,0,0,3.219,0C2.064,2.089.894,3.726,0,5.762Z" transform="translate(290.786 52.095)" fill="#536dfe"/>
      <path id="Fill_174-2" data-name="Fill 174" d="M3.468,0C2.209,2.161,1.2,3.895,0,5.954a32.75,32.75,0,0,0,6.9-.14L3.468,0" transform="translate(90.871 155.798)" fill="#7556e6"/>
      <path id="Fill_178-2" data-name="Fill 178" d="M0,5.685H6.512L3.171,0A12.7,12.7,0,0,0,0,5.685" transform="translate(200.317 208.049)" fill="#2a3846"/>
      <path id="Fill_180-2" data-name="Fill 180" d="M6.9,5.865,3.478,0C2.217,2.149,1.2,3.884,0,5.93a35.423,35.423,0,0,0,6.9-.065" transform="translate(72.724 155.795)" fill="#7556e6"/>
      <path id="Fill_182" data-name="Fill 182" d="M6.6,5.917A34.735,34.735,0,0,0,3.33,0,50.17,50.17,0,0,0,0,5.917Z" transform="translate(254.447 207.807)" fill="#7556e6"/>
      <path id="Fill_184-2" data-name="Fill 184" d="M3.446,0C2.2,2.135,1.188,3.872,0,5.908a35.459,35.459,0,0,0,6.893,0L3.446,0" transform="translate(18.267 155.788)" fill="#7556e6"/>
      <path id="Fill_186-2" data-name="Fill 186" d="M6.506,5.386A52.737,52.737,0,0,0,3.25,0,39.354,39.354,0,0,0,0,5.513a12.476,12.476,0,0,0,6.506-.127" transform="translate(272.685 207.962)" fill="#49aef7"/>
      <path id="Fill_188-2" data-name="Fill 188" d="M3.439,0C2.191,2.138,1.174,3.877,0,5.885a35.368,35.368,0,0,0,6.9.045C5.7,3.879,4.687,2.14,3.439,0" transform="translate(0.123 155.787)" fill="#7556e6"/>
      <path id="Fill_190" data-name="Fill 190" d="M0,5.94A42.3,42.3,0,0,0,6.852,5.9C5.633,3.836,4.606,2.1,3.366,0A51.69,51.69,0,0,0,0,5.94" transform="translate(327.069 207.784)" fill="#7556e6"/>
      <path id="Fill_194-2" data-name="Fill 194" d="M3.118,0A14.17,14.17,0,0,0,0,5.653H6.442C5.246,3.619,4.21,1.855,3.118,0" transform="translate(291.109 34.913)" fill="#7556e6"/>
      <path id="Fill_196-2" data-name="Fill 196" d="M6.964,5.8A62.9,62.9,0,0,0,3.429,0L0,5.922c2.511-.03,4.559.124,6.964-.123" transform="translate(236.107 34.764)" fill="#7556e6"/>
      <path id="Fill_198-2" data-name="Fill 198" d="M6.919,5.872C5.778,3.9,4.771,2.156,3.523,0,2.23,2.236,1.222,3.976,0,6.086a47.417,47.417,0,0,0,6.919-.214" transform="translate(217.938 34.609)" fill="#7556e6"/>
      <path id="Fill_200-2" data-name="Fill 200" d="M3.424,0A47.676,47.676,0,0,0,0,5.968a66.639,66.639,0,0,0,6.825-.124L3.424,0" transform="translate(163.613 34.713)" fill="#7556e6"/>
      <path id="Fill_202-2" data-name="Fill 202" d="M3.194,0A14.956,14.956,0,0,0,0,5.663H6.5C5.267,3.555,4.253,1.818,3.194,0" transform="translate(145.803 34.92)" fill="#7556e6"/>
      <path id="Fill_204-2" data-name="Fill 204" d="M3.391,0C2.152,2.144,1.142,3.888,0,5.863c3.084.387,5.275.3,6.662-.254C5.634,3.847,4.619,2.106,3.391,0" transform="translate(90.954 34.623)" fill="#6c0bfe"/>
      <path id="Fill_206-2" data-name="Fill 206" d="M3.266,0A57.818,57.818,0,0,0,0,5.914H6.743L3.266,0" transform="translate(72.907 34.656)" fill="#6c0bfe"/>
      <path id="Fill_208-2" data-name="Fill 208" d="M6.848,5.85C5.7,3.881,4.685,2.142,3.436,0,2.164,2.2,1.154,3.937,0,5.93a31.371,31.371,0,0,0,6.848-.08" transform="translate(18.268 34.639)" fill="#7556e6"/>
      <path id="Fill_212-2" data-name="Fill 212" d="M6.543,5.439A12.942,12.942,0,0,0,3.169,0L0,5.439Z" transform="translate(236.189 138.957)" fill="#7556e6"/>
      <path id="Fill_216-2" data-name="Fill 216" d="M6.448,5.518,3.226,0A34.141,34.141,0,0,0,0,5.745a13.552,13.552,0,0,0,6.448-.227" transform="translate(290.912 86.629)" fill="#7556e6"/>
      <path id="Fill_218-2" data-name="Fill 218" d="M3.288,0A52.4,52.4,0,0,0,0,5.874H6.74L3.288,0" transform="translate(290.815 138.526)" fill="#7556e6"/>
      <path id="Fill_220-2" data-name="Fill 220" d="M3.1,0C2.028,2.119.709,3.705,0,5.806H6.651A55.7,55.7,0,0,0,3.1,0" transform="translate(309.046 138.612)" fill="#7556e6"/>
      <path id="Fill_222-2" data-name="Fill 222" d="M3.293,0A53.566,53.566,0,0,0,0,5.881H6.752L3.293,0" transform="translate(218.172 138.53)" fill="#7556e6"/>
      <path id="Fill_224-2" data-name="Fill 224" d="M3.307,0C2.59,1.189,2.038,2.061,1.527,2.958,1.033,3.82.583,4.7,0,5.786H6.735A34.619,34.619,0,0,0,3.307,0" transform="translate(236.244 86.753)" fill="#7556e6"/>
      <path id="Fill_226-2" data-name="Fill 226" d="M6.714,5.656A41.19,41.19,0,0,0,3.157,0,31.852,31.852,0,0,0,0,5.656Z" transform="translate(218.224 86.847)" fill="#536dfe"/>
      <path id="Fill_228-2" data-name="Fill 228" d="M3.394,0C2.21,2.013,1.186,3.758,0,5.777H6.907A53.08,53.08,0,0,0,3.394,0" transform="translate(163.513 86.721)" fill="#fec313"/>
      <path id="Fill_230-2" data-name="Fill 230" d="M6.6,5.79A39.828,39.828,0,0,0,3.1,0C2.022,2.14.695,3.721,0,5.79Z" transform="translate(145.611 86.691)" fill="#fec313"/>
      <path id="Fill_232-2" data-name="Fill 232" d="M3.353,0A45.952,45.952,0,0,0,0,5.9H6.817C5.579,3.792,4.555,2.05,3.353,0" transform="translate(91.023 86.646)" fill="#fec313"/>
      <path id="Fill_234-2" data-name="Fill 234" d="M0,5.661H6.488C5.258,3.555,4.24,1.811,3.182,0A13.154,13.154,0,0,0,0,5.661" transform="translate(73.197 86.885)" fill="#7556e6"/>
      <path id="Fill_236-2" data-name="Fill 236" d="M3.155,0C2,2.045.738,3.659,0,5.749H6.72C5.409,3.655,4.54,1.813,3.155,0" transform="translate(163.76 138.668)" fill="#7556e6"/>
      <path id="Fill_238-2" data-name="Fill 238" d="M3.355,0C2.061,2.177.932,3.862,0,5.852H6.8C5.615,3.839,4.59,2.1,3.355,0" transform="translate(18.365 86.62)" fill="#7556e6"/>
      <path id="Fill_240" data-name="Fill 240" d="M6.473,5.644C5.257,3.557,4.24,1.815,3.182,0A12.867,12.867,0,0,0,0,5.737c2.045-.036,4.071.077,6.473-.093" transform="translate(0.56 86.879)" fill="#7556e6"/>
      <path id="Fill_242-2" data-name="Fill 242" d="M0,5.66H6.967C5.68,3.659,4.906,1.734,3.351,0,2.225,1.9,1.217,3.6,0,5.66" transform="translate(145.347 138.757)" fill="#7556e6"/>
      <path id="Fill_244" data-name="Fill 244" d="M3.307,0A54.116,54.116,0,0,0,0,5.866H6.758L3.307,0" transform="translate(308.951 190.449)" fill="#7556e6"/>
      <path id="Fill_246-2" data-name="Fill 246" d="M0,5.648H6.506C5.279,3.55,4.258,1.806,3.2,0A13.374,13.374,0,0,0,0,5.648" transform="translate(291.089 190.734)" fill="#7556e6"/>
      <path id="Fill_248-2" data-name="Fill 248" d="M0,5.9H6.82C5.582,3.792,4.559,2.049,3.355,0A46.743,46.743,0,0,0,0,5.9" transform="translate(236.29 190.485)" fill="#7556e6"/>
      <path id="Fill_250-2" data-name="Fill 250" d="M6.448,5.519C5.435,3.786,4.435,2.07,3.226,0A34.114,34.114,0,0,0,0,5.746a13.553,13.553,0,0,0,6.448-.227" transform="translate(218.277 190.466)" fill="#7556e6"/>
      <path id="Fill_252-2" data-name="Fill 252" d="M3.173,0A13.3,13.3,0,0,0,0,5.65H6.495C5.26,3.548,4.235,1.806,3.173,0" transform="translate(163.982 190.736)" fill="#7556e6"/>
      <path id="Fill_254-2" data-name="Fill 254" d="M3.155,0C2.007,2.08.738,3.687,0,5.772H6.578A36.615,36.615,0,0,0,3.155,0" transform="translate(145.595 190.558)" fill="#6c0bfe"/>
      <path id="Fill_256-2" data-name="Fill 256" d="M0,5.895H6.819C5.582,3.789,4.559,2.044,3.357,0A45.974,45.974,0,0,0,0,5.895" transform="translate(91.02 190.488)" fill="#6c0bfe"/>
      <path id="Fill_258-2" data-name="Fill 258" d="M0,5.884H6.9L3.464,0,0,5.884" transform="translate(72.743 190.426)" fill="#7556e6"/>
      <path id="Fill_260-2" data-name="Fill 260" d="M0,5.9H6.819C5.581,3.792,4.558,2.049,3.355,0A46.467,46.467,0,0,0,0,5.9" transform="translate(18.385 190.485)" fill="none"/>
      <path id="Fill_262-2" data-name="Fill 262" d="M3.354,0C2.206,1.96,1.182,3.7,0,5.718H6.952A45.119,45.119,0,0,0,3.354,0" transform="translate(0.082 190.614)" fill="none"/>
      <path id="Fill_264-2" data-name="Fill 264" d="M0,5.983A55.237,55.237,0,0,0,6.972,5.85C5.775,3.811,4.752,2.076,3.533,0,2.271,2.136,1.244,3.875,0,5.983" transform="translate(0.03 138.522)" fill="#7556e6"/>
      <path id="Fill_266-2" data-name="Fill 266" d="M6.718,5.793,3.319,0A46.5,46.5,0,0,0,0,5.793Z" transform="translate(18.426 138.584)" fill="#7556e6"/>
      <path id="Fill_268-2" data-name="Fill 268" d="M0,5.662H6.462L3.155,0A12.9,12.9,0,0,0,0,5.662" transform="translate(73.214 138.805)" fill="#7556e6"/>
      <path id="Fill_270-2" data-name="Fill 270" d="M.419,4.8A8.645,8.645,0,0,0,0,5.875,43.347,43.347,0,0,0,6.741,5.9L3.251,0C2.156,1.852,1.278,3.323.419,4.8" transform="translate(91.099 138.533)" fill="#7556e6"/>
      <path id="Fill_274-2" data-name="Fill 274" d="M0,5.956H6.749L3.261,0A50.5,50.5,0,0,0,0,5.956" transform="translate(272.675 86.554)" fill="#7556e6"/>
      <path id="Fill_276-2" data-name="Fill 276" d="M3.3,0A37.172,37.172,0,0,0,0,5.98c2.325,0,4.334.121,6.744-.1L3.3,0" transform="translate(254.508 86.611)" fill="#7556e6"/>
      <path id="Fill_278-2" data-name="Fill 278" d="M3.129,0A44.456,44.456,0,0,0,0,5.695H6.739A40.221,40.221,0,0,0,3.129,0" transform="translate(200.042 86.804)" fill="#7556e6"/>
      <path id="Fill_280-2" data-name="Fill 280" d="M6.94,5.806C5.775,3.828,4.754,2.093,3.522,0,2.3,2.093,1.283,3.834,0,6.027a43.015,43.015,0,0,0,6.94-.221" transform="translate(181.617 86.572)" fill="#7556e6"/>
      <path id="Fill_282-2" data-name="Fill 282" d="M.35,6.022A34.778,34.778,0,0,0,6.661,5.8C5.513,3.834,4.5,2.093,3.273,0L0,5.561c.117.154.235.306.35.461" transform="translate(127.402 86.572)" fill="#fec313"/>
      <path id="Fill_284-2" data-name="Fill 284" d="M3.309,0A55.324,55.324,0,0,0,0,5.735H6.637A40.359,40.359,0,0,0,3.309,0" transform="translate(109.178 86.725)" fill="#fec313"/>
      <path id="Fill_286-2" data-name="Fill 286" d="M6.635,5.772,3.263,0C2.027,2.122.758,3.766,0,6a38.311,38.311,0,0,0,6.635-.227" transform="translate(54.792 86.599)" fill="#7556e6"/>
      <path id="Fill_288-2" data-name="Fill 288" d="M3.311,0A55.32,55.32,0,0,0,0,5.736H6.638A40.43,40.43,0,0,0,3.311,0" transform="translate(36.542 86.725)" fill="#7556e6"/>
      <path id="Fill_292-2" data-name="Fill 292" d="M3.18,0A49.275,49.275,0,0,0,0,5.759H6.589A37.614,37.614,0,0,0,3.18,0" transform="translate(254.52 34.784)" fill="#7556e6"/>
      <path id="Fill_294-2" data-name="Fill 294" d="M6.96,5.914C5.742,3.821,4.73,2.079,3.52,0,2.277,2.144,1.261,3.894,0,6.067a61.184,61.184,0,0,0,6.96-.153" transform="translate(181.623 34.62)" fill="#7556e6"/>
      <path id="Fill_296-2" data-name="Fill 296" d="M6.909,5.823C5.752,3.844,4.733,2.1,3.505,0,2.284,2.106,1.271,3.854,0,6.044a40.529,40.529,0,0,0,6.909-.221" transform="translate(108.999 34.63)" fill="#6c0bfe"/>
      <path id="Fill_298" data-name="Fill 298" d="M3.215,0,0,5.488a12.719,12.719,0,0,0,6.55.141C5.535,3.751,4.529,1.981,3.215,0" transform="translate(327.156 190.484)" fill="#7556e6"/>
      <path id="Fill_300-2" data-name="Fill 300" d="M6.726,5.878,3.289,0A38.208,38.208,0,0,0,0,6.048c2.343-.081,4.357.115,6.726-.17" transform="translate(36.598 34.664)" fill="#7556e6"/>
      <path id="Fill_302-2" data-name="Fill 302" d="M3.082,0C2,2.193.6,3.716,0,5.872H6.5A53.752,53.752,0,0,0,3.082,0" transform="translate(272.791 190.448)" fill="#7556e6"/>
      <path id="Fill_304-2" data-name="Fill 304" d="M3.117,0A49.622,49.622,0,0,0,0,5.627H6.311A15.766,15.766,0,0,0,3.117,0" transform="translate(254.508 190.677)" fill="#7556e6"/>
      <path id="Fill_306-2" data-name="Fill 306" d="M6.823,5.838C5.593,3.738,4.579,2,3.406,0A42.67,42.67,0,0,0,0,5.943c2.464-.005,4.468.124,6.823-.1" transform="translate(199.947 190.489)" fill="#7556e6"/>
      <path id="Fill_308-2" data-name="Fill 308" d="M6.713,5.947C5.487,3.857,4.469,2.12,3.225,0,2.091,2.273.748,3.893,0,6.087a57.772,57.772,0,0,0,6.713-.141" transform="translate(181.884 190.35)" fill="#7556e6"/>
      <path id="Fill_310-2" data-name="Fill 310" d="M6.643,5.83,3.238,0C2.074,2.2.755,3.818,0,6.057A38.376,38.376,0,0,0,6.643,5.83" transform="translate(127.421 190.381)" fill="#6c0bfe"/>
      <path id="Fill_312-2" data-name="Fill 312" d="M3.162,0C2.01,2.132.73,3.726,0,5.851H6.612C5.491,3.766,4.479,2,3.162,0" transform="translate(109.301 190.474)" fill="#6c0bfe"/>
      <path id="Fill_314-2" data-name="Fill 314" d="M3.3,0A32.126,32.126,0,0,0,0,5.971a45.884,45.884,0,0,0,6.678-.185C5.513,3.793,4.493,2.05,3.3,0" transform="translate(54.776 190.464)" fill="none"/>
      <path id="Fill_316-2" data-name="Fill 316" d="M6.494,5.462A12.219,12.219,0,0,0,3.2,0C2.194,1.72,1.2,3.419,0,5.462Z" transform="translate(36.418 190.843)" fill="none"/>
      <path id="Fill_318-2" data-name="Fill 318" d="M3.321,0A31.724,31.724,0,0,0,0,5.859H6.724C5.518,3.78,4.5,2.031,3.321,0" transform="translate(54.777 34.73)" fill="#6c0bfe"/>
      <path id="Fill_320-2" data-name="Fill 320" d="M3.3,0A33.209,33.209,0,0,0,0,5.9H6.719L3.3,0" transform="translate(127.418 34.704)" fill="#6c0bfe"/>
      <path id="Fill_322-2" data-name="Fill 322" d="M0,5.829H6.54A43.152,43.152,0,0,0,3.05,0C1.979,2.119.619,3.668,0,5.829" transform="translate(200.149 34.756)" fill="#7556e6"/>
      <path id="Fill_324-2" data-name="Fill 324" d="M3.321,0A31.628,31.628,0,0,0,0,5.859H6.724C5.518,3.781,4.5,2.031,3.321,0" transform="translate(272.683 34.73)" fill="#7556e6"/>
      <path id="Fill_326-2" data-name="Fill 326" d="M6.971,5.869,3.522,0C2.284,2.114,1.266,3.858,0,6.021a60.649,60.649,0,0,0,6.971-.153" transform="translate(36.347 138.502)" fill="#7556e6"/>
      <path id="Fill_328-2" data-name="Fill 328" d="M0,5.975a65.976,65.976,0,0,0,6.719-.112C5.5,3.777,4.483,2.043,3.288,0A35.862,35.862,0,0,0,0,5.975" transform="translate(54.771 138.54)" fill="#7556e6"/>
      <path id="Fill_330-2" data-name="Fill 330" d="M3.313,0A42.144,42.144,0,0,0,0,5.887H6.78L3.313,0" transform="translate(109.224 138.565)" fill="#7556e6"/>
      <path id="Fill_332-2" data-name="Fill 332" d="M0,5.914H6.4A42.645,42.645,0,0,0,3.168,0C1.976,2.2.7,3.78,0,5.914" transform="translate(127.492 138.494)" fill="#7556e6"/>
      <path id="Fill_334-2" data-name="Fill 334" d="M6.629,5.825C5.454,3.678,4.472,1.927,3.173,0,2,2.112.722,3.752,0,5.825Z" transform="translate(181.926 138.592)" fill="#7556e6"/>
      <path id="Fill_336-2" data-name="Fill 336" d="M3.186,0A46.979,46.979,0,0,0,0,5.791H6.62A42.049,42.049,0,0,0,3.186,0" transform="translate(200.043 138.632)" fill="#7556e6"/>
      <path id="Fill_338-2" data-name="Fill 338" d="M3.409,6.076c.975-.051,2.01.261,3.143-.411C5.494,3.874,4.494,2.183,3.206,0,2.087,2.28.739,3.887,0,6.088c1.356,0,2.385.041,3.409-.012" transform="translate(254.528 138.448)" fill="#7556e6"/>
      <path id="Fill_340-2" data-name="Fill 340" d="M3.06,0C1.232,2.152.1,4.3,0,5.669H6.378C5.137,3.546,4.122,1.815,3.06,0" transform="translate(273.038 138.768)" fill="#7556e6"/>
      <path id="Fill_342-2" data-name="Fill 342" d="M3.327,0A39.714,39.714,0,0,0,0,6.015c2.344-.153,4.36.216,6.678-.313C5.533,3.754,4.512,2.017,3.327,0" transform="translate(327.111 138.549)" fill="#7556e6"/>
      <path id="Fill_344-2" data-name="Fill 344" d="M3.287,0A40.757,40.757,0,0,0,0,5.98c2.362-.063,4.374.223,6.676-.237C5.554,3.842,4.559,2.155,3.287,0" transform="translate(327.137 121.209)" fill="#7556e6"/>
      <path id="Fill_346-2" data-name="Fill 346" d="M5.426,5.8c.385,0,.77-.084,1.538-.174A42.681,42.681,0,0,0,3.425,0L0,5.8c2.153,0,3.789.009,5.426-.006" transform="translate(272.396 121.395)" fill="#7556e6"/>
      <path id="Fill_348-2" data-name="Fill 348" d="M6.9,5.86C5.707,3.844,4.686,2.112,3.44,0,2.211,2.093,1.2,3.819,0,5.86Z" transform="translate(254.339 121.19)" fill="#7556e6"/>
      <path id="Fill_350-2" data-name="Fill 350" d="M3.33,0A41.829,41.829,0,0,0,0,5.987c1.378,0,2.4.012,3.42,0,.988-.014,1.975-.056,3.362-.1C5.555,3.792,4.54,2.065,3.33,0" transform="translate(199.994 121.216)" fill="#7556e6"/>
      <path id="Fill_352-2" data-name="Fill 352" d="M3.282,0A42.909,42.909,0,0,0,0,5.822H6.719C5.529,3.808,4.509,2.077,3.282,0" transform="translate(181.887 121.234)" fill="#7556e6"/>
      <path id="Fill_354-2" data-name="Fill 354" d="M6.889,5.74C5.773,3.827,4.784,2.134,3.537,0,2.27,2.15,1.247,3.877,0,5.99c2.537-.069,4.584.265,6.889-.25" transform="translate(127.134 121.191)" fill="#4500a7"/>
      <path id="Fill_356-2" data-name="Fill 356" d="M0,5.889H6.777L3.3,0A60.865,60.865,0,0,0,0,5.889" transform="translate(109.209 121.19)" fill="#4500a7"/>
      <path id="Fill_358-2" data-name="Fill 358" d="M6.888,5.735,3.54,0C2.273,2.146,1.253,3.873,0,5.993c2.536-.078,4.582.266,6.888-.258" transform="translate(54.497 121.191)" fill="#7556e6"/>
      <path id="Fill_360-2" data-name="Fill 360" d="M0,5.751H6.737C5.542,3.723,4.6,1.911,3.261,0A47.914,47.914,0,0,0,0,5.751" transform="translate(36.584 121.325)" fill="#7556e6"/>
      <path id="Fill_362-2" data-name="Fill 362" d="M0,5.678H6.7A46.748,46.748,0,0,0,3.316,0,41.984,41.984,0,0,0,0,5.678" transform="translate(36.547 17.569)" fill="#7556e6"/>
      <path id="Fill_364-2" data-name="Fill 364" d="M3.463,0,0,5.872H6.9C5.694,3.814,4.685,2.089,3.463,0" transform="translate(54.574 17.349)" fill="#7556e6"/>
      <path id="Fill_366-2" data-name="Fill 366" d="M0,5.749H6.659C5.467,3.655,4.515,1.887,3.2,0A39.2,39.2,0,0,0,0,5.749" transform="translate(109.277 17.488)" fill="#7556e6"/>
      <path id="Fill_368-2" data-name="Fill 368" d="M5.426,5.865c.384,0,.768-.084,1.45-.164A40.37,40.37,0,0,0,3.464,0C2.276,2.012,1.281,3.7,0,5.872c2.154,0,3.789.009,5.426-.006" transform="translate(127.127 17.49)" fill="#7556e6"/>
      <path id="Fill_370-2" data-name="Fill 370" d="M6.782,5.876,3.314,0C2.051,2.215.912,3.876,0,5.876Z" transform="translate(181.828 17.349)" fill="#7556e6"/>
      <path id="Fill_372-2" data-name="Fill 372" d="M6.726,5.705A40.542,40.542,0,0,0,3.315,0C2.072,2.023.99,3.718,0,5.705Z" transform="translate(199.934 17.524)" fill="#7556e6"/>
      <path id="Fill_374-2" data-name="Fill 374" d="M0,5.826H6.729C5.54,3.814,4.519,2.083,3.29,0A44.563,44.563,0,0,0,0,5.826" transform="translate(254.514 17.394)" fill="#7556e6"/>
      <path id="Fill_376-2" data-name="Fill 376" d="M0,5.861H6.74C5.558,3.842,4.542,2.109,3.306,0A54.462,54.462,0,0,0,0,5.861" transform="translate(272.647 17.365)" fill="#7556e6"/>
      <path id="Fill_380" data-name="Fill 380" d="M3.3,0A66.89,66.89,0,0,0,0,5.9H6.727C5.564,3.9,4.549,2.157,3.3,0" transform="translate(0.263 69.255)" fill="#7556e6"/>
      <path id="Fill_382-2" data-name="Fill 382" d="M3.429,0C2.182,2.143,1.167,3.885,0,5.888H6.861C5.665,3.837,4.653,2.1,3.429,0" transform="translate(18.286 69.256)" fill="#7556e6"/>
      <path id="Fill_384-2" data-name="Fill 384" d="M6.874,5.78,3.491,0C2.262,2.123,1.254,3.868,0,6.035c2.512-.094,4.551.226,6.874-.255" transform="translate(36.375 69.249)" fill="#7556e6"/>
      <path id="Fill_386-2" data-name="Fill 386" d="M3.329,0A60.06,60.06,0,0,0,0,5.857H6.716L3.329,0" transform="translate(54.732 69.28)" fill="#7556e6"/>
      <path id="Fill_388-2" data-name="Fill 388" d="M6.822,5.563A33.779,33.779,0,0,0,3.4,0C2.257,1.948,1.239,3.684,0,5.8c2.528-.079,4.586.256,6.822-.233" transform="translate(72.676 69.472)" fill="#7556e6"/>
      <path id="Fill_392-2" data-name="Fill 392" d="M0,5.872H6.87L3.426,0C2.174,2.149,1.164,3.876,0,5.872" transform="translate(290.672 17.343)" fill="#7556e6"/>
      <path id="Fill_394-2" data-name="Fill 394" d="M6.892,5.765C5.767,3.855,4.774,2.169,3.5,0L0,5.967a36.1,36.1,0,0,0,6.892-.2" transform="translate(236.122 17.352)" fill="#7556e6"/>
      <path id="Fill_396-2" data-name="Fill 396" d="M6.911,5.557C5.7,3.642,4.94,1.764,3.38,0,2.244,1.92,1.223,3.642,0,5.706a39.8,39.8,0,0,0,6.911-.149" transform="translate(217.959 17.599)" fill="#7556e6"/>
      <path id="Fill_398-2" data-name="Fill 398" d="M6.555,5.393A12.026,12.026,0,0,0,3.16,0L0,5.393Z" transform="translate(163.535 17.838)" fill="#7556e6"/>
      <path id="Fill_400-2" data-name="Fill 400" d="M6.977,5.6C5.7,3.577,4.933,1.7,3.367,0,2.249,1.9,1.256,3.584,0,5.715A60.414,60.414,0,0,0,6.977,5.6" transform="translate(145.309 17.617)" fill="#7556e6"/>
      <path id="Fill_402-2" data-name="Fill 402" d="M6.944,5.741A61.42,61.42,0,0,0,3.451,0C2.255,2.043,1.262,3.738,0,5.9a68.041,68.041,0,0,0,6.944-.155" transform="translate(90.824 17.47)" fill="#7556e6"/>
      <path id="Fill_404-2" data-name="Fill 404" d="M6.785,5.823C5.606,3.809,4.613,2.116,3.375,0A52.525,52.525,0,0,0,0,5.951a55.216,55.216,0,0,0,6.785-.128" transform="translate(72.841 17.384)" fill="#7556e6"/>
      <path id="Fill_406-2" data-name="Fill 406" d="M6.516,5.607C5.334,3.6,4.341,1.914,3.213,0A16.343,16.343,0,0,0,0,5.737a47.957,47.957,0,0,0,6.516-.13" transform="translate(18.638 17.592)" fill="#7556e6"/>
      <path id="Fill_410-2" data-name="Fill 410" d="M3.272,0C2.081,2.057.968,3.751,0,5.738H6.634A33.356,33.356,0,0,0,3.272,0" transform="translate(91.004 69.416)" fill="#7556e6"/>
      <path id="Fill_412-2" data-name="Fill 412" d="M0,5.982H6.8L3.3,0C2.139,2.2.944,3.883,0,5.982" transform="translate(109.18 69.225)" fill="#7556e6"/>
      <path id="Fill_414-2" data-name="Fill 414" d="M3.363,0,0,5.786H6.858A62.631,62.631,0,0,0,3.363,0" transform="translate(127.232 69.377)" fill="#7556e6"/>
      <path id="Fill_416-2" data-name="Fill 416" d="M3.333,0C2.191,1.949,1.174,3.685,0,5.69H6.843A35.224,35.224,0,0,0,3.333,0" transform="translate(145.374 69.476)" fill="#7556e6"/>
      <path id="Fill_418-2" data-name="Fill 418" d="M0,5.7H6.67A32.549,32.549,0,0,0,3.305,0C2.086,2.028,1.016,3.743,0,5.7" transform="translate(163.61 69.448)" fill="#7556e6"/>
      <path id="Fill_420-2" data-name="Fill 420" d="M4.749,5.931c.6-.006,1.192-.065,2.094-.116A50.374,50.374,0,0,0,3.426,0C2.234,2.067,1.229,3.808,0,5.936c1.907,0,3.329.011,4.749,0" transform="translate(181.651 69.347)" fill="#7556e6"/>
      <path id="Fill_422-2" data-name="Fill 422" d="M0,5.931H6.733C5.5,3.811,4.5,2.076,3.29,0A49.641,49.641,0,0,0,0,5.931" transform="translate(200.027 69.268)" fill="#7556e6"/>
      <path id="Fill_424-2" data-name="Fill 424" d="M3.322,0A65.187,65.187,0,0,0,0,5.719H6.735C5.895,4.245,5.2,3,4.481,1.775c-.3-.517-.653-1-1.159-1.775" transform="translate(218.115 69.421)" fill="#536dfe"/>
      <path id="Fill_426-2" data-name="Fill 426" d="M0,5.888H6.86L3.428,0,0,5.888" transform="translate(236.193 69.257)" fill="#7556e6"/>
      <path id="Fill_428-2" data-name="Fill 428" d="M3.03,0C2.092,1.809.861,3.429,0,5.508H6.412A13.33,13.33,0,0,0,3.03,0" transform="translate(254.479 69.683)" fill="#7556e6"/>
      <path id="Fill_430-2" data-name="Fill 430" d="M0,5.885H6.851C5.68,3.862,4.67,2.117,3.446,0L0,5.885" transform="translate(272.504 69.25)" fill="#7556e6"/>
      <path id="Fill_432-2" data-name="Fill 432" d="M3.452,0,0,5.887H6.883C5.682,3.828,4.671,2.093,3.452,0" transform="translate(290.651 69.265)" fill="#7556e6"/>
      <path id="Fill_438-2" data-name="Fill 438" d="M3.226,0A53.83,53.83,0,0,0,0,5.7H6.8A55.609,55.609,0,0,0,3.226,0" transform="translate(0.243 121.386)" fill="#7556e6"/>
      <path id="Fill_440-2" data-name="Fill 440" d="M6.748,5.783C5.581,3.789,4.571,2.063,3.366,0A46.436,46.436,0,0,0,0,5.783Z" transform="translate(18.4 121.275)" fill="#7556e6"/>
      <path id="Fill_442-2" data-name="Fill 442" d="M6.778,5.856,3.338,0A58.992,58.992,0,0,0,0,5.856Z" transform="translate(72.873 121.219)" fill="#7556e6"/>
      <path id="Fill_444-2" data-name="Fill 444" d="M6.758,5.687C5.647,3.8,4.655,2.11,3.412,0A56.544,56.544,0,0,0,0,5.989c2.406-.15,4.471.252,6.758-.3" transform="translate(90.961 121.234)" fill="#7556e6"/>
      <path id="Fill_446-2" data-name="Fill 446" d="M0,5.781H6.648A42.105,42.105,0,0,0,3.2,0,56.224,56.224,0,0,0,0,5.781" transform="translate(145.543 121.308)" fill="#7556e6"/>
      <path id="Fill_448-2" data-name="Fill 448" d="M6.9,5.767C5.769,3.857,4.774,2.171,3.494,0,2.219,2.175,1.205,3.9,0,5.961a36.283,36.283,0,0,0,6.9-.194" transform="translate(163.488 121.193)" fill="#4500a7"/>
      <path id="Fill_450-2" data-name="Fill 450" d="M3.368,0A46.476,46.476,0,0,0,0,5.793H6.771C5.6,3.8,4.586,2.073,3.368,0" transform="translate(218.144 121.271)" fill="#7556e6"/>
      <path id="Fill_452-2" data-name="Fill 452" d="M0,5.661H6.462L3.113,0C1.134,2.6.262,4.229,0,5.661" transform="translate(236.616 121.408)" fill="#7556e6"/>
      <path id="Fill_454-2" data-name="Fill 454" d="M3.2,0C2.19,1.7,1.193,3.39,0,5.406H6.571A12.185,12.185,0,0,0,3.2,0" transform="translate(290.626 121.673)" fill="#7556e6"/>
      <path id="Fill_456-2" data-name="Fill 456" d="M3.412,0A27.718,27.718,0,0,0,0,5.649H6.753C5.591,3.683,4.592,2,3.412,0" transform="translate(308.959 121.396)" fill="#7556e6"/>
      <path id="Fill_458-2" data-name="Fill 458" d="M0,5.757H6.72L3.33,0A47.4,47.4,0,0,0,0,5.757" transform="translate(327.125 173.203)" fill="#7556e6"/>
      <path id="Fill_460-2" data-name="Fill 460" d="M6.842,5.85,3.423,0,0,5.85Z" transform="translate(0.138 173.118)" fill="#7556e6"/>
      <path id="Fill_462-2" data-name="Fill 462" d="M6.848,5.86,3.428,0,0,5.86Z" transform="translate(18.287 173.116)" fill="#7556e6"/>
      <path id="Fill_464-2" data-name="Fill 464" d="M3.356,0A43.086,43.086,0,0,0,0,5.766H6.762L3.356,0" transform="translate(36.571 173.229)" fill="#7556e6"/>
      <path id="Fill_466-2" data-name="Fill 466" d="M6.764,5.764C5.587,3.754,4.575,2.025,3.388,0A44.468,44.468,0,0,0,0,5.764Z" transform="translate(54.708 173.229)" fill="#7556e6"/>
      <path id="Fill_468-2" data-name="Fill 468" d="M0,5.711a59.1,59.1,0,0,0,6.495-.1L3.208,0A15.667,15.667,0,0,0,0,5.711" transform="translate(73.137 173.382)" fill="#ffc414"/>
      <path id="Fill_470-2" data-name="Fill 470" d="M0,5.656H6.752A28.171,28.171,0,0,0,3.309,0C2.171,1.945,1.162,3.669,0,5.656" transform="translate(90.911 173.337)" fill="#ffc414"/>
      <path id="Fill_472-2" data-name="Fill 472" d="M3.342,0A44.708,44.708,0,0,0,0,5.821H6.775L3.342,0" transform="translate(109.207 173.203)" fill="#ffc414"/>
      <path id="Fill_474-2" data-name="Fill 474" d="M6.566,5.517,3.342,0,0,5.661a13.02,13.02,0,0,0,6.566-.144" transform="translate(127.334 173.126)" fill="#7556e6"/>
      <path id="Fill_476-2" data-name="Fill 476" d="M0,5.937a62.578,62.578,0,0,0,6.773-.1L3.355,0A53.027,53.027,0,0,0,0,5.937" transform="translate(145.492 173.154)" fill="#7556e6"/>
      <path id="Fill_478-2" data-name="Fill 478" d="M0,5.329c3.084.394,5.261.3,6.5-.217C5.349,2.515,4.333.952,3.111,0L0,5.329" transform="translate(163.599 173.583)" fill="#7556e6"/>
      <path id="Fill_480-2" data-name="Fill 480" d="M6.473,5.37C5.464,3.665,4.464,1.973,3.3,0A45.485,45.485,0,0,0,0,5.612c2.617.475,5.165.38,6.473-.242" transform="translate(181.899 173.233)" fill="#7556e6"/>
      <path id="Fill_482-2" data-name="Fill 482" d="M.792,4.182c-.233.4-.4.838-.792,1.658,2.4-.087,4.416.114,6.655-.161A33.994,33.994,0,0,0,3.282,0C2.328,1.6,1.549,2.883.792,4.182" transform="translate(199.948 173.3)" fill="#7556e6"/>
      <path id="Fill_484-2" data-name="Fill 484" d="M3.427,0C2.168,2.153,1.162,3.875,0,5.864H6.853C5.684,3.862,4.678,2.142,3.427,0" transform="translate(218.04 173.116)" fill="#7556e6"/>
      <path id="Fill_486-2" data-name="Fill 486" d="M6.885,5.733C5.772,3.843,4.779,2.161,3.506,0,2.231,2.179,1.221,3.907,0,5.993c2.517-.1,4.572.244,6.885-.26" transform="translate(236.111 173.127)" fill="#7556e6"/>
      <path id="Fill_488-2" data-name="Fill 488" d="M6.634,5.38A13.971,13.971,0,0,0,3.259,0L0,5.564c2.558-.065,4.582.2,6.634-.184" transform="translate(254.27 173.551)" fill="#7556e6"/>
      <path id="Fill_490-2" data-name="Fill 490" d="M3.37,0,0,5.712H6.686A33.487,33.487,0,0,0,3.37,0" transform="translate(272.503 173.254)" fill="#7556e6"/>
      <path id="Fill_492-2" data-name="Fill 492" d="M6.892,5.79,3.507,0C2.238,2.155,1.228,3.872,0,5.955A43.007,43.007,0,0,0,6.892,5.79" transform="translate(290.601 173.127)" fill="#7556e6"/>
      <path id="Fill_494-2" data-name="Fill 494" d="M6.732,5.587A27.8,27.8,0,0,0,3.326,0L0,5.68a33.377,33.377,0,0,0,6.732-.093" transform="translate(308.802 173.337)" fill="#7556e6"/>
    </g>
  </g>
</svg>
