<svg xmlns="http://www.w3.org/2000/svg" xmlns:xlink="http://www.w3.org/1999/xlink" width="234.501" height="190.845" viewBox="0 0 234.501 190.845">
  <defs>
    <clipPath id="clip-path">
      <path id="Combined_Shape" data-name="Combined Shape" d="M62.017,0c-.816,0-1.48,1.074-1.48,2.4,0,1.232.572,2.246,1.308,2.384l.171.017H82.512c.818,0,1.481-1.076,1.481-2.4,0-1.232-.572-2.246-1.308-2.386L82.512,0ZM46.166,0c-.818,0-1.481,1.074-1.481,2.4,0,1.232.572,2.246,1.308,2.384l.173.017H48.9c.818,0,1.481-1.076,1.481-2.4,0-1.232-.572-2.246-1.308-2.386L48.9,0ZM93.495,2.52c-.005,1.232.562,2.252,1.3,2.4l.173.019,25.254.277c.816.008,1.485-1.059,1.49-2.384.005-1.232-.562-2.253-1.3-2.4l-.173-.017L94.984.134h-.01C94.161.134,93.5,1.2,93.495,2.52ZM55.817,33.02c-.005,1.23.563,2.252,1.3,2.4l.173.017,52.352.414c.816.008,1.485-1.059,1.49-2.386.005-1.232-.562-2.253-1.3-2.4l-.173-.019-52.351-.412H57.3C56.485,30.634,55.824,31.7,55.817,33.02ZM15.3,30.634c-.818,0-1.481,1.076-1.481,2.4,0,1.232.572,2.246,1.308,2.386l.173.017H42.622c.818,0,1.481-1.076,1.481-2.4,0-1.23-.572-2.246-1.308-2.384l-.173-.017Zm-13.816,0c-.816,0-1.48,1.076-1.48,2.4,0,1.232.572,2.246,1.308,2.386l.171.017H4.44c.818,0,1.481-1.076,1.481-2.4,0-1.23-.572-2.246-1.308-2.384l-.173-.017ZM61.067,60.463c-.818,0-1.481,1.076-1.481,2.4,0,1.232.572,2.246,1.308,2.386l.173.015H80.031c.818,0,1.481-1.074,1.481-2.4,0-1.232-.572-2.246-1.308-2.384l-.173-.017Zm-13.548,0c-.816,0-1.48,1.076-1.48,2.4,0,1.232.572,2.246,1.308,2.386l.171.015h2.71c.818,0,1.481-1.074,1.481-2.4,0-1.232-.572-2.246-1.308-2.384l-.173-.017Zm46.938,2.511c-.005,1.23.563,2.252,1.3,2.4l.171.019,23.685.214c.816.007,1.483-1.062,1.488-2.387,0-1.232-.563-2.252-1.3-2.4l-.173-.017-23.683-.215h-.008C95.123,60.585,94.462,61.651,94.457,62.974Z" transform="translate(0 0)" fill="#fff"/>
    </clipPath>
  </defs>
  <g id="Group_37" data-name="Group 37" transform="translate(-679.499 -499.655)">
    <g id="moving_lines" data-name="moving lines" transform="translate(786.693 624.898)" clip-path="url(#clip-path)">
      <rect id="Rectangle" width="92.885" height="27.511" transform="translate(53.906 22.22)" fill="#fff"/>
      <rect id="Rectangle-2" data-name="Rectangle" width="33.173" height="23.278" transform="translate(20.82 -11.036)" fill="#fff"/>
      <rect id="Rectangle-3" data-name="Rectangle" width="18.245" height="23.278" transform="translate(37.75 49.219)" fill="#fff"/>
      <rect id="Rectangle-4" data-name="Rectangle" width="33.173" height="23.278" transform="translate(-23.134 21.05)" fill="#fff"/>
      <rect id="Rectangle-5" data-name="Rectangle" width="54.736" height="135.438" transform="translate(92.056 -31.744)" fill="#fff"/>
    </g>
    <g id="moving_lines-2" data-name="moving lines" transform="translate(679.105 600.198)">
      <path id="Combined_Shape-4" data-name="Combined Shape" d="M62.017,0c-.816,0-1.48,1.074-1.48,2.4,0,1.232.572,2.246,1.308,2.384l.171.017H82.512c.818,0,1.481-1.076,1.481-2.4,0-1.232-.572-2.246-1.308-2.386L82.512,0ZM46.166,0c-.818,0-1.481,1.074-1.481,2.4,0,1.232.572,2.246,1.308,2.384l.173.017H48.9c.818,0,1.481-1.076,1.481-2.4,0-1.232-.572-2.246-1.308-2.386L48.9,0ZM93.495,2.52c-.005,1.232.562,2.252,1.3,2.4l.173.019,25.254.277c.816.008,1.485-1.059,1.49-2.384.005-1.232-.562-2.253-1.3-2.4l-.173-.017L94.984.134h-.01C94.161.134,93.5,1.2,93.495,2.52ZM55.817,33.02c-.005,1.23.563,2.252,1.3,2.4l.173.017,52.352.414c.816.008,1.485-1.059,1.49-2.386.005-1.232-.562-2.253-1.3-2.4l-.173-.019-52.351-.412H57.3C56.485,30.634,55.824,31.7,55.817,33.02ZM15.3,30.634c-.818,0-1.481,1.076-1.481,2.4,0,1.232.572,2.246,1.308,2.386l.173.017H42.622c.818,0,1.481-1.076,1.481-2.4,0-1.23-.572-2.246-1.308-2.384l-.173-.017Zm-13.816,0c-.816,0-1.48,1.076-1.48,2.4,0,1.232.572,2.246,1.308,2.386l.171.017H4.44c.818,0,1.481-1.076,1.481-2.4,0-1.23-.572-2.246-1.308-2.384l-.173-.017ZM61.067,60.463c-.818,0-1.481,1.076-1.481,2.4,0,1.232.572,2.246,1.308,2.386l.173.015H80.031c.818,0,1.481-1.074,1.481-2.4,0-1.232-.572-2.246-1.308-2.384l-.173-.017Zm-13.548,0c-.816,0-1.48,1.076-1.48,2.4,0,1.232.572,2.246,1.308,2.386l.171.015h2.71c.818,0,1.481-1.074,1.481-2.4,0-1.232-.572-2.246-1.308-2.384l-.173-.017Zm46.938,2.511c-.005,1.23.563,2.252,1.3,2.4l.171.019,23.685.214c.816.007,1.483-1.062,1.488-2.387,0-1.232-.563-2.252-1.3-2.4l-.173-.017-23.683-.215h-.008C95.123,60.585,94.462,61.651,94.457,62.974Z" transform="translate(0.394 -35.3)" fill="#fff"/>
      <g id="moving_lines-3" data-name="moving lines" transform="translate(0.394 -35.3)" clip-path="url(#clip-path)">
        <rect id="Rectangle-6" data-name="Rectangle" width="92.885" height="27.511" transform="translate(53.906 22.22)" fill="#fff"/>
        <rect id="Rectangle-7" data-name="Rectangle" width="33.173" height="23.278" transform="translate(20.82 -11.036)" fill="#fff"/>
        <rect id="Rectangle-8" data-name="Rectangle" width="18.245" height="23.278" transform="translate(37.75 49.219)" fill="#fff"/>
        <rect id="Rectangle-9" data-name="Rectangle" width="33.173" height="23.278" transform="translate(-23.134 21.05)" fill="#fff"/>
        <rect id="Rectangle-10" data-name="Rectangle" width="54.736" height="135.438" transform="translate(92.056 -31.744)" fill="#fff"/>
      </g>
    </g>
    <g id="moving_lines-4" data-name="moving lines" transform="translate(791.898 534.955)">
      <path id="Combined_Shape-5" data-name="Combined Shape" d="M62.017,0c-.816,0-1.48,1.074-1.48,2.4,0,1.232.572,2.246,1.308,2.384l.171.017H82.512c.818,0,1.481-1.076,1.481-2.4,0-1.232-.572-2.246-1.308-2.386L82.512,0ZM46.166,0c-.818,0-1.481,1.074-1.481,2.4,0,1.232.572,2.246,1.308,2.384l.173.017H48.9c.818,0,1.481-1.076,1.481-2.4,0-1.232-.572-2.246-1.308-2.386L48.9,0ZM93.495,2.52c-.005,1.232.562,2.252,1.3,2.4l.173.019,25.254.277c.816.008,1.485-1.059,1.49-2.384.005-1.232-.562-2.253-1.3-2.4l-.173-.017L94.984.134h-.01C94.161.134,93.5,1.2,93.495,2.52ZM55.817,33.02c-.005,1.23.563,2.252,1.3,2.4l.173.017,52.352.414c.816.008,1.485-1.059,1.49-2.386.005-1.232-.562-2.253-1.3-2.4l-.173-.019-52.351-.412H57.3C56.485,30.634,55.824,31.7,55.817,33.02ZM15.3,30.634c-.818,0-1.481,1.076-1.481,2.4,0,1.232.572,2.246,1.308,2.386l.173.017H42.622c.818,0,1.481-1.076,1.481-2.4,0-1.23-.572-2.246-1.308-2.384l-.173-.017Zm-13.816,0c-.816,0-1.48,1.076-1.48,2.4,0,1.232.572,2.246,1.308,2.386l.171.017H4.44c.818,0,1.481-1.076,1.481-2.4,0-1.23-.572-2.246-1.308-2.384l-.173-.017ZM61.067,60.463c-.818,0-1.481,1.076-1.481,2.4,0,1.232.572,2.246,1.308,2.386l.173.015H80.031c.818,0,1.481-1.074,1.481-2.4,0-1.232-.572-2.246-1.308-2.384l-.173-.017Zm-13.548,0c-.816,0-1.48,1.076-1.48,2.4,0,1.232.572,2.246,1.308,2.386l.171.015h2.71c.818,0,1.481-1.074,1.481-2.4,0-1.232-.572-2.246-1.308-2.384l-.173-.017Zm46.938,2.511c-.005,1.23.563,2.252,1.3,2.4l.171.019,23.685.214c.816.007,1.483-1.062,1.488-2.387,0-1.232-.563-2.252-1.3-2.4l-.173-.017-23.683-.215h-.008C95.123,60.585,94.462,61.651,94.457,62.974Z" transform="translate(0.394 -35.3)" fill="#fff"/>
      <g id="moving_lines-5" data-name="moving lines" transform="translate(0.394 -35.3)" clip-path="url(#clip-path)">
        <rect id="Rectangle-11" data-name="Rectangle" width="92.885" height="27.511" transform="translate(53.906 22.22)" fill="#fff"/>
        <rect id="Rectangle-12" data-name="Rectangle" width="33.173" height="23.278" transform="translate(20.82 -11.036)" fill="#fff"/>
        <rect id="Rectangle-13" data-name="Rectangle" width="18.245" height="23.278" transform="translate(37.75 49.219)" fill="#fff"/>
        <rect id="Rectangle-14" data-name="Rectangle" width="33.173" height="23.278" transform="translate(-23.134 21.05)" fill="#fff"/>
        <rect id="Rectangle-15" data-name="Rectangle" width="54.736" height="135.438" transform="translate(92.056 -31.744)" fill="#fff"/>
      </g>
    </g>
  </g>
</svg>
